<?xml version="1.0" encoding="utf-8" ?>
<svg xmlns="http://www.w3.org/2000/svg" xmlns:xlink="http://www.w3.org/1999/xlink" width="400" height="400">
	<path fill="#43304E" transform="matrix(0.78125 0 0 0.78125 0 0.015625)" d="M245.655 62.0607C264.774 61.6051 306.033 62.5358 324.209 69.8773C341.566 76.888 355.242 93.9725 357.174 112.717C357.906 119.821 357.66 130.232 357.387 137.493C361.675 139.474 379.562 152.037 383.768 156.114C386.803 159.055 385.166 171.223 385.224 175.521C385.184 175.574 385.145 175.628 385.105 175.682L384.901 175.946C381.705 180.142 376.8 176.796 372.766 175.43C367.682 173.708 362.636 172.044 357.387 170.901L357.464 392.129C357.484 418.505 335.825 443.828 309.187 446.1C303.651 446.572 297.819 446.18 292.245 446.178L265.483 446.168L224.065 446.175C215.716 446.174 204.74 446.937 196.682 445.133C176.12 440.531 159.637 422.963 155.796 402.278C154.523 395.421 155.134 385.154 155.134 377.901L155.142 171.762C149.799 171.643 144.99 172.447 140.364 175.284C137.476 177.055 130.174 182.618 127.898 177.031C127.14 175.172 127.1 159.583 127.944 157.688C129.39 154.445 151.233 139.21 155.142 137.493L155.131 122.731C155.096 99.9983 163.175 79.8391 185.589 70.3882C199.64 64.4637 230.567 62.7524 245.655 62.0607ZM349.264 124.566C346.594 123.026 343.617 121.793 340.83 120.457L340.831 198.482C340.831 211.644 341.062 224.848 340.83 238.004C343.703 235.855 346.319 233.439 349.264 231.362C349.564 227.806 349.284 224.212 349.274 220.646L349.264 124.566ZM336.08 292.578C342 292.033 339.794 300.256 339.789 304.004L339.776 325.764C343.036 327.63 346.003 329.932 349.264 331.803L349.264 242.632C346.537 244.477 341.661 248.46 340.392 251.529C337.97 257.387 341.625 284.085 339.123 287.012C338.41 287.846 337.067 287.746 336.08 287.792C336.223 289.412 336.182 290.956 336.08 292.578ZM349.264 392.918L349.264 344.057C346.613 341.447 343.763 339.102 340.83 336.816L340.83 398.173C343.438 396.144 346.387 394.531 349.264 392.918ZM347.908 402.373C345.435 403.517 343.016 404.779 340.83 406.416C339.086 412.127 338.3 417.854 336.08 423.451C342.243 418.113 345.516 409.952 347.908 402.373ZM357.387 162.244C363.694 163.343 371.387 166.957 376.193 167.567C376.228 165.534 376.255 163.509 376.193 161.476C373.234 158.625 360.867 149.289 357.387 147.636C357.411 152.405 357.814 157.511 357.387 162.244ZM155.142 147.636C150.633 149.444 139.416 157.752 136.307 161.476C136.007 163.357 135.542 165.41 136.025 167.288L136.307 167.567C143.824 164.262 146.86 163.399 155.142 163.503C154.707 158.266 155.069 153.037 155.381 147.801L155.142 147.636Z"/>
	<path fill="#43304E" transform="matrix(0.78125 0 0 0.78125 0 0.015625)" d="M250.393 70.704C272.188 69.9487 287.754 73.1502 308.007 74.594C309.356 79.9429 312.399 85.1664 314.775 90.1368L324.95 111.744C327.507 114.952 336.884 117.729 340.83 120.457L340.831 198.482C340.831 211.644 341.062 224.848 340.83 238.004L340.624 238.217C330.755 248.255 329.924 244.883 329.836 260.278L329.824 276.039C329.853 284.512 327.723 287.629 336.08 287.792C336.223 289.412 336.182 290.956 336.08 292.578C332.147 293.639 330.188 291.369 329.886 296.744C329.603 301.781 328.717 329.144 330.805 331.803C334.06 333.373 337.869 334.773 340.83 336.816L340.83 398.173C337.438 398.904 326.323 403.006 324.538 405.674C318.391 414.859 318.849 423.745 308.007 433.979C306.389 435.206 304.781 436.554 302.991 437.518L222.234 437.538C218.191 437.559 212.846 438.466 209.126 436.525C201.21 432.394 193.329 421.877 190.635 413.513C186.453 403.386 189.767 403.986 178.037 399.33L163.768 394.042L163.768 343.156C167.524 339.688 171.881 336.537 176.212 333.828C178.366 331.966 182.233 330.641 182.573 327.454C183.073 322.771 183.026 294.702 181.648 293.891C179.647 292.713 175.897 293.642 173.747 294.064C173.07 291.948 173.341 289.916 173.747 287.792C176.502 287.788 181.497 289.666 182.28 285.694C182.932 282.383 183.023 251.836 182.057 249.76C181.253 248.031 176.86 245.39 175.193 242.911L175.009 242.632C170.977 239.178 168.03 234.54 163.768 231.362C163.923 227.296 163.775 223.177 163.774 219.104L163.768 121.243C167.559 120.062 171.306 118.609 175.009 117.175C178.66 116.08 184.375 113.783 187.491 111.744C191.194 100.943 195.704 77.9165 207.402 74.2167C214.586 71.9444 242.184 70.4371 250.393 70.704Z"/>
	<path fill="#EC5948" transform="matrix(0.78125 0 0 0.78125 0 0.015625)" d="M187.491 111.744C191.194 100.943 195.704 77.9165 207.402 74.2167C214.586 71.9444 242.184 70.4371 250.393 70.704C232.971 73.7391 204.6 97.0018 194.75 110.887C189.928 117.686 191.491 124.759 191.453 132.734C191.445 134.611 190.925 137.021 191.492 138.817L191.229 138.948C187.449 140.782 183.237 141.448 180.215 144.593C180.296 149.224 181.184 153.986 181.719 158.591L185.393 189.302C187.734 209.917 189.977 230.538 192.631 251.117C193.487 257.758 193.988 267.534 195.907 273.726C188.536 283.683 188.894 289.731 188.963 301.276L188.968 354.49C188.961 365.455 187.457 383.198 199.031 389.762C198.152 394.984 205.961 403.19 209.497 406.483C220.159 416.413 232.57 416.355 246.215 416.346L266.454 416.326C290.518 416.306 312.316 420.488 325.284 393.617C332.169 379.349 331.659 348.932 330.805 331.803C334.06 333.373 337.869 334.773 340.83 336.816L340.83 398.173C337.438 398.904 326.323 403.006 324.538 405.674C318.391 414.859 318.849 423.745 308.007 433.979C306.389 435.206 304.781 436.554 302.991 437.518L222.234 437.538C218.191 437.559 212.846 438.466 209.126 436.525C201.21 432.394 193.329 421.877 190.635 413.513C186.453 403.386 189.767 403.986 178.037 399.33L163.768 394.042L163.768 343.156C167.524 339.688 171.881 336.537 176.212 333.828C178.366 331.966 182.233 330.641 182.573 327.454C183.073 322.771 183.026 294.702 181.648 293.891C179.647 292.713 175.897 293.642 173.747 294.064C173.07 291.948 173.341 289.916 173.747 287.792C176.502 287.788 181.497 289.666 182.28 285.694C182.932 282.383 183.023 251.836 182.057 249.76C181.253 248.031 176.86 245.39 175.193 242.911L175.009 242.632C170.977 239.178 168.03 234.54 163.768 231.362C163.923 227.296 163.775 223.177 163.774 219.104L163.768 121.243C167.559 120.062 171.306 118.609 175.009 117.175C178.66 116.08 184.375 113.783 187.491 111.744Z"/>
	<path fill="#CB2C38" transform="matrix(0.78125 0 0 0.78125 0 0.015625)" d="M163.768 121.243C167.559 120.062 171.306 118.609 175.009 117.175L175.009 242.632C170.977 239.178 168.03 234.54 163.768 231.362C163.923 227.296 163.775 223.177 163.774 219.104L163.768 121.243Z"/>
	<path fill="#CB2C38" transform="matrix(0.78125 0 0 0.78125 0 0.015625)" d="M190.635 413.513C191.286 405.995 191.697 398.372 192.889 390.916C206.432 430.505 229.114 433.522 265.462 433.517L291.325 433.5C296.262 433.491 303.278 432.878 308.007 433.979C306.389 435.206 304.781 436.554 302.991 437.518L222.234 437.538C218.191 437.559 212.846 438.466 209.126 436.525C201.21 432.394 193.329 421.877 190.635 413.513Z"/>
	<path fill="#CB2C38" transform="matrix(0.78125 0 0 0.78125 0 0.015625)" d="M176.212 333.828L178.037 399.33L163.768 394.042L163.768 343.156C167.524 339.688 171.881 336.537 176.212 333.828Z"/>
	<path fill="#FEA439" transform="matrix(0.78125 0 0 0.78125 0 0.015625)" d="M250.393 70.704C272.188 69.9487 287.754 73.1502 308.007 74.594C309.356 79.9429 312.399 85.1664 314.775 90.1368L324.95 111.744L324.95 139.987C284.967 124.42 232.18 126.407 191.492 138.817C190.925 137.021 191.445 134.611 191.453 132.734C191.491 124.759 189.928 117.686 194.75 110.887C204.6 97.0018 232.971 73.7391 250.393 70.704Z"/>
	<path fill="#43304E" transform="matrix(0.78125 0 0 0.78125 0 0.015625)" d="M273.629 80.1486C275.837 80.105 278.039 80.1153 280.248 80.1486C283.597 82.4709 284.128 88.0293 279.198 88.7324C275.511 89.2583 270.862 88.7771 267.082 88.7741L238.56 88.7627C236.183 88.8808 233.869 88.991 231.494 88.7627C228.31 86.6849 227.219 81.1772 232.022 80.3255C235.728 79.6685 241.137 80.1361 245.029 80.1358L273.629 80.1486Z"/>
	<path fill="#F97E42" transform="matrix(0.78125 0 0 0.78125 0 0.015625)" d="M324.95 111.744C327.507 114.952 336.884 117.729 340.83 120.457L340.831 198.482C340.831 211.644 341.062 224.848 340.83 238.004L340.624 238.217C330.755 248.255 329.924 244.883 329.836 260.278L329.824 276.039C329.853 284.512 327.723 287.629 336.08 287.792C336.223 289.412 336.182 290.956 336.08 292.578C332.147 293.639 330.188 291.369 329.886 296.744C329.603 301.781 328.717 329.144 330.805 331.803C331.659 348.932 332.169 379.349 325.284 393.617C312.316 420.488 290.518 416.306 266.454 416.326L246.215 416.346C232.57 416.355 220.159 416.413 209.497 406.483C205.961 403.19 198.152 394.984 199.031 389.762C208.057 398.927 219.508 398.199 231.323 398.182L281.415 398.183C295.988 398.183 309.36 399.142 318.542 385.205C325.13 375.205 323.96 366.338 323.965 354.862L323.961 299.541C323.96 290.481 325.371 279.411 316.401 273.726C316.881 269.078 317.596 264.466 318.158 259.829L326.827 187.754C328.615 172.965 330.52 158.232 332.083 143.413C329.811 142.058 327.377 141.022 324.95 139.987L324.95 111.744Z"/>
	<path fill="#3F789B" transform="matrix(0.78125 0 0 0.78125 0 0.015625)" d="M230.028 271.559C248.039 269.196 265.629 270.348 283.598 271.559C313.79 277.512 315.419 275.239 315.338 303.8L315.336 356.087C315.372 368.149 316.587 379.318 304.991 386.903C299.784 390.309 292.366 390.505 286.385 389.762C281.174 390.249 274.045 389.763 268.588 389.761L230.028 389.762C201.201 389.868 197.317 383.092 197.304 354.747L197.31 304.637C197.331 277.661 202.767 273.824 230.028 271.559Z"/>
	<path fill="#4C90B1" transform="matrix(0.78125 0 0 0.78125 0 0.015625)" d="M230.028 389.762C201.201 389.868 197.317 383.092 197.304 354.747L197.31 304.637C197.331 277.661 202.767 273.824 230.028 271.559L230.028 389.762Z"/>
	<path fill="#4C90B1" transform="matrix(0.78125 0 0 0.78125 0 0.015625)" d="M283.598 271.559C313.79 277.512 315.419 275.239 315.338 303.8L315.336 356.087C315.372 368.149 316.587 379.318 304.991 386.903C299.784 390.309 292.366 390.505 286.385 389.762C285.698 389.687 283.73 389.89 283.533 389.196C283.271 388.272 283.6 377.101 283.601 374.952L283.594 280.387C283.577 278.204 282.437 273.292 283.598 271.559Z"/>
	<path fill="#FEA439" transform="matrix(0.78125 0 0 0.78125 0 0.015625)" d="M245.655 194.727C267.03 193.988 296.501 196.095 316.401 204.07C312.09 224.105 311.383 247.894 308.007 268.73C295.505 263.835 280.365 262.64 267.062 261.482C249.438 261.459 219.188 260.449 203.916 268.73C200.682 247.279 198.572 225.602 195.907 204.07C213.385 198.172 227.437 196.459 245.655 194.727Z"/>
	<path fill="#DEE9EA" transform="matrix(0.78125 0 0 0.78125 0 0.015625)" d="M216.822 141.435C250.07 134.504 290.149 136.937 322.427 148.666C321.045 162.528 319.534 181.306 317.007 194.727C288.458 184.677 250.019 183.997 220.363 188.899C211.652 190.333 203.484 192.517 194.968 194.727C193.44 184.05 189.856 158.359 190.635 149.555C197.393 145.47 208.964 142.737 216.822 141.435Z"/>
	<path fill="#A5C4CC" transform="matrix(0.78125 0 0 0.78125 0 0.015625)" d="M190.635 149.555C197.393 145.47 208.964 142.737 216.822 141.435C215.732 142.996 214.388 144.577 213.681 146.354C210.085 155.392 217.381 179.853 220.363 188.899C211.652 190.333 203.484 192.517 194.968 194.727C193.44 184.05 189.856 158.359 190.635 149.555Z"/>
	<path fill="#A5C4CC" transform="matrix(0.78125 0 0 0.78125 0 0.015625)" d="M163.768 243.416C166.655 247.193 170.357 250.783 173.747 254.119L173.747 271.559C173.742 276.936 173.511 282.428 173.747 287.792C173.341 289.916 173.07 291.948 173.747 294.064C173.687 300.466 174.807 319.16 173.747 324.518C171.556 324.852 165.75 330.225 163.768 331.803L163.768 243.416Z"/>
	<defs>
		<linearGradient id="gradient_0" gradientUnits="userSpaceOnUse" x1="163.78667" y1="292.64734" x2="182.18776" y2="299.50003">
			<stop offset="0" stop-color="#C5D4D4"/>
			<stop offset="1" stop-color="#E6EBF1"/>
		</linearGradient>
	</defs>
	<path fill="url(#gradient_0)" transform="matrix(0.78125 0 0 0.78125 0 0.015625)" d="M173.747 324.518C168.491 320.729 170.053 270.955 172.88 267.999L173.326 267.997C173.525 269.18 173.633 270.365 173.747 271.559C173.742 276.936 173.511 282.428 173.747 287.792C173.341 289.916 173.07 291.948 173.747 294.064C173.687 300.466 174.807 319.16 173.747 324.518Z"/>
	<path fill="#CB2C38" transform="matrix(0.78125 0 0 0.78125 0 0.015625)" d="M318.091 77.488C321.898 78.2374 325.1 79.9345 328.294 82.0797C341.643 90.4522 346.38 101.278 349.264 115.859C346.48 114.455 343.707 112.946 340.83 111.744C338.031 110.027 335.035 108.659 332.083 107.231C327.977 101.286 321.82 85.0586 318.091 77.488Z"/>
	<path fill="#F68791" transform="matrix(0.78125 0 0 0.78125 0 0.015625)" d="M328.294 82.0797C341.643 90.4522 346.38 101.278 349.264 115.859C346.48 114.455 343.707 112.946 340.83 111.744C341.106 101.74 337.545 94.0908 331.625 86.242C330.709 85.0267 328.754 83.4866 328.294 82.0797Z"/>
	<path fill="#CB2C38" transform="matrix(0.78125 0 0 0.78125 0 0.015625)" d="M191.492 76.4354C193.652 76.7097 188.697 83.3814 188.152 84.4385C184.508 91.4962 182.516 99.5489 180.744 107.231C175.391 108.853 169.764 110.724 164.682 113.062L164.219 113.044C163.712 111.955 164.354 109.559 164.631 108.388C169.127 89.4073 176.977 85.2847 191.492 76.4354Z"/>
	<path fill="#CB2C38" transform="matrix(0.78125 0 0 0.78125 0 0.015625)" d="M164.682 403.592C169.576 404.185 175.245 407.333 180.215 408.657C181.632 414.914 184.325 421.548 187.628 427.039C188.726 428.865 193.828 434.679 194.036 436.299C186.565 432.365 179.762 428.549 174.266 421.943C172.259 419.53 164.384 406.85 164.682 403.592Z"/>
	<path fill="#CB2C38" transform="matrix(0.78125 0 0 0.78125 0 0.015625)" d="M317.007 436.299C318.85 433.502 321.117 431.034 322.878 428.162C329.954 416.619 326.08 411.932 340.83 406.416C339.086 412.127 338.3 417.854 336.08 423.451C332.525 428.609 322.948 434.232 317.007 436.299Z"/>
</svg>
