<svg width="92" height="49" viewBox="0 0 92 49" fill="none" xmlns="http://www.w3.org/2000/svg">
<path d="M91.0415 21.933C93.1513 26.2368 91.7156 32.987 87.3511 38.0375C82.3947 43.7704 75.5415 45.1371 72.0424 41.0901C72.0383 41.0848 72.0349 41.0788 72.0293 41.0734C72.7295 38.7165 74.9596 33.7016 81.6442 30.9903C87.7676 28.5053 90.1297 24.5545 91.0415 21.933ZM71.0583 39.6168C71.5886 38.1855 72.5118 36.315 74.1022 34.4752C75.701 32.625 77.9732 30.8078 81.1917 29.5018C87.7239 26.852 89.5491 22.5139 90.0583 20.4118C90.0342 20.3837 90.0135 20.3546 89.9902 20.3273C86.4915 16.2802 79.6379 17.6469 74.6819 23.3807C70.2719 28.4823 68.8537 35.3201 71.0583 39.6168Z" fill="#C57135"/>
<path d="M41.069 26.9485C37.394 23.9439 36.2274 17.4338 38.543 11.3162C41.1735 4.37125 47.2963 0.566558 52.2202 2.81774C52.2262 2.82087 52.2318 2.82487 52.2393 2.82751C52.4538 5.176 52.193 10.4534 46.743 15.3825C41.7511 19.899 40.9592 24.286 41.069 26.9485ZM53.7321 3.74704C53.7605 5.21305 53.5747 7.21605 52.7306 9.44477C51.8826 11.6858 50.3693 14.1529 47.7455 16.5267C42.4199 21.3438 42.295 25.8695 42.5981 27.9205C42.6321 27.9362 42.6631 27.954 42.6961 27.9693C47.6198 30.2207 53.7429 26.416 56.3727 19.4703C58.7128 13.2903 57.4963 6.70937 53.7321 3.74704Z" fill="#F3B68C"/>
<path d="M18.3686 45.892C13.5654 45.341 8.81148 40.5442 7.18214 34.2281C5.33381 27.0567 8.21557 20.6461 13.6197 19.9084C13.6265 19.9078 13.6335 19.9081 13.6412 19.9064C15.1845 21.7462 18.0348 26.2741 16.3662 33.2634C14.8389 39.6666 16.7298 43.7354 18.3686 45.892ZM15.4173 19.8799C16.293 21.0843 17.3026 22.8488 17.8958 25.1501C18.4928 27.4639 18.6679 30.3182 17.865 33.6837C16.2348 40.5138 18.7613 44.3445 20.2054 45.8898C20.2427 45.8849 20.2789 45.8833 20.3152 45.8785C25.7193 45.1411 28.6012 38.7303 26.7519 31.5587C25.1068 25.1776 20.2701 20.3484 15.4173 19.8799Z" fill="#B24900"/>
</svg>
