<svg width="74" height="81" viewBox="0 0 74 81" fill="none" xmlns="http://www.w3.org/2000/svg">
<path d="M51.3513 20.5186C49.1422 16.4081 50.6454 9.96126 55.2153 5.13779C60.4049 -0.337493 67.5806 -1.64283 71.2443 2.22232C71.2486 2.22739 71.2522 2.23312 71.2581 2.23826C70.5248 4.48925 68.1899 9.27878 61.1907 11.8682C54.7792 14.2415 52.3059 18.0148 51.3513 20.5186ZM72.2748 3.62943C71.7194 4.99641 70.7529 6.78284 69.0876 8.53993C67.4136 10.307 65.0345 12.0425 61.6645 13.2898C54.8249 15.8206 52.9139 19.9637 52.3807 21.9714C52.4059 21.9982 52.4276 22.026 52.4521 22.052C56.1154 25.9173 63.2914 24.6121 68.4806 19.1359C73.0981 14.2635 74.5831 7.73304 72.2748 3.62943Z" fill="#FFA362"/>
<path d="M3.75992 61.3784C5.9108 57.2399 12.2345 54.5664 19.0118 55.2135C26.7062 55.9496 32.0672 60.6883 30.9869 65.7989C30.9852 65.8052 30.9825 65.8114 30.9816 65.819C28.6499 66.5923 23.2284 67.6425 16.8905 63.802C11.0836 60.2848 6.4361 60.6251 3.75992 61.3784ZM30.4135 67.4264C28.9321 67.8114 26.8532 68.1296 24.384 67.8935C21.9013 67.6566 19.0263 66.8591 15.9743 65.0104C9.78047 61.2577 5.15537 62.2497 3.1474 63.0323C3.13978 63.0675 3.12925 63.1007 3.12184 63.135C2.04115 68.2454 7.40232 72.9843 15.0973 73.7197C21.944 74.3742 28.3273 71.6371 30.4135 67.4264Z" fill="#975425"/>
<path d="M18.1346 21.3111C21.8973 18.31 28.3722 18.5126 33.6143 22.0692C39.5651 26.1084 41.6694 32.9404 38.3144 37.3303C38.31 37.3356 38.3048 37.3403 38.3004 37.3471C36.0156 37.0704 31.0646 35.7159 27.7256 29.314C24.6657 23.4498 20.6921 21.7564 18.1346 21.3111ZM37.058 38.6287C35.6578 38.3519 33.8001 37.7522 31.8904 36.456C29.97 35.1533 27.999 33.1474 26.3908 30.0652C23.1276 23.8092 18.8574 22.7451 16.8335 22.6177C16.8102 22.6479 16.7855 22.6748 16.7629 22.7042C13.4077 27.0939 15.512 33.9261 21.4636 37.9648C26.759 41.5586 33.3135 41.7266 37.058 38.6287Z" fill="#FFA362"/>
</svg>
