<svg width="18" height="21" viewBox="0 0 18 21" fill="none" xmlns="http://www.w3.org/2000/svg">
<path d="M0.785261 16.9939C-0.943192 13.6256 0.232978 8.34288 3.80869 4.39037C7.86927 -0.0962552 13.4839 -1.16589 16.3506 2.00134C16.3539 2.00549 16.3567 2.01019 16.3613 2.0144C15.7876 3.85894 13.9606 7.78363 8.48416 9.90551C3.46746 11.8503 1.53226 14.9422 0.785261 16.9939ZM17.1568 3.15437C16.7223 4.27452 15.966 5.73838 14.663 7.1782C13.3532 8.62619 11.4917 10.0483 8.85487 11.0704C3.50323 13.1442 2.00797 16.5392 1.59078 18.1844C1.61048 18.2063 1.62743 18.2291 1.64659 18.2504C4.51295 21.4178 10.1278 20.3482 14.1881 15.8609C17.801 11.8683 18.963 6.517 17.1568 3.15437Z" fill="#9E3200"/>
</svg>
