<svg width="92" height="89" viewBox="0 0 92 89" fill="none" xmlns="http://www.w3.org/2000/svg">
<path d="M72.246 70.5244L70.0032 71C69.984 70.6733 70.0519 70.3472 70.2011 70.0489C70.7006 68.9611 71.0549 67.8237 71.2565 66.6606C71.3315 66.2278 71.4417 65.8007 71.5864 65.3825C71.5864 65.3825 71.7513 65.3825 71.7513 65.2042C71.777 64.3325 71.955 63.4698 72.279 62.6481C72.279 62.1726 72.4769 61.697 72.5429 61.4592C73.4664 60.3892 74.225 59.4678 75.0166 58.487C76.4697 56.92 78.3937 55.7642 80.5578 55.1582C81.1684 55.0008 81.8088 54.9603 82.4378 55.0393C83.1145 55.0042 83.7877 55.1489 84.374 55.4553C84.9602 55.7618 85.4339 56.2165 85.7361 56.7631C85.8476 56.9521 85.9361 57.1515 86 57.3576V60.3298C85.5394 61.0888 85.1319 61.873 84.7796 62.6778C84.4075 63.449 83.8694 64.1461 83.1964 64.7286C82.2093 65.7092 81.1029 66.5865 79.8981 67.3442C78.8473 68.0176 77.7452 68.6235 76.5998 69.1572C75.6103 69.5733 74.5219 69.8408 73.4994 70.1975L72.246 70.5244Z" fill="#ECB769"/>
<path d="M56 53.5835L48.032 54.0079C45.376 54.0079 42.72 54.3792 40.064 54.5914C37.3938 54.9912 34.6718 55.0983 31.968 54.9097C29.256 54.5056 26.5904 53.9111 24 53.1326V53C26.688 53 29.344 53.4509 31.936 53.61C34.5367 53.7286 37.1433 53.7286 39.744 53.61C42.4 53.61 45.056 53.3713 47.744 53.4244H55.744L56 53.5835Z" fill="white"/>
<path d="M22.6183 56.6844H24.7012C24.7012 57.1661 25.2139 56.8449 25.4703 56.9413C25.7267 57.0376 26.1753 56.9413 26.4317 57.2624C26.688 57.5836 26.7842 57.2624 26.9444 57.4551H27.7135C28.8351 57.2624 29.9566 57.8084 31.0782 57.6799C32.1998 57.5515 32.7766 57.423 33.8021 57.2624C34.2507 57.2624 34.8916 57.5836 35.5325 57.6799C36.1932 57.7442 36.8586 57.7442 37.5193 57.6799C38.1923 57.6799 38.9293 57.9047 39.5382 57.4872C40.4995 58.0974 41.4609 57.4872 42.4543 57.4872C43.4477 57.4872 44.5052 57.4872 45.6588 57.4872V57.1019L46.2356 56.7807C46.5182 56.9442 46.8387 57.0303 47.1649 57.0303C47.4912 57.0303 47.8117 56.9442 48.0942 56.7807L48.5108 57.3267C48.7146 57.188 48.9431 57.0899 49.1838 57.0376C50.4409 57.1197 51.7033 57.0224 52.9331 56.7486C54.1188 56.588 55.3044 56.7486 56.458 56.4917C57.3131 56.4542 58.1568 56.2808 58.9576 55.9778C59.6305 55.6888 60.3035 55.9778 60.9444 55.5603C61.4184 55.2188 61.9684 54.9983 62.5466 54.918C63.1337 54.9308 63.7047 54.7248 64.1489 54.34C64.9592 54.2592 65.75 54.042 66.4882 53.6977C67.9178 53.2251 69.3014 52.6232 70.6221 51.8992C71.0386 51.6423 71.4873 51.289 72 51.6102C72 52.124 72 52.5736 71.8077 53.0554C71.6155 53.5371 71.6475 54.0509 71.5514 54.5648C71.5167 55.0393 71.4525 55.5113 71.3591 55.9778C71.3591 56.5559 71.1668 57.2303 71.0707 57.8405C71.0241 58.5211 70.9277 59.1973 70.7823 59.8637C70.545 61.0835 70.2238 62.2853 69.8209 63.4606C69.8962 64.1307 69.7853 64.8087 69.5005 65.4196C69.2441 65.9977 69.2761 66.6721 68.8275 67.1539C69.0518 67.8925 68.3789 68.4063 68.2828 69.0808C68.118 69.7056 67.8814 70.3091 67.5778 70.8792C67.1291 71.8426 66.7125 72.774 66.2639 73.7053C65.489 75.2369 64.5999 76.7076 63.6041 78.1051C63.2743 78.6086 62.8872 79.0721 62.4505 79.486C62.066 79.8393 61.8417 80.3852 61.361 80.6422C60.8803 80.8991 61.0085 81.1881 60.8162 81.4129C60.1117 82.1274 59.314 82.7432 58.4449 83.2435C57.7078 83.7252 56.9067 84.1106 56.1696 84.5923C55.2379 85.1609 54.2628 85.6548 53.2535 86.0696C52.2159 86.5618 51.1451 86.9803 50.049 87.3221C48.8763 87.7258 47.677 88.0477 46.4599 88.2855L42.6786 88.7994C41.4356 88.9596 40.1822 89.024 38.9293 88.9921C37.6155 88.9921 36.3336 88.9921 35.0518 88.9921C34.6302 88.9484 34.2125 88.8732 33.8021 88.7673C33.3855 88.7673 33.0009 88.7673 32.6164 88.5103C32.2319 88.2534 32.2319 88.5103 32.0075 88.5103C31.4139 88.4969 30.8232 88.4216 30.245 88.2855C28.6061 87.9942 26.9972 87.5535 25.4383 86.9688C24.9255 86.7761 24.3808 86.9688 23.9321 86.7119C22.7785 86.1659 21.6249 85.62 20.5033 85.0098C19.9195 84.7091 19.3526 84.3767 18.8049 84.0142L16.786 82.5691C16.3374 82.2479 16.1131 81.6056 15.4722 81.5093C15.2636 81.0253 14.9321 80.6046 14.5108 80.2889C14.0808 79.8957 13.6742 79.4774 13.2931 79.0364C12.8765 78.5226 12.524 77.9445 12.1395 77.3985C11.1242 76.0202 10.2442 74.5468 9.51178 72.9988C8.99906 71.9069 8.58247 70.815 8.13384 69.7873C7.6852 68.7596 7.49293 67.5714 7.07634 66.5758C6.65975 65.5802 6.53157 64.392 6.21112 63.3643C5.96981 62.498 5.77724 61.6188 5.63431 60.7309C5.40999 59.3178 5.15363 57.9368 4.86522 56.5559C4.86522 55.9778 4.86522 55.3355 4.60886 54.918C4.3525 54.5005 4.60886 53.794 4.38454 53.3765C4.16023 52.959 4.38454 51.7708 4 51L4.44863 51.1927C4.76909 51.3854 5.02545 51.6102 5.31385 51.8029C6.9561 52.7415 8.67065 53.547 10.4411 54.2115C11.5255 54.423 12.5957 54.7019 13.6456 55.0465C14.3827 55.0465 15.0556 55.5282 15.7606 55.6888C16.4656 55.8494 17.9717 56.1384 19.1254 56.3311V56.7486H20.9199C21.4967 56.7486 21.9774 57.1982 22.5542 57.0055L22.6183 56.6844Z" fill="#EBB667"/>
<path d="M84.9255 51.1205C84.1524 51.147 83.3915 50.914 82.7553 50.4559C82.1702 50.6606 81.5466 50.7176 80.9362 50.622C80.266 50.622 79.6277 50.622 78.9894 50.622L78.766 51.1869L78.2553 50.9211C77.617 51.2201 76.9787 51.5857 76.3085 51.8515C75.5972 52.1723 74.9399 52.6098 74.3617 53.1475C73.8191 53.6791 73.3404 54.244 72.7021 54.9751L73.2128 50.9543C73.9131 50.1499 74.6942 49.4258 75.5426 48.7944C75.5426 48.7944 75.5425 48.6282 75.734 48.6282C76.6596 48.6282 77.2979 47.731 78.2234 47.7643H78.4787C79.2766 47.0332 80.234 47.2991 81.1277 47.2658C82.0213 47.2326 82.5 47.432 83.1383 47C83.9965 47.0889 84.8422 47.2784 85.6596 47.5649C86.9323 48.0605 88.1022 48.8049 89.1064 49.758C90.3207 51.0479 91.0944 52.7175 91.3085 54.5099C91.8191 55.0415 91.3085 55.8058 91.7872 56.4039C92.266 57.0021 91.7872 56.9688 91.7872 57.3011L91.5319 57.567L91.7553 57.7996C91.6176 58.1932 91.5527 58.6103 91.5638 59.0291C91.5638 59.4278 91.1489 59.7269 91.5638 60.1257C91.2128 61.0561 91.2447 62.0862 90.8617 63.0166C90.2489 64.6215 89.4447 66.1398 88.4681 67.5358C88.117 68.001 87.734 68.3998 87.4149 68.8982C87.0957 69.3967 86.7766 69.5961 86.5213 70.028C86.1825 70.5025 85.7731 70.9176 85.3085 71.2575C84.914 71.6706 84.487 72.0485 84.0319 72.3873C82.9149 73.0187 81.9255 73.8827 80.8404 74.5473C79.5029 75.4 78.0656 76.0701 76.5638 76.541L74.4574 77.2721L74.266 77.5047C74.266 77.5047 74.0426 77.5047 73.9787 77.5047C73.3445 77.4464 72.7066 77.5609 72.1277 77.837C71.544 78.0388 70.9466 78.1943 70.3404 78.3022C69.734 78.3022 69.1277 78.568 68.5213 78.7342H67.9149C67.442 78.6725 66.9625 78.7654 66.5426 79C66.5426 79 66.2553 79 66 79L67.4681 75.6771C68.1861 75.3665 68.9565 75.2083 69.734 75.2118C70.8121 74.9841 71.8775 74.6957 72.9255 74.3479C75.0602 73.6122 77.1227 72.6665 79.0851 71.5234C79.9254 70.9973 80.7353 70.4203 81.5106 69.7954C82.4059 69.0624 83.2584 68.2746 84.0638 67.4361C85.0786 66.2706 86.0068 65.0265 86.8404 63.7144C87.3469 62.6081 87.7737 61.4641 88.117 60.2918C88.117 59.893 88.3085 59.5275 88.3723 59.1288C88.4362 58.73 88.1809 58.2648 88.3723 57.8993C88.5638 57.5338 88.3723 57.8993 88.3723 57.7331C88.0532 56.8027 88.3723 55.839 87.9255 54.9418C87.6319 54.1952 87.1985 53.5169 86.6505 52.9464C86.1026 52.3759 85.4511 51.9246 84.734 51.6189C84.734 51.6189 84.9255 51.2201 84.9255 51.1205Z" fill="#ECB869"/>
<path d="M57.9352 50.2238L46.4352 50.6914C44.5239 50.6914 42.6127 50.9791 40.6366 50.9791C38.6784 51.0467 36.7184 50.9505 34.7732 50.6914C31.0331 50.06 27.249 49.8072 23.4676 49.9361C19.7099 49.9361 15.9197 50.4756 12 50.2598V49.9721C13.8465 49.3247 15.7254 48.8212 17.6366 48.3537C19.5553 47.8025 21.5026 47.3821 23.4676 47.095C27.3997 46.7947 31.3496 47.2077 35.162 48.3177C36.9979 48.7697 38.8595 49.0821 40.7338 49.2528C42.6127 49.2528 44.5239 49.2528 46.4676 49.2528L58 49.7203L57.9352 50.2238Z" fill="white"/>
<path d="M72.6311 40C73.301 40.9208 73.7435 42.01 73.9172 43.1658C74.091 44.3215 73.9902 45.506 73.6245 46.6082C73.2762 47.7103 72.814 48.7664 72.2466 49.7566C71.7019 50.6562 71.1892 51.5903 70.5803 52.4899C69.4161 54.3957 67.9898 56.099 66.3506 57.5412C64.6744 58.9557 62.7895 60.0552 60.775 60.7934C53.233 63.9461 45.2924 65.8475 37.2231 66.4329C35.2684 66.4329 33.2817 66.9519 31.1989 66.9865C29.0265 67.0729 26.8571 66.7449 24.7902 66.0177C22.7714 65.3258 20.9129 64.4608 19.0864 63.6651C17.26 62.8693 15.4976 62.2465 13.575 61.52C11.5244 60.7982 9.60543 59.6978 7.90325 58.2678C6.25396 56.8671 4.74985 55.2779 3.41717 53.5278C1.97354 51.7963 0.881971 49.7573 0.212816 47.5424C-0.0422584 46.4137 -0.0683711 45.2388 0.136265 44.0983C0.340902 42.9577 0.771452 41.8783 1.39842 40.9341L1.68682 41.1071C0.979296 43.0052 0.979296 45.1253 1.68682 47.0234C2.56235 48.7984 3.73585 50.3822 5.14751 51.6941C6.49315 53.1478 7.97512 54.4464 9.56952 55.5691C11.1165 56.6541 12.8 57.4931 14.5683 58.0602C16.513 58.7018 18.4181 59.4761 20.272 60.3782C22.1306 61.2778 23.8609 62.2119 25.6233 62.9385C29.3081 64.1416 33.1516 64.6794 36.9987 64.53C40.9221 65.0532 44.9031 64.6999 48.6946 63.4921C52.4256 62.0037 56.0463 60.211 59.5253 58.1294C61.2261 57.2928 62.8559 56.2972 64.3959 55.1539C65.9719 53.9025 67.4122 52.4634 68.6898 50.8638C69.9616 49.3235 71.1087 47.6683 72.1184 45.9163C72.5553 45.052 72.8028 44.0911 72.8416 43.1074C72.8805 42.1237 72.7098 41.1435 72.3427 40.2422L72.6311 40Z" fill="#AF9F90"/>
<path d="M54.6023 28L54.8649 28.2393L58.1475 28.7179L58.4757 29.0256C58.8697 29.0256 59.2636 29.0256 59.6246 29.0256C59.9857 29.0256 60.4125 29.0256 60.7407 29.265C61.1968 29.1813 61.6634 29.1813 62.1194 29.265C62.8075 29.3603 63.4877 29.5089 64.1546 29.7094C64.3393 29.7426 64.528 29.7426 64.7127 29.7094C65.2752 29.8746 65.7851 30.1933 66.1898 30.6325L68.3892 31.6923C69.7845 32.3237 71.0205 33.2833 72 34.4957V37.265C70.49 38.9744 69.2098 39.9658 68.2907 40V39.0086C67.9541 38.2696 67.4029 37.6596 66.715 37.265C66.2765 36.954 65.8023 36.7013 65.3035 36.5128C64.844 36.3419 64.4172 36.0342 63.9248 35.8974C62.9401 35.6581 62.0209 35.2479 61.0362 35.0769L60.2812 34.8034C59.6561 34.5709 59.0054 34.4216 58.3444 34.359L57.491 34.0513C57.1955 34.0513 56.9001 34.0513 56.6047 34.0513C56.3092 34.0513 56.2764 34.0513 56.1123 34.0513C55.7822 34.0868 55.4497 34.0152 55.1603 33.8462C54.8649 34.1197 54.6023 33.8462 54.274 33.8462C53.9356 33.8805 53.5948 33.8805 53.2564 33.8462H51.3197C50.9823 33.8976 50.6395 33.8976 50.3021 33.8462C49.6773 33.7032 49.0373 33.6457 48.3982 33.6752C48.3982 33.6752 48.1684 33.6752 48.0371 33.4701C47.9876 32.9129 47.9876 32.3521 48.0371 31.7949C48.0264 31.4402 48.0915 31.0875 48.2278 30.7623C48.364 30.4371 48.568 30.1475 48.8249 29.9145C48.9891 29.9145 49.0547 29.5385 49.2188 29.3675C49.5262 28.9398 49.9675 28.6375 50.4662 28.5128C51.635 28.4106 52.8099 28.4106 53.9786 28.5128C54.2084 28.1368 54.4382 28.2393 54.6023 28Z" fill="#ECB668"/>
<path d="M10.418 43.1965C13.7119 42.2018 16.9534 41.0313 20.1295 39.6896C23.4721 38.6298 26.7211 37.2778 29.841 35.6483C33.0281 33.7985 35.7286 31.1728 37.7073 28C38.2802 29.8289 39.2148 31.5153 40.4517 32.9525C41.6887 34.3897 43.2013 35.5465 44.8938 36.3497C48.1662 38.0242 51.5932 39.3556 55.1233 40.3242C58.3604 41.3261 62.0832 42.2279 65.8383 43.1297C66.2267 43.3301 65.8383 44.6326 65.4822 44.6326C60.0114 44.6326 60.0114 45 54.5406 45C49.0698 45 49.0698 45 43.5666 45C38.0634 45 38.0958 44.5992 32.625 44.5992C27.1542 44.5992 27.1218 43.9312 21.651 43.9312C16.1802 43.9312 16.1478 43.9312 10.677 43.9312C9.93243 44.0982 9.7382 43.5639 10.418 43.1965Z" fill="#754C24"/>
<path d="M9.94175 44.5355C15.6778 42.9599 21.2948 40.9925 26.752 38.6475C28.5231 37.7928 35.0926 31.7464 36.413 31.6515C36.6062 31.6515 39.8588 35.4819 40.6316 36.0833C44.0821 38.4612 47.9456 40.1991 52.0317 41.2116C55.7995 42.3829 65.7825 43.5225 56.8622 43.8391C51.6452 43.8391 46.3639 44.029 41.1147 43.8391C35.8655 43.6492 13.8706 39.5972 10.6502 44.029C11.5841 42.7944 9.4909 41.6232 8.5892 42.8261L8.17056 43.3959C8.08928 43.5287 8.03562 43.676 8.01268 43.8293C7.98974 43.9826 7.99798 44.1389 8.03692 44.2891C8.07586 44.4392 8.14473 44.5803 8.23953 44.7041C8.33433 44.8279 8.45318 44.932 8.5892 45.0104C12.8401 46.7831 19.5062 45.2003 24.0469 45.4852C31.3248 45.9284 38.5706 46.3716 45.8808 46.3716C49.1012 46.3716 67.1351 49.094 65.9436 43.206C65.8806 43.008 65.768 42.8289 65.616 42.685C65.464 42.5412 65.2777 42.4373 65.0741 42.3829C56.0571 40.2619 41.9198 38.4575 37.9588 28.8657C37.8921 28.6415 37.7606 28.4412 37.5801 28.2893C37.3996 28.1373 37.178 28.0403 36.9424 28.0101C36.7067 27.9799 36.4673 28.0178 36.2532 28.1191C36.0391 28.2205 35.8596 28.3809 35.7367 28.5808C29.9401 36.7165 18.6045 39.6921 9.29768 42.4462C7.81632 42.6678 8.46039 44.9787 9.94175 44.5355Z" fill="#AF9F90"/>
<path d="M4.00441 34.2927L4.45505 33.9147C5.18983 32.9769 6.04245 32.1979 6.97864 31.6091L8.18035 30.7776C8.63647 30.4384 9.13379 30.1957 9.65244 30.0594L11.1546 29.4169C11.7752 29.2988 12.3878 29.1219 12.9872 28.8877C12.9872 28.8877 13.2876 28.8877 13.4979 28.8877C13.8779 28.8501 14.2596 28.8501 14.6395 28.8877L15.8112 28.6609L16.0816 28.3208C16.6824 28.6609 17.2533 28.3208 17.8241 28.3208C18.3949 28.3208 18.7854 28.3208 19.2361 28.0562C19.6847 27.9813 20.1393 27.9813 20.588 28.0562H20.8283C20.8283 28.6231 20.8283 29.1523 20.8283 29.7193C20.8692 30.2414 20.9394 30.7593 21.0386 31.2689C21.3949 32.0519 21.7159 32.8595 22 33.6879C21.6401 33.726 21.2783 33.726 20.9185 33.6879C20.6781 33.6879 20.618 34.1415 20.3777 33.6879C20.1374 33.2344 20.0472 33.6879 19.867 33.6879C19.6577 33.6502 19.4453 33.6502 19.2361 33.6879H18.6052C18.2146 33.6819 17.8268 33.7718 17.4635 33.9525C17.1631 34.1793 16.8026 33.9525 16.5322 34.2549C16.2618 34.5573 15.9314 34.2549 15.691 34.4817C15.4507 34.7084 14.4292 34.8974 13.7983 35.162L12.3262 35.6156C11.9657 35.6156 11.6353 36.1069 11.2147 36.0313C10.3071 36.5199 9.43287 37.1014 8.60094 37.77C8.27813 38.0097 7.99898 38.332 7.7816 38.7162C7.56422 39.1004 7.41348 39.5378 7.33915 40C7.01506 39.8042 6.70366 39.5767 6.40783 39.3197C5.63427 38.577 4.91991 37.7415 4.27479 36.8251C4.17687 36.7026 4.10182 36.5543 4.05505 36.3909C4.00829 36.2275 3.99099 36.053 4.00441 35.8801C4.03445 35.4266 4.00441 34.8218 4.00441 34.2927Z" fill="#ECB769"/>
<path d="M32.8029 28.0606C32.8311 27.4633 33.036 26.8878 33.3917 26.4066C33.7474 25.9255 34.238 25.5605 34.8014 25.3576C35.9964 24.8019 37.1587 24.1788 38.2827 23.4911C39.007 23.0302 39.7868 22.6626 40.6035 22.397C41.045 22.2598 41.4517 22.0293 41.7961 21.7213L42.5698 20.9489V19.8548C42.2796 19.8548 42.1507 19.533 41.9573 19.3721C41.2838 18.9128 40.5291 18.5852 39.7332 18.4068C39.024 18.1815 38.2827 18.1493 37.6058 17.8919C37.4254 17.8506 37.2381 17.8506 37.0578 17.8919C36 17.6346 34.9212 17.4731 33.8344 17.4092L33.5121 17.0874C32.8839 16.9753 32.2482 16.9108 31.6103 16.8943C31.0623 16.5725 30.3854 16.6691 29.8052 16.4116C29.225 16.1542 28.9993 16.4116 28.8382 15.8967C28.8382 15.8967 28.5158 15.8967 28.3869 15.8967C28.258 15.8967 27.4521 15.5428 26.9686 15.5428H26.8074C26.5818 15.0601 25.9371 15.1566 25.6793 14.7383C25.2654 14.5801 24.8886 14.3385 24.5725 14.0284C24.2563 13.7184 24.0077 13.3465 23.8419 12.9362C23.8419 12.9362 23.8419 12.9362 23.6808 12.7431C23.2095 12.2801 22.8271 11.7348 22.5526 11.1342C22.3311 10.6924 22.1996 10.2111 22.1658 9.71825C22.0566 9.48673 22 9.23401 22 8.97812C22 8.72223 22.0566 8.4695 22.1658 8.23799C22.1856 8.18618 22.1856 8.12889 22.1658 8.07709C22.2022 7.03708 22.5883 6.03959 23.2617 5.24528C23.9068 4.28952 24.6643 3.41442 25.5181 2.63873C26.1158 2.24188 26.7405 1.88705 27.3876 1.5768C28.4791 0.92762 29.6641 0.450058 30.9011 0.160897H31.3524C31.6161 0.233525 31.8946 0.233525 32.1582 0.160897C32.3517 0.160897 32.674 0.160897 32.9641 0.160897C33.2542 0.160897 33.4154 0.160897 33.641 0.160897H35.4461C35.6555 0.129737 35.8609 0.0757838 36.0585 0C36.0585 0 36.0585 0.160897 36.2519 0.160897C36.8995 0.191735 37.5451 0.256181 38.186 0.353975C38.3891 0.324931 38.5953 0.324931 38.7984 0.353975C39.6237 0.518145 40.4178 0.811372 41.1515 1.22283C42.1698 1.84933 43.0925 2.6188 43.8913 3.50758C44.1421 3.86237 44.3377 4.25293 44.4715 4.66605V4.79477L44.1814 5.08438C43.075 4.43276 41.8229 4.06771 40.539 4.02245C39.2273 3.97346 37.9174 4.15871 36.671 4.56951L35.6717 5.88887C35.6137 6.43006 35.6729 6.97738 35.8453 7.49372C36.0177 8.01007 36.2993 8.48338 36.671 8.88158C36.9719 9.30233 37.3699 9.64451 37.8314 9.87915C38.8448 10.4319 39.9294 10.8433 41.0548 11.102C41.7877 11.2566 42.5093 11.4609 43.2144 11.7134C43.5045 11.7134 43.8269 11.7134 44.0847 11.9708C44.712 11.9921 45.332 12.1115 45.9221 12.3248C46.6682 12.4686 47.4013 12.673 48.114 12.9362C48.8544 13.2225 49.5757 13.5557 50.2736 13.9338C50.987 14.2673 51.6491 14.7008 52.2399 15.221C52.7698 15.7225 53.2257 16.2968 53.5937 16.9265C53.8073 17.2651 53.9295 17.6531 53.9483 18.0528C54.1147 19.2748 53.877 20.5177 53.2714 21.5925C52.9252 21.9146 52.6121 22.2704 52.3366 22.6545C52.2224 22.8172 52.0806 22.9588 51.9175 23.0728C50.3963 23.9959 48.8131 24.8131 47.1792 25.5185C47.1792 25.5185 37.9603 29.2191 38.7339 32.5014C38.4751 32.9564 38.1001 33.3348 37.6471 33.5981C37.1941 33.8613 36.6794 34 36.1552 34C35.6311 34 35.1163 33.8613 34.6633 33.5981C34.2104 33.3348 33.8354 32.9564 33.5765 32.5014C33.2234 31.0393 32.965 29.556 32.8029 28.0606Z" fill="#FCD376"/>
</svg>
