<svg width="25" height="25" viewBox="0 0 25 25" fill="none" xmlns="http://www.w3.org/2000/svg">
<path opacity="0.3" d="M0.0052142 12.4801C0.0052142 10.8428 0.00521439 9.2054 0.000573198 7.56805C-0.00312594 7.48711 0.0111144 7.40636 0.0422738 7.33158C0.0734331 7.2568 0.120739 7.18984 0.180805 7.1355C2.5014 4.82391 4.81606 2.50793 7.1248 0.187569C7.18428 0.123956 7.25707 0.0742596 7.33796 0.0420244C7.41886 0.00978918 7.50587 -0.00418828 7.59279 0.00108645C10.8664 0.0062451 14.141 0.0062451 17.4166 0.00108645C17.5038 -0.00225381 17.5905 0.0137016 17.6708 0.0478123C17.751 0.081923 17.8227 0.133345 17.8808 0.198404C20.1828 2.50896 22.4884 4.81565 24.7977 7.11847C24.8634 7.17621 24.9156 7.24776 24.9505 7.32802C24.9854 7.40828 25.0022 7.49526 24.9996 7.58275C24.9908 10.8709 24.9908 14.1587 24.9996 17.4463C25.0028 17.5272 24.9878 17.6077 24.9558 17.682C24.9239 17.7564 24.8756 17.8226 24.8147 17.8758C24.2887 18.3888 23.7704 18.9104 23.2545 19.4342C23.1145 19.5758 22.9451 19.6927 22.8677 19.8908C22.8345 19.9611 22.7759 20.0164 22.7037 20.0455C22.6024 20.0842 22.5343 20.1229 22.5158 20.2436C22.508 20.2947 22.4384 20.3488 22.3843 20.379C22.0872 20.5415 21.8853 20.8077 21.6533 21.0391C20.3831 22.3035 19.1166 23.5712 17.8537 24.8423C17.8019 24.8967 17.7387 24.939 17.6686 24.966C17.5985 24.9931 17.5233 25.0042 17.4484 24.9986C14.148 24.994 10.8476 24.994 7.54715 24.9986C7.47263 25.0021 7.39824 24.9893 7.32917 24.9611C7.2601 24.9329 7.19801 24.89 7.14724 24.8353C4.82664 22.5072 2.50243 20.1827 0.174618 17.8619C0.116717 17.8067 0.0715576 17.7395 0.0422974 17.6651C0.0130371 17.5906 0.000381698 17.5107 0.0052142 17.4309C0.0052142 15.7811 0.0052142 14.1306 0.0052142 12.4801ZM12.3113 20.9749H10.2638C9.42683 20.9749 8.58987 20.9749 7.75291 20.9749C7.61677 20.9749 7.58041 21.0027 7.58196 21.1435C7.58969 21.9297 7.58969 22.7156 7.58196 23.5013C7.58241 23.5509 7.59285 23.5999 7.61265 23.6454C7.63246 23.6908 7.66122 23.7318 7.69722 23.7659C7.77921 23.865 7.87822 23.8433 7.97646 23.8433H16.7854C17.0175 23.8433 17.0221 23.8433 17.0229 23.5942C17.0229 22.7832 17.0229 21.9718 17.0229 21.1598C17.0229 20.9826 17.0229 20.981 16.8326 20.9803L12.3113 20.9749ZM1.16551 12.4445V16.582C1.16551 16.6718 1.16938 16.7623 1.16551 16.8521C1.16164 16.9418 1.20883 16.9527 1.28386 16.9527C2.16053 16.9527 3.0372 16.9527 3.91387 16.9527C3.99122 16.9527 4.03609 16.9411 4.03067 16.8513C4.02603 16.7739 4.03067 16.6965 4.03067 16.6192V8.30548C4.03067 8.2281 4.02681 8.15072 4.03067 8.07334C4.03609 7.98203 3.98736 7.97274 3.91232 7.97274C3.03566 7.97274 2.15899 7.97274 1.28232 7.97274C1.20496 7.97274 1.15932 7.98435 1.16551 8.07411C1.17015 8.13834 1.16551 8.20256 1.16551 8.26756V12.4445ZM12.3663 1.24303H8.50323C8.27117 1.24303 8.03911 1.23916 7.80706 1.24303C7.64539 1.24303 7.5866 1.30725 7.58583 1.47517C7.58583 2.23581 7.58583 2.99568 7.58583 3.75555C7.58583 3.82906 7.59279 3.88013 7.68407 3.87471C7.76142 3.87007 7.83877 3.87471 7.91613 3.87471H16.6075C16.6725 3.87471 16.7367 3.87471 16.8009 3.87471C16.9626 3.86698 17.0214 3.80972 17.0221 3.64257C17.0221 2.88193 17.0221 2.12206 17.0221 1.36219C17.0221 1.28868 17.0152 1.23684 16.9239 1.24303C16.8597 1.2469 16.7947 1.24303 16.7305 1.24303H12.3663ZM23.83 12.4631V8.2072C23.83 7.97506 23.83 7.97506 23.6142 7.97506H21.4483C21.2 7.97506 21.1984 7.97506 21.1984 8.21184V16.719C21.1984 16.9511 21.1984 16.9511 21.4143 16.9511H23.5801C23.8285 16.9511 23.83 16.9511 23.83 16.7143V12.4631ZM12.5883 19.1951H6.32265C6.2455 19.184 6.16703 19.1861 6.09059 19.2013C6.03799 19.2214 6.00318 19.3445 5.96682 19.3414C5.83455 19.3313 5.92505 19.5495 5.76339 19.5162C5.71465 19.5062 5.63266 19.6277 5.57542 19.6965C5.51818 19.7654 5.4648 19.8567 5.40988 19.9372C5.39132 19.965 5.37043 19.9914 5.35109 20.0192C5.38469 20.0321 5.41978 20.0407 5.45552 20.0447C5.97121 20.0447 6.4869 20.0447 7.00259 20.0447C7.07452 20.0447 7.15265 20.0726 7.21608 19.9952C7.23529 19.9799 7.25812 19.9698 7.28237 19.9659C7.30662 19.9619 7.33148 19.9643 7.35454 19.9728C7.52781 20.0943 7.72119 20.044 7.9053 20.044C11.7601 20.0471 15.6143 20.0471 19.468 20.044C19.5717 20.044 19.6754 20.0502 19.7775 20.044C19.8207 20.0317 19.8585 20.0052 19.885 19.9689C19.8896 19.9627 19.854 19.9124 19.8301 19.8915C19.6754 19.7507 19.4866 19.6315 19.3605 19.4667C19.3016 19.3781 19.2208 19.3062 19.1259 19.2579C19.0311 19.2097 18.9254 19.1867 18.8191 19.1913C16.7408 19.1974 14.6639 19.1987 12.5883 19.1951ZM12.8458 16.0999C12.8458 16.59 12.8458 17.0801 12.8458 17.5701C12.8508 17.5935 12.8594 17.616 12.8714 17.6367C12.8884 17.6266 12.9124 17.6197 12.9216 17.6042C13.0245 17.4285 13.1746 17.2606 13.2125 17.071C13.2465 16.8977 13.3486 16.8111 13.4446 16.6996C13.508 16.6269 13.5552 16.6315 13.6341 16.6927C13.8847 16.8846 14.1841 16.979 14.4788 17.0796C14.6768 17.1461 14.9947 17.0215 15.0883 16.8474C15.2306 16.5797 15.1572 16.3359 14.8501 16.1874C14.444 15.9908 14.133 15.6829 13.8499 15.3517C13.7571 15.2449 13.6109 15.1342 13.6178 14.9493C13.6178 14.8069 13.6689 14.7497 13.7926 14.7945C13.9422 14.8356 14.0857 14.8959 14.2196 14.9741C14.5027 15.1667 14.8385 15.1644 15.1479 15.2495C15.3219 15.2983 15.3799 15.2093 15.4 15.0174C15.4202 14.8255 15.342 14.6568 15.2801 14.4858C15.1917 14.226 15.0884 13.9715 14.9707 13.7236C14.9212 13.6246 14.9939 13.5975 15.021 13.5897C15.0888 13.5709 15.1605 13.5709 15.2283 13.5897C15.4646 13.6594 15.6781 13.7905 15.8471 13.9697C16.0359 14.1631 16.22 14.3628 16.4234 14.5415C16.6269 14.7202 16.8481 14.8325 17.1273 14.7984C17.1551 14.7992 17.1828 14.7942 17.2085 14.7837C17.2342 14.7732 17.2574 14.7574 17.2767 14.7373C17.2959 14.7173 17.3107 14.6934 17.3202 14.6673C17.3296 14.6412 17.3335 14.6133 17.3316 14.5856C17.3548 14.2467 17.3153 13.9217 17.1289 13.6253C17.0637 13.5249 17.0095 13.4178 16.9672 13.3058C16.9371 13.223 16.8899 13.1386 17.0539 13.0852C17.255 13.0202 17.4329 12.8809 17.617 12.768C17.6532 12.7372 17.6843 12.7009 17.709 12.6604C17.6625 12.6411 17.614 12.6269 17.5644 12.6178C16.7909 12.6178 16.0173 12.6287 15.2438 12.6117C14.7752 12.602 14.3093 12.6843 13.8723 12.8539C13.6095 12.944 13.3799 13.1112 13.2133 13.3336C13.0245 13.5905 12.9719 13.8838 12.8536 14.1562C12.8103 14.2544 12.7283 14.4254 12.7762 14.4974C12.8698 14.6351 12.8358 14.7667 12.8389 14.899C12.8505 15.2998 12.8458 15.6999 12.8458 16.0999ZM15.3211 10.0775C15.3177 10.0135 15.3177 9.94949 15.3211 9.88557C15.3297 9.78807 15.2972 9.75944 15.1951 9.7517C15.0349 9.73607 14.8732 9.7523 14.7194 9.79944C14.5655 9.84659 14.4225 9.92372 14.2985 10.0264C14.1438 10.1471 13.9528 10.2585 13.7253 10.2214C13.6163 10.2051 13.5884 10.1773 13.641 10.0829C13.7205 9.91493 13.8474 9.77396 14.0061 9.67742C14.1198 9.6222 14.216 9.53648 14.2838 9.4298C14.3544 9.31282 14.4396 9.20542 14.5376 9.11022C14.7201 8.89743 14.8802 8.67922 14.9591 8.39446C15.0086 8.21571 15.0705 8.03078 14.9591 7.90388C14.8269 7.75531 14.6312 7.84042 14.4432 7.87679C14.2111 7.92167 14.0564 8.07411 13.8661 8.16774C13.7416 8.22809 13.6557 8.22809 13.573 8.12286C13.5338 8.07579 13.4986 8.02559 13.4678 7.97274C13.3626 7.78471 13.2666 7.59126 13.1583 7.40709C13.1085 7.33269 13.0453 7.26816 12.9719 7.21674C12.9526 7.20204 12.8621 7.23531 12.8574 7.25698C12.8482 7.334 12.8464 7.41174 12.852 7.48912V10.0016C12.852 10.0906 12.8799 10.2021 12.8373 10.264C12.7755 10.3537 12.8211 10.4056 12.8257 10.4837C12.8381 10.6911 12.9479 10.8513 13.0091 11.0316C13.139 11.4185 13.3672 11.7535 13.7416 11.9121C14.1624 12.0901 14.5971 12.248 15.0752 12.2395C15.926 12.2255 16.7769 12.2395 17.6278 12.2302C17.7361 12.2302 17.8823 12.3277 17.9597 12.1582C17.8834 12.0861 17.8022 12.0194 17.7168 11.9586C17.6322 11.9149 17.5443 11.8781 17.4538 11.8487C17.3215 11.7938 17.1861 11.7465 17.06 11.68C16.934 11.6135 16.9278 11.5252 16.9827 11.3914C17.002 11.3473 17.0067 11.2877 17.0392 11.2614C17.323 11.0354 17.2612 10.7197 17.2557 10.4241C17.2557 10.3607 17.2001 10.2523 17.1544 10.2431C16.934 10.1997 16.6826 10.1657 16.5124 10.3282C16.2803 10.5425 16.0382 10.7437 15.8618 11.0192C15.663 11.3287 15.3815 11.5252 14.9746 11.4672C14.857 11.451 14.8423 11.3898 14.8671 11.3217C14.9073 11.2211 14.9592 11.1255 15.0218 11.037C15.1896 10.7514 15.3351 10.4613 15.3211 10.0767V10.0775ZM20.1944 12.4437V5.67302C20.1944 5.5701 20.1944 5.46719 20.1944 5.3635C20.1944 5.33022 20.1758 5.2807 20.1526 5.27064C20.135 5.26702 20.1167 5.26752 20.0993 5.27208C20.0818 5.27664 20.0657 5.28515 20.0521 5.29695C19.9121 5.43082 19.7875 5.58171 19.6375 5.70242C19.4611 5.8448 19.417 6.01194 19.417 6.23479C19.4242 10.3617 19.426 14.4886 19.4224 18.6155C19.4224 18.6929 19.4224 18.7703 19.4224 18.8477C19.4203 18.884 19.4297 18.92 19.4495 18.9506C19.6568 19.1634 19.8664 19.3731 20.0807 19.5774C20.0915 19.5882 20.1859 19.5464 20.189 19.5224C20.197 19.4195 20.1988 19.3161 20.1944 19.2129V12.4437ZM5.03317 12.3857V19.1951C5.03317 19.2988 5.03317 19.4017 5.03317 19.5046C5.03741 19.5208 5.04478 19.5359 5.05487 19.5492C5.06495 19.5625 5.07756 19.5736 5.09196 19.582C5.10361 19.5852 5.11583 19.5855 5.12765 19.5831C5.13947 19.5807 5.15056 19.5756 5.16003 19.5681C5.29849 19.4334 5.42458 19.2833 5.57387 19.1618C5.76029 19.0117 5.8098 18.8345 5.80593 18.5977C5.79819 14.574 5.79613 10.5503 5.79974 6.52652C5.79974 6.32146 5.84383 6.09629 5.77267 5.91831C5.70692 5.75349 5.51431 5.63897 5.37739 5.50201C5.30468 5.42927 5.23506 5.35267 5.15693 5.28612C5.12473 5.27145 5.08805 5.27006 5.05483 5.28225C5.04091 5.28225 5.0293 5.32249 5.02853 5.34493C5.02853 5.42231 5.02853 5.49969 5.02853 5.57707L5.03317 12.3857ZM12.3817 15.9374C12.3554 15.3068 12.449 14.5872 12.2348 13.8799C12.1327 13.5124 11.8949 13.1973 11.5695 12.9986C11.1486 12.7477 10.6671 12.6166 10.1772 12.6194C9.39125 12.6194 8.60534 12.6194 7.82021 12.6194C7.72042 12.6194 7.61986 12.6341 7.52008 12.6418C7.60418 12.7179 7.69477 12.7866 7.79081 12.8469C7.91613 12.9134 8.05768 12.9483 8.18686 13.0078C8.25043 13.0444 8.31073 13.0863 8.36709 13.1332C8.44444 13.1827 8.4166 13.2199 8.36709 13.2725C8.33615 13.3034 8.3377 13.3653 8.30908 13.4009C8.09094 13.6625 8.03061 13.9697 8.05227 14.2985C8.05227 14.3334 8.10023 14.3937 8.12962 14.3937C8.35163 14.3937 8.56666 14.4154 8.77397 14.2691C8.95343 14.1422 9.14604 14.037 9.30693 13.8822C9.44076 13.7473 9.60065 13.6411 9.77687 13.5701C9.95309 13.499 10.1419 13.4646 10.3319 13.469C10.3529 13.468 10.3739 13.4725 10.3927 13.4821C10.4115 13.4917 10.4275 13.5061 10.439 13.5238C10.4505 13.5415 10.4571 13.5619 10.4583 13.583C10.4595 13.604 10.4551 13.625 10.4456 13.6439C10.4119 13.735 10.3591 13.8178 10.2909 13.8869C10.1509 14.0045 10.0959 14.1693 10.0255 14.321C9.94819 14.4974 9.87548 14.6839 9.90333 14.8897C9.92576 15.0514 10.1044 15.2209 10.2375 15.166C10.458 15.0762 10.6954 15.036 10.9051 14.9106C11.1147 14.7853 11.3529 14.6692 11.5463 14.4989C11.5695 14.4788 11.6144 14.485 11.6492 14.4781C11.6546 14.5222 11.6778 14.5763 11.6608 14.6088C11.4297 15.0526 11.1458 15.4667 10.8153 15.8423C10.6399 16.0485 10.4468 16.239 10.2383 16.4118C10.1106 16.5131 10.1795 16.678 10.0635 16.7716C10.0341 16.7948 10.1756 17.0324 10.2182 17.0254C10.4386 16.9898 10.6544 17.0509 10.8888 16.9697C11.0953 16.8924 11.2838 16.7736 11.4427 16.6207C11.5115 16.5532 11.5996 16.5089 11.6948 16.4938C11.8109 16.4876 11.8333 16.6137 11.8673 16.705C11.8874 16.7608 11.899 16.8203 11.9207 16.8761C12.0081 17.102 12.0947 17.3295 12.2773 17.5005C12.3029 17.5213 12.3303 17.5397 12.3593 17.5554C12.3709 17.5213 12.379 17.486 12.3833 17.4502C12.3817 16.9743 12.3817 16.4977 12.3817 15.9367V15.9374ZM9.01918 12.2309C9.51656 12.1884 10.116 12.3029 10.7078 12.1536C11.0706 12.0638 11.4225 11.9648 11.742 11.7543C11.9414 11.6215 12.0887 11.4239 12.1589 11.1948C12.3011 10.8308 12.3766 10.4442 12.3817 10.0535C12.3817 9.29284 12.3817 8.53297 12.3817 7.77233C12.3817 7.68257 12.3817 7.59203 12.3817 7.50227C12.3817 7.48061 12.3608 7.45971 12.35 7.43882C12.3298 7.45103 12.3116 7.46616 12.2959 7.4837C12.2572 7.54406 12.2185 7.60596 12.186 7.67019C12.1141 7.8391 12.0137 7.99434 11.889 8.12905C11.7907 8.22345 11.742 8.20101 11.6384 8.13524C11.3846 7.97506 11.0837 7.91626 10.7991 7.83656C10.6923 7.80638 10.5515 7.91393 10.4123 7.90852C10.3829 7.90852 10.3063 8.05399 10.3241 8.10893C10.3968 8.3372 10.4378 8.57321 10.6335 8.7566C10.9174 9.02046 11.2431 9.22088 11.5494 9.44605C11.7064 9.54777 11.8207 9.70362 11.8704 9.88402C11.8998 9.99777 11.9478 10.1386 11.8859 10.1935C11.824 10.2485 11.6701 10.2198 11.5595 10.209C11.5038 10.2044 11.455 10.1525 11.3993 10.1316C11.0853 10.0179 10.7952 9.85075 10.475 9.74474C10.311 9.69212 10.188 9.67509 10.0294 9.74474C9.95206 9.77878 9.91029 9.7811 9.90178 9.88015C9.87425 10.1396 9.92833 10.4012 10.0565 10.6284C10.171 10.8304 10.2607 11.0501 10.4549 11.1987C10.4765 11.2123 10.4947 11.2308 10.5079 11.2526C10.5212 11.2745 10.5291 11.2991 10.5311 11.3246C10.5332 11.3501 10.5292 11.3757 10.5196 11.3994C10.51 11.4231 10.495 11.4442 10.4757 11.461C10.3984 11.5492 10.3133 11.5748 10.212 11.4958C10.1086 11.4299 10.0105 11.3559 9.9188 11.2745C9.64306 10.9843 9.33289 10.7289 8.9952 10.5139C8.81419 10.3955 8.63242 10.2694 8.3903 10.2918C8.17139 10.3119 8.06464 10.4234 8.04144 10.6423C8.01823 10.8613 8.16133 11.0292 8.23714 11.2204C8.24642 11.242 8.27582 11.2552 8.29051 11.2761C8.39649 11.4308 8.38566 11.5361 8.2209 11.6065C7.93445 11.7302 7.66129 11.8826 7.40559 12.0615C7.3731 12.0847 7.36769 12.1466 7.34913 12.1907C7.37999 12.2088 7.41375 12.2213 7.44891 12.2279C7.9432 12.2309 8.43671 12.2309 9.01918 12.2309ZM12.62 5.65367H19.0728L19.6467 5.07951L19.728 4.99827C19.6854 4.97902 19.6403 4.96574 19.5941 4.9588C17.6015 4.94487 15.6089 4.93482 13.6163 4.91702C13.5196 4.91702 13.4376 4.95339 13.3479 4.95648C13.2187 4.96035 13.0903 4.95648 12.9611 4.95648H5.62028C5.58404 4.95997 5.54827 4.96723 5.51354 4.97815C5.52749 5.00566 5.54435 5.0316 5.56381 5.05553C5.68062 5.17546 5.8098 5.28767 5.91577 5.41379C6.06506 5.59564 6.23678 5.65599 6.47658 5.65445C8.52489 5.64903 10.5724 5.65367 12.62 5.65367ZM12.62 18.8856C12.7359 18.8922 12.8521 18.8922 12.9681 18.8856C13.088 18.8724 13.204 18.8291 13.3231 18.8129C13.5552 18.7811 13.8004 18.7904 14.0239 18.727C14.4499 18.611 14.8669 18.4644 15.2716 18.2882C15.7643 18.0586 16.2289 17.773 16.6563 17.4371C17.0283 17.1538 17.016 17.1384 16.6911 16.818C16.65 16.7686 16.6036 16.724 16.5526 16.6849C16.5334 16.6738 16.5119 16.6673 16.4898 16.6658C16.4677 16.6643 16.4455 16.6679 16.425 16.6764C16.2842 16.7793 16.1589 16.9024 16.0158 16.9999C15.735 17.1894 15.4642 17.4092 15.1564 17.5415C14.8168 17.6823 14.4857 17.8572 14.1106 17.9153C13.9226 17.9447 13.7447 18.0507 13.5482 18.0437C13.3517 18.0367 13.17 18.1567 12.9611 18.1296C12.7555 18.1052 12.5478 18.1052 12.3423 18.1296C12.0607 18.1621 11.8008 18.0344 11.5231 18.0476C11.4009 17.9222 11.2323 18.0081 11.0969 17.9563C10.6745 17.7945 10.2414 17.6468 9.84841 17.4247C9.54441 17.2482 9.2613 17.0378 8.97045 16.8366C8.8931 16.7809 8.8111 16.664 8.73839 16.6687C8.66568 16.6733 8.58368 16.7871 8.51174 16.8552C8.46378 16.8993 8.42356 16.9503 8.37406 16.9906C8.27814 17.068 8.24797 17.1391 8.36013 17.2351C8.49163 17.3488 8.62623 17.4587 8.7616 17.5678C9.2733 17.9723 9.8483 18.2895 10.4634 18.5064C11.1562 18.7434 11.8817 18.8713 12.6138 18.8856H12.62ZM12.6424 6.04057V6.01813L11.4048 6.11795C11.3803 6.11874 11.356 6.12317 11.3328 6.13111C10.97 6.28587 10.574 6.33539 10.2096 6.49634C9.93275 6.60749 9.6655 6.74129 9.41059 6.89639C9.06482 7.12389 8.72911 7.36763 8.38953 7.60442C8.26344 7.69186 8.26112 7.74757 8.38102 7.87215C8.45218 7.94953 8.52567 8.01917 8.59915 8.09113C8.73452 8.22268 8.80723 8.24589 8.94106 8.12673C9.235 7.86441 9.56839 7.66941 9.90101 7.46358C10.1415 7.33003 10.3937 7.21866 10.6544 7.13085C10.9785 7.00395 11.3042 6.85383 11.6693 6.87704C11.824 6.74318 12.0128 6.82984 12.1845 6.81901C12.3701 6.8074 12.5372 6.68437 12.7314 6.73621C12.8345 6.76992 12.94 6.79579 13.047 6.81359C13.2094 6.83216 13.3935 6.79115 13.5327 6.85383C13.696 6.93121 13.8924 6.81437 14.0255 6.97068C14.6366 7.0852 15.1811 7.35293 15.6986 7.68721C15.916 7.82804 16.145 7.95185 16.3175 8.15149C16.3299 8.16985 16.3461 8.18532 16.365 8.19686C16.3839 8.20841 16.4051 8.21574 16.4271 8.21839C16.4491 8.22103 16.4714 8.21891 16.4926 8.21217C16.5137 8.20544 16.5331 8.19424 16.5495 8.17935C16.6852 8.06077 16.8126 7.93306 16.9309 7.79709C16.939 7.77644 16.9416 7.75403 16.9385 7.73207C16.9354 7.7101 16.9266 7.68931 16.9131 7.67174C16.755 7.53439 16.5901 7.40525 16.4188 7.28484C16.1604 7.10609 15.8974 6.93276 15.6267 6.77335C15.4567 6.66219 15.2722 6.57521 15.0783 6.51491C14.683 6.41354 14.3233 6.17831 13.8955 6.19765C13.7733 6.0514 13.5861 6.18218 13.4678 6.11408C13.3092 6.02664 13.1529 6.05218 12.9936 6.04521C12.8714 6.04057 12.7553 6.04057 12.6393 6.04057H12.6424ZM19.0542 12.4701C19.024 12.1319 18.9923 11.769 18.9598 11.4069C18.9617 11.3807 18.9585 11.3544 18.9506 11.3295C18.8338 11.1027 18.8809 10.825 18.7278 10.6098C18.6334 10.0148 18.3248 9.51105 18.02 9.0104C17.849 8.72874 17.6433 8.46875 17.4491 8.20256C17.3261 8.0331 17.3122 8.03464 17.1498 8.19637C17.0492 8.29619 16.9517 8.39988 16.8473 8.49505C16.7986 8.53993 16.8009 8.55928 16.8473 8.60803C16.9089 8.68325 16.9645 8.7632 17.0136 8.84713C17.091 8.96088 17.2573 9.00189 17.2596 9.17058C17.569 9.52188 17.7369 9.94438 17.9218 10.3653C18.1683 10.9492 18.3092 11.5722 18.3379 12.2054C18.3496 12.5313 18.3297 12.8576 18.2784 13.1796C18.2236 13.5153 18.1508 13.8477 18.0602 14.1755C17.9573 14.6003 17.7245 14.9655 17.5187 15.3424C17.3499 15.6265 17.1571 15.8958 16.9425 16.1471C16.8504 16.2609 16.8458 16.3336 16.9425 16.4373C17.0392 16.541 17.1436 16.6369 17.2411 16.7399C17.2813 16.7832 17.3014 16.7963 17.3532 16.746C17.5597 16.5456 17.7121 16.305 17.8839 16.0775C18.1708 15.6991 18.3665 15.2774 18.5568 14.8472C18.7471 14.4169 18.8392 13.9813 18.9513 13.5433C19.0341 13.2083 19.0179 12.85 19.0511 12.4701H19.0542ZM6.19347 12.4399C6.20662 12.6983 6.23137 12.9041 6.25767 13.1154C6.292 13.4321 6.3473 13.7462 6.42321 14.0556C6.50844 14.4042 6.62282 14.7451 6.76511 15.0747C6.98866 15.5699 7.29498 16.021 7.60981 16.4628C7.70894 16.5816 7.8176 16.6921 7.93469 16.7933L8.2356 16.4984C8.25339 16.4806 8.27272 16.4628 8.28974 16.4435C8.3872 16.3336 8.3903 16.2624 8.29979 16.1525C7.94474 15.72 7.60362 15.2782 7.42261 14.7381C7.36695 14.5803 7.29378 14.4292 7.20448 14.2877C7.1132 14.1384 7.15884 13.9565 7.05596 13.8056C7.008 13.7344 7.07684 13.5921 7.03816 13.5062C6.93374 13.274 6.91827 13.0264 6.90589 12.7919C6.87931 12.4403 6.89515 12.0867 6.95308 11.7388C7.0162 11.3684 7.10118 11.002 7.20757 10.6416C7.40428 10.0056 7.72884 9.41655 8.16133 8.91059C8.25725 8.79839 8.34389 8.67845 8.43516 8.56083L8.16907 8.28458L8.14122 8.25673C7.91535 8.03155 7.91535 8.03155 7.74053 8.29387C7.72042 8.32405 7.70031 8.355 7.6771 8.38363C7.3262 8.80183 7.03228 9.26473 6.80301 9.76021C6.56012 10.2887 6.42243 10.8435 6.27082 11.396C6.33116 11.7667 6.15325 12.1203 6.19347 12.4399ZM12.5751 4.26084H5.00223C4.94052 4.2644 4.87906 4.27138 4.81813 4.28173C4.86145 4.3359 4.89548 4.41869 4.9504 4.43649C5.05526 4.47185 5.16543 4.48886 5.27606 4.48679C10.1699 4.48679 15.0638 4.48679 19.9577 4.48679C20.035 4.48679 20.1124 4.4922 20.1898 4.48679C20.2671 4.48137 20.3816 4.35756 20.3445 4.31346C20.2992 4.27805 20.2434 4.25873 20.1859 4.25852C20.1086 4.25384 20.0311 4.25384 19.9538 4.25852L12.5751 4.26084ZM4.02758 18.7308C4.02758 18.3308 4.02758 17.9315 4.02758 17.5315C4.02758 17.4541 4.0152 17.4138 3.92625 17.4138C3.11404 17.4138 2.30183 17.4138 1.48962 17.4138C1.46541 17.4164 1.44154 17.4216 1.41846 17.4293C1.42666 17.4571 1.43947 17.4832 1.45636 17.5067C2.20308 18.2557 2.95082 19.0037 3.6996 19.7507C3.7816 19.8327 3.86282 19.9155 3.94636 19.996C3.96278 20.0093 3.98101 20.0203 4.00051 20.0285C4.01258 20.0102 4.02172 19.9901 4.02758 19.9689C4.02758 19.5565 4.02758 19.1433 4.02758 18.7308ZM17.4097 22.3042C17.4097 22.6911 17.4097 23.078 17.4097 23.4649C17.416 23.5126 17.4279 23.5594 17.4453 23.6042C17.4731 23.5779 17.501 23.5516 17.5273 23.5268L19.9623 21.0901C19.9879 21.0646 20.0095 21.0352 20.0335 21.0081C20.0012 20.9927 19.9668 20.982 19.9314 20.9764C19.1316 20.9764 18.3325 20.9764 17.5334 20.9764C17.4275 20.9764 17.4058 21.0135 17.4074 21.1095C17.4097 21.5049 17.4097 21.9034 17.4097 22.3042ZM4.02758 6.26188C4.02758 5.86337 4.02758 5.46487 4.02758 5.06636C4.02256 5.03102 4.01239 4.99661 3.99741 4.96422C3.97034 4.98666 3.94094 5.00755 3.92006 5.03231C3.13776 5.81282 2.35649 6.59409 1.57626 7.37614C1.55636 7.39228 1.53844 7.41072 1.52288 7.43108C1.50509 7.46203 1.47415 7.5162 1.48421 7.52549C1.51367 7.55897 1.55442 7.58045 1.59869 7.58584C2.37222 7.58584 3.13956 7.58585 3.91078 7.59049C4.0183 7.59049 4.03532 7.55025 4.03454 7.45662C4.02758 7.05811 4.02758 6.65961 4.02758 6.26188ZM18.6419 3.87394C18.9892 3.87394 19.3381 3.87394 19.6839 3.87394C19.7456 3.87038 19.807 3.8634 19.868 3.85305C19.8367 3.80566 19.8024 3.76043 19.7651 3.71763C19.1112 3.06145 18.4565 2.40605 17.8011 1.75141C17.7191 1.66939 17.6402 1.58505 17.5543 1.50767C17.5409 1.49585 17.5249 1.48726 17.5076 1.48256C17.4903 1.47787 17.4721 1.47719 17.4545 1.48059C17.4306 1.48987 17.4112 1.54017 17.4112 1.57189C17.4112 2.30545 17.4112 3.04211 17.4112 3.7718C17.4112 3.85846 17.4476 3.87703 17.5257 3.87626C17.8955 3.87394 18.2691 3.87394 18.6419 3.87394ZM21.2 6.39033C21.2 6.73776 21.2 7.08674 21.2 7.43263C21.2 7.53787 21.2093 7.59281 21.3392 7.58739C22.047 7.5812 22.7548 7.58739 23.4618 7.58275C23.5094 7.57656 23.556 7.56407 23.6003 7.54561L23.5183 7.46358L21.3354 5.27993C21.3182 5.26097 21.2999 5.24314 21.2804 5.22654C21.2635 5.21562 21.2453 5.20679 21.2263 5.20023C21.2151 5.22107 21.2073 5.24352 21.2031 5.26677C21.2 5.64439 21.2 6.01736 21.2 6.39033ZM21.2 18.6256C21.2 18.9854 21.2 19.346 21.2 19.7089C21.2051 19.7447 21.2158 19.7794 21.2317 19.8118C21.2588 19.7878 21.2874 19.7662 21.3129 19.7406L23.5229 17.5299C23.546 17.504 23.5677 17.4769 23.5879 17.4487C23.5548 17.4345 23.5199 17.4249 23.4842 17.42C22.7641 17.42 22.0439 17.42 21.3238 17.42C21.2193 17.42 21.1953 17.4541 21.1969 17.5516C21.2 17.9052 21.2 18.2666 21.2 18.6256ZM7.04435 17.1059C6.98015 17.1059 6.91595 17.1059 6.85175 17.1059C6.75236 17.1041 6.65433 17.1291 6.56792 17.1783C6.48151 17.2274 6.40989 17.2989 6.36055 17.3852C6.07976 17.8773 6.07512 18.3997 6.5872 18.7664C6.72721 18.867 6.91517 18.8995 7.08148 18.9638C7.21066 18.8214 7.46825 18.9405 7.5634 18.7316C7.9316 18.5683 7.92773 18.2209 7.97337 17.8975C7.81789 17.3566 7.56958 17.0393 7.04435 17.1059ZM7.04435 5.96319C6.8471 5.91831 6.68698 6.06069 6.52609 6.15122C6.45046 6.1946 6.3855 6.25437 6.33598 6.32614C6.28645 6.39791 6.25362 6.47986 6.23988 6.56598C6.19269 6.81204 6.17491 7.13085 6.27315 7.32198C6.40155 7.57191 6.53305 7.68334 6.81462 7.77775C7.21995 7.91548 7.77999 7.64697 7.89756 7.24305C7.93082 7.1293 8.01823 7.02484 7.9811 6.89097C7.94939 6.77568 7.93856 6.65264 7.89756 6.54121C7.78153 6.24717 7.37078 5.96706 7.04435 5.96319ZM19.0341 18.0004C19.0341 17.9362 19.0341 17.8719 19.0341 17.8077C19.0271 17.6398 18.8864 17.451 18.7487 17.314C18.5607 17.126 18.3395 17.1291 18.102 17.0966C17.6433 17.0347 17.2859 17.5756 17.2511 17.9423C17.2209 18.2519 17.4058 18.4492 17.5505 18.6674C17.6259 18.7645 17.7277 18.8378 17.8436 18.8786C17.9395 18.915 18.0649 18.8616 18.153 18.956C18.6767 18.857 19.1261 18.4507 19.0341 18.0004ZM18.1639 7.8203C18.4215 7.8203 18.628 7.69727 18.8152 7.53632C18.9032 7.46142 18.9737 7.36816 19.0218 7.26309C19.0699 7.15802 19.0944 7.04368 19.0937 6.92811C19.0878 6.80014 19.0553 6.6748 18.9983 6.56009C18.9413 6.44537 18.861 6.34381 18.7626 6.26188C18.5731 6.09628 18.3627 6.0514 18.1237 6.03438C17.7369 6.0073 17.2604 6.45997 17.2557 6.92502C17.255 7.37382 17.7106 7.8203 18.1639 7.8203ZM20.5812 12.3857V13.9333C20.5812 15.8936 20.5812 17.8539 20.5812 19.8142C20.5824 19.9141 20.5923 20.0138 20.6106 20.1121C20.6167 20.143 20.6616 20.167 20.6879 20.1949C20.7026 20.167 20.7312 20.1399 20.7312 20.1121C20.7312 19.6091 20.7312 19.1061 20.7312 18.6032C20.7312 18.5126 20.698 18.402 20.739 18.337C20.8039 18.2333 20.8256 18.1536 20.749 18.0561C20.8844 17.9377 20.7598 17.8371 20.7366 17.7241C20.7181 17.6305 20.7134 17.492 20.766 17.434C20.8705 17.314 20.6848 17.1848 20.8086 17.0865C20.6686 16.9318 20.7312 16.7476 20.7312 16.5774C20.7276 12.7342 20.7276 8.89098 20.7312 5.04779C20.7312 4.9441 20.7312 4.84119 20.7312 4.73827C20.7312 4.70964 20.7034 4.68256 20.6879 4.6547C20.6608 4.68178 20.6152 4.70577 20.6106 4.7375C20.5923 4.83552 20.5824 4.93493 20.5812 5.03463C20.5812 7.48499 20.5812 9.93535 20.5812 12.3857ZM6.03335 20.9749C5.69996 20.9749 5.36656 20.9749 5.03317 20.9749C5.00983 20.9791 4.98752 20.9878 4.96742 21.0004C4.97567 21.0197 4.98632 21.0379 4.99914 21.0546L5.62492 21.6813C6.08904 22.1456 6.55162 22.6081 7.01264 23.0687C7.03715 23.0905 7.06298 23.1106 7.08999 23.1291C7.10309 23.0958 7.11192 23.0609 7.11629 23.0254C7.11629 22.3839 7.11629 21.7425 7.11629 21.1002C7.11629 21.0012 7.08845 20.9694 6.98789 20.971C6.67461 20.9787 6.35436 20.9749 6.03335 20.9749ZM4.4917 12.4213V19.8049C4.4917 19.9078 4.4917 20.0115 4.4917 20.1144C4.4917 20.1407 4.5211 20.1662 4.53734 20.1918C4.56441 20.1647 4.61469 20.1399 4.61469 20.109C4.63222 19.9976 4.64127 19.8851 4.64176 19.7724C4.64176 14.8758 4.64176 9.9792 4.64176 5.08261C4.64718 4.99267 4.64718 4.90249 4.64176 4.81256C4.62595 4.76606 4.59946 4.72392 4.56441 4.68952C4.54962 4.67521 4.53065 4.666 4.51026 4.66321C4.50485 4.66321 4.48783 4.68023 4.48706 4.69029C4.48706 4.79321 4.48706 4.89612 4.48706 4.99981L4.4917 12.4213ZM12.6548 20.4332C10.1279 20.4332 7.60336 20.4332 5.08113 20.4332C5.01151 20.4332 4.87305 20.3605 4.88311 20.5206C4.89084 20.6383 5.00533 20.581 5.06876 20.5818C5.48105 20.5872 5.89334 20.5926 6.30641 20.5818C6.71947 20.5709 7.11552 20.639 7.5108 20.5044C7.72042 20.4347 7.9316 20.7087 8.142 20.5044C8.42898 20.6591 8.73994 20.5485 9.03775 20.5818C9.1151 20.5895 9.21488 20.6034 9.25898 20.564C9.37578 20.458 9.50418 20.5284 9.62408 20.5059C9.73083 20.6855 9.8662 20.4494 9.93968 20.5137C10.0464 20.6073 10.154 20.5818 10.2622 20.5818C13.5601 20.5818 16.8576 20.5818 20.1549 20.5818C20.2447 20.5818 20.4094 20.6398 20.4156 20.5253C20.4265 20.3187 20.2354 20.4378 20.1526 20.4371C17.6536 20.4309 15.1543 20.4296 12.6548 20.4332ZM7.13408 2.868H7.12171C7.12171 2.57241 7.12171 2.27605 7.12171 1.98046C7.11731 1.94447 7.10954 1.90898 7.0985 1.87445C7.06991 1.88953 7.04273 1.90714 7.01728 1.92707L5.84306 3.10014C5.64349 3.29978 5.4416 3.49865 5.24512 3.70216C5.21885 3.74167 5.1995 3.78537 5.18788 3.83138C5.23159 3.85031 5.27764 3.86333 5.32479 3.87007C5.59476 3.87007 5.86626 3.87007 6.13468 3.87007C6.45492 3.87007 6.77439 3.86233 7.09464 3.85846L7.13408 2.868ZM9.12593 15.3261C9.02073 15.2797 8.90934 15.3401 8.80569 15.4554C8.70203 15.5707 8.57363 15.6875 8.60302 15.8252C8.63242 15.963 8.63473 16.1131 8.74999 16.223C8.82844 16.3106 8.93183 16.3722 9.04628 16.3994C9.16073 16.4266 9.28075 16.4181 9.39023 16.375C9.4997 16.332 9.59339 16.2565 9.6587 16.1586C9.72401 16.0607 9.75782 15.9452 9.75558 15.8276C9.75171 15.5312 9.51965 15.3261 9.12593 15.3261ZM12.5914 11.9214C12.2696 11.9214 12.08 12.0963 12.0723 12.4058C12.0646 12.7153 12.3183 13.0024 12.5983 13.0047C12.746 12.9989 12.8859 12.9368 12.9894 12.8313C13.0929 12.7257 13.1522 12.5846 13.1553 12.4368C13.1622 12.1435 12.9232 11.9214 12.5914 11.9214ZM15.5578 15.7231C15.5138 16.0109 15.6646 16.1502 15.8889 16.2648C15.9663 16.3042 16.0436 16.3653 16.1287 16.3321C16.2542 16.2912 16.3706 16.2263 16.4714 16.1409C16.5487 16.0636 16.589 15.9359 16.6331 15.8252C16.6492 15.7763 16.6479 15.7232 16.6292 15.6751C16.5846 15.5769 16.5351 15.4811 16.4807 15.388C16.3694 15.3016 16.2471 15.2303 16.1171 15.176C16.0057 15.176 15.8936 15.1528 15.8077 15.2666C15.6924 15.4082 15.4867 15.4995 15.5578 15.7231ZM16.0073 8.5941C15.9218 8.59368 15.8371 8.61053 15.7583 8.64363C15.6794 8.67674 15.6081 8.72543 15.5486 8.78678C15.4302 8.89511 15.5029 9.02511 15.4712 9.14195C15.424 9.32998 15.564 9.4151 15.6661 9.52266C15.7146 9.57872 15.776 9.62212 15.845 9.64909C15.914 9.67606 15.9886 9.68578 16.0622 9.67742C16.3399 9.64724 16.5766 9.34004 16.5557 9.04754C16.5348 8.75505 16.3383 8.5941 16.0073 8.5941ZM16.1898 6.04057C15.9083 6.04057 15.6259 6.04057 15.3444 6.04057C15.3103 6.04057 15.2771 6.08855 15.2438 6.11331C15.2735 6.14305 15.3068 6.16904 15.3428 6.19069C15.3745 6.20539 15.4202 6.19069 15.4503 6.20849C15.8758 6.45687 16.3345 6.65264 16.7034 6.99234C16.7435 7.01602 16.7875 7.03228 16.8334 7.04031C16.845 7.00627 16.8705 6.97067 16.8659 6.93972C16.8264 6.65497 16.9262 6.41199 17.074 6.17753C17.1351 6.08081 17.1088 6.04057 16.9966 6.03902C16.7282 6.04057 16.459 6.04057 16.1898 6.04057ZM9.06714 6.04057C8.87453 6.04057 8.68037 6.03515 8.49009 6.04057C8.36864 6.04521 8.24797 6.06843 8.1273 6.08313C8.17913 6.16438 8.2325 6.24485 8.28201 6.32765C8.29283 6.34699 8.2735 6.38414 8.28201 6.40503C8.38488 6.57681 8.35317 6.76639 8.35936 6.95133C8.35936 7.03335 8.3756 7.07746 8.45682 6.99234C8.48699 6.96139 8.54965 6.96371 8.58523 6.93508C8.99211 6.61163 9.42606 6.33771 9.93272 6.19301C9.94693 6.18418 9.95865 6.17187 9.96677 6.15725C9.97489 6.14262 9.97915 6.12617 9.97913 6.10944C9.97467 6.09375 9.96618 6.07949 9.95451 6.06809C9.94284 6.05669 9.9284 6.04854 9.91261 6.04444C9.63105 6.04057 9.34871 6.04057 9.06714 6.04057ZM9.27445 9.60004C9.4833 9.59539 9.74553 9.29516 9.75249 9.05838C9.75945 8.84868 9.5065 8.51208 9.20405 8.51672C8.93796 8.51672 8.65717 8.81386 8.66877 9.07386C8.68115 9.35861 8.96813 9.607 9.27445 9.60004ZM8.19769 18.7486C8.22167 18.7641 8.2557 18.8051 8.28974 18.8051C8.80259 18.8098 9.31622 18.8051 9.82907 18.8051C9.85234 18.8002 9.87458 18.7913 9.89482 18.7788C9.87903 18.7501 9.85895 18.724 9.83526 18.7014C9.78565 18.6703 9.73396 18.6426 9.68055 18.6186C9.26445 18.4294 8.87149 18.1928 8.50942 17.9137C8.4957 17.9023 8.47973 17.8938 8.46255 17.8889C8.44537 17.8839 8.42735 17.8826 8.40964 17.8851C8.39575 17.895 8.38444 17.9082 8.37664 17.9234C8.36884 17.9386 8.36477 17.9554 8.36477 17.9725C8.38397 18.194 8.3331 18.416 8.21935 18.607C8.19846 18.6349 8.20465 18.679 8.19769 18.7486ZM15.3142 18.7239C15.3297 18.7494 15.3467 18.8013 15.3652 18.8013C15.6468 18.8067 15.95 18.8709 16.203 18.7866C16.4559 18.7022 16.6764 18.7719 16.9069 18.7277C17.0515 18.891 17.0477 18.7277 17.0175 18.6643C16.9006 18.4215 16.8492 18.1523 16.8682 17.8835C16.8729 17.8278 16.862 17.7876 16.7909 17.841C16.6195 17.9764 16.4408 18.1022 16.2556 18.2178C15.9694 18.385 15.7141 18.6155 15.3621 18.6558C15.3451 18.6573 15.3343 18.6937 15.3142 18.7239ZM18.9567 15.9955C18.9567 15.7262 18.9567 15.4538 18.9567 15.1884C18.9567 15.1574 18.9297 15.128 18.9157 15.0979C18.9041 15.1311 18.8949 15.166 18.8802 15.1985C18.858 15.2535 18.8321 15.307 18.8028 15.3586C18.5955 15.6952 18.4462 16.0674 18.184 16.3723C18.1284 16.4479 18.079 16.5279 18.0362 16.6114C18.1213 16.6215 18.208 16.6277 18.2923 16.6431C18.3387 16.6516 18.3805 16.6787 18.4261 16.6911C18.5661 16.7219 18.6999 16.7758 18.8222 16.8505C18.908 16.9093 18.9544 16.8745 18.9552 16.7646C18.9567 16.5085 18.9567 16.2547 18.9567 15.9955ZM18.9567 8.93534V8.05244C18.9567 7.98048 18.9397 7.98435 18.8732 8.01375C18.6899 8.09655 18.5274 8.25131 18.3008 8.2072C18.2443 8.30006 18.0958 8.25595 18.0757 8.29232C18.0192 8.39755 18.167 8.42774 18.2087 8.50357C18.2265 8.53529 18.242 8.56702 18.2606 8.59797C18.4656 8.93302 18.7077 9.24719 18.802 9.6395C18.8289 9.70611 18.8645 9.76883 18.908 9.82598C18.9285 9.76095 18.9428 9.6941 18.9506 9.62635C18.9567 9.39653 18.9567 9.16593 18.9567 8.93534ZM6.27082 15.9405C6.27082 16.12 6.27082 16.2996 6.27082 16.4822C6.27082 16.6075 6.23601 16.7917 6.30099 16.8451C6.41083 16.9318 6.52145 16.7561 6.64212 16.7252C6.79544 16.6917 6.95034 16.6658 7.10624 16.6478C7.18359 16.6369 7.19983 16.623 7.16038 16.575C6.81539 16.1526 6.58565 15.6643 6.34353 15.1822C6.32872 15.1574 6.31217 15.1336 6.29403 15.111C6.28168 15.1313 6.27304 15.1535 6.2685 15.1768C6.27082 15.4283 6.27082 15.6844 6.27082 15.9405ZM6.31337 8.0656C6.31337 8.07179 6.27392 8.10661 6.27315 8.14298C6.27315 8.68463 6.27315 9.21778 6.27315 9.75557C6.27805 9.77885 6.28694 9.8011 6.29944 9.82134C6.31828 9.79905 6.33487 9.77495 6.34895 9.74938C6.44177 9.5451 6.50366 9.3207 6.62974 9.13808C6.81462 8.86803 6.92755 8.5469 7.18978 8.32946C7.20525 8.31708 7.19751 8.25208 7.17895 8.23196C7.16518 8.22135 7.14893 8.21443 7.13174 8.21186C7.11454 8.20929 7.09698 8.21114 7.08071 8.21726C7.02037 8.26678 6.98479 8.29928 6.88965 8.2544C6.70183 8.1791 6.50933 8.11603 6.31337 8.0656ZM7.89524 14.8619C8.00353 15.0344 8.10564 15.2124 8.22476 15.3772C8.26344 15.4314 8.31991 15.4167 8.36245 15.3377C8.52644 15.0336 8.79795 14.8905 9.13598 14.8626C9.25047 14.8533 9.42065 14.9067 9.46861 14.8502C9.53436 14.7729 9.50883 14.6181 9.52198 14.4943C9.5208 14.4814 9.5208 14.4685 9.52198 14.4556C9.54286 14.386 9.67668 14.321 9.54828 14.2506C9.51656 14.2335 9.42606 14.3132 9.36959 14.3573C9.31312 14.4014 9.28605 14.4633 9.23113 14.4889C9.04703 14.5748 8.92171 14.7574 8.70048 14.7853C8.57981 14.8007 8.45373 14.7334 8.3377 14.8402C8.22167 14.947 8.11724 14.7628 7.9958 14.7837C7.97182 14.7837 7.94243 14.7837 7.92541 14.7976C7.90839 14.8116 7.90375 14.8402 7.89524 14.8619ZM7.35377 13.1982C7.35117 13.2159 7.35117 13.2339 7.35377 13.2516C7.45541 13.4727 7.50818 13.7131 7.50847 13.9565C7.50847 13.9743 7.56185 14.0076 7.58583 14.0053C7.60981 14.0029 7.6539 13.9635 7.65312 13.9426C7.64075 13.7646 7.73048 13.6153 7.78153 13.4559C7.79468 13.4164 7.80242 13.3522 7.78153 13.3282C7.73731 13.2783 7.6835 13.2377 7.6233 13.209C7.5631 13.1803 7.49775 13.164 7.43112 13.1611C7.40791 13.1595 7.37775 13.1874 7.35377 13.199V13.1982ZM11.5479 17.0881L11.445 17.1523C11.3746 17.1972 11.2717 17.2258 11.24 17.29C11.1827 17.4061 10.9468 17.2405 11.0033 17.4363C11.0234 17.5044 11.2013 17.5361 11.3127 17.5655C11.3897 17.5751 11.4675 17.5767 11.5448 17.5701C11.7652 17.5818 11.7884 17.5601 11.6817 17.3775C11.6389 17.3184 11.6137 17.2483 11.609 17.1755C11.6082 17.15 11.5718 17.1237 11.5479 17.0888V17.0881ZM11.6198 7.27865C11.51 7.30341 11.3328 7.33978 11.1557 7.38466C11.124 7.39317 11.1008 7.4365 11.0737 7.46204C11.0974 7.48048 11.1234 7.49583 11.151 7.50769C11.2663 7.54019 11.3831 7.56108 11.4984 7.59745C11.7235 7.66941 11.7227 7.67483 11.8155 7.49221C11.93 7.27865 11.93 7.27865 11.6198 7.27865ZM14.1608 17.4556C14.1299 17.4247 14.1144 17.3999 14.0928 17.3898C13.9543 17.3249 13.8159 17.2614 13.6735 17.2049C13.6557 17.1972 13.6116 17.2243 13.5962 17.2475C13.5641 17.2964 13.5366 17.3482 13.5142 17.4022C13.4801 17.4796 13.4507 17.557 13.419 17.6406C13.4838 17.6117 13.5508 17.5881 13.6194 17.5701C13.682 17.5581 13.7463 17.5581 13.8089 17.5701C13.9172 17.591 13.9976 17.5384 14.0827 17.4928C14.1036 17.4796 14.1307 17.4696 14.1608 17.4556ZM8.66877 9.87241C8.59606 9.79968 8.52103 9.72849 8.45063 9.65343C8.28742 9.47855 8.24565 9.477 8.13039 9.65343C8.09713 9.70373 8.07083 9.75789 8.04066 9.80819C8.02442 9.83604 8.0074 9.86235 7.99116 9.89021C8.02623 9.89973 8.06189 9.90697 8.0979 9.91188C8.26963 9.9289 8.44058 9.74164 8.61462 9.91188C8.6154 9.90956 8.64789 9.88247 8.66877 9.86854V9.87241ZM7.43112 11.3782C7.42261 11.5105 7.43112 11.5191 7.53942 11.4672C7.63224 11.4223 7.75446 11.3945 7.80551 11.3202C7.83259 11.2799 7.73435 11.1577 7.69876 11.0703C7.6802 11.0261 7.6771 10.9766 7.66163 10.9317C7.64929 10.9028 7.63427 10.8751 7.61677 10.8489C7.5897 10.876 7.54715 10.8985 7.53942 10.931C7.49765 11.0772 7.46516 11.2297 7.43112 11.3744V11.3782ZM17.8212 13.1278C17.7072 13.195 17.5997 13.2727 17.5002 13.3599C17.4793 13.3808 17.535 13.486 17.5652 13.5472C17.6031 13.6246 17.651 13.6973 17.6943 13.7716C17.7376 13.6876 17.7699 13.5984 17.7903 13.5062C17.7906 13.4204 17.8176 13.3368 17.8676 13.2671C17.8831 13.2438 17.8452 13.1866 17.822 13.1239L17.8212 13.1278ZM13.5923 7.34287C13.6697 7.45585 13.7176 7.57501 13.8043 7.6462C13.8375 7.6756 13.9512 7.61447 14.027 7.59126C14.0487 7.58429 14.0657 7.56263 14.0866 7.55025C14.1338 7.52239 14.1825 7.49608 14.2305 7.469C14.1779 7.44192 14.126 7.41174 14.0758 7.39162C13.9551 7.33978 13.8073 7.38233 13.6952 7.28871C13.6844 7.27865 13.6395 7.31115 13.5931 7.339L13.5923 7.34287ZM10.3899 9.29052C10.4027 9.29207 10.4157 9.29207 10.4286 9.29052C10.4858 9.27814 10.543 9.26421 10.6003 9.25028C10.5515 9.21236 10.5028 9.1729 10.4549 9.13653L10.2228 8.95005C10.2058 8.93612 10.1872 8.92606 10.1687 8.91368C10.1557 8.93358 10.1463 8.95557 10.1408 8.97868C10.1362 9.02975 10.1408 9.08236 10.1408 9.13343C10.1307 9.23558 10.1408 9.31373 10.2769 9.28819C10.3146 9.28603 10.3524 9.28681 10.3899 9.29052ZM16.0057 10.0643C15.7907 10.0597 15.7342 10.1177 15.7095 10.3375C15.7072 10.3553 15.7088 10.3735 15.7142 10.3907C15.7195 10.4079 15.7285 10.4238 15.7404 10.4373C15.7563 10.4444 15.7738 10.4474 15.7912 10.4462C15.8086 10.445 15.8254 10.4395 15.8402 10.4303C15.9092 10.3722 15.9734 10.3086 16.032 10.24C16.0657 10.206 16.0855 10.1608 16.0877 10.1131C16.0823 10.086 16.0173 10.0697 16.0057 10.0643ZM9.23655 9.98694C9.21083 9.98422 9.18491 9.98422 9.15919 9.98694C9.12479 9.99695 9.09097 10.0088 9.05786 10.0225C9.08141 10.0505 9.10729 10.0763 9.13521 10.0999C9.22095 10.1683 9.31113 10.2308 9.40517 10.2872C9.42606 10.2988 9.5096 10.2562 9.51424 10.2299C9.54673 10.0643 9.45855 9.98694 9.23655 9.98694ZM17.7964 11.3542C17.774 11.3055 17.7191 11.1925 17.668 11.0795C17.6139 11.1569 17.5543 11.2343 17.5056 11.3217C17.4569 11.4092 17.4863 11.4618 17.5938 11.4571C17.6194 11.4532 17.6455 11.4532 17.6711 11.4571C17.7191 11.4719 17.7903 11.6282 17.7964 11.3542ZM9.90642 8.18167C9.90642 8.14452 9.90642 8.10429 9.90642 8.06869C9.90023 7.96114 9.84918 7.94411 9.76409 8.0006L9.59701 8.1128C9.65038 8.17006 9.70221 8.22887 9.75713 8.28381C9.7726 8.29928 9.80354 8.29929 9.81901 8.31476C9.86156 8.35809 9.89637 8.37744 9.90565 8.29542C9.90823 8.25781 9.90849 8.22008 9.90642 8.18244V8.18167ZM16.9146 9.42671C16.9008 9.45543 16.8853 9.48334 16.8682 9.51028C16.8172 9.57992 16.7622 9.64569 16.7135 9.71688C16.7067 9.72864 16.7031 9.74199 16.7031 9.75557C16.7031 9.76915 16.7067 9.7825 16.7135 9.79426C16.739 9.81593 16.7909 9.84301 16.8079 9.8314C16.8407 9.80322 16.8788 9.78186 16.92 9.76857C16.9612 9.75529 17.0046 9.75034 17.0477 9.75402C17.0624 9.75402 17.0979 9.71301 17.0956 9.70914C17.0415 9.61551 16.9811 9.52653 16.9146 9.42748V9.42671ZM10.1385 15.6736C10.1385 15.7231 10.1385 15.7362 10.1385 15.7509C10.1454 15.7858 10.1532 15.8198 10.1609 15.8546C10.1883 15.8414 10.2143 15.8254 10.2383 15.8067C10.3017 15.7471 10.3636 15.6852 10.4224 15.621C10.4301 15.6132 10.4185 15.5714 10.4154 15.5714C10.3315 15.566 10.2473 15.5691 10.164 15.5807C10.1454 15.5815 10.1385 15.6627 10.1385 15.6736ZM17.0074 15.1366C16.9471 15.1845 16.8705 15.2248 16.8752 15.2457C16.8984 15.2996 16.9311 15.3489 16.9719 15.3911C17.0175 15.3452 17.059 15.2952 17.0956 15.2418C17.1003 15.231 17.0484 15.1838 17.0074 15.1366ZM15.7837 14.6723C15.759 14.7953 15.8487 14.7938 15.9384 14.7845C15.9606 14.7788 15.9819 14.7702 16.0019 14.7589C15.9945 14.7403 15.9849 14.7226 15.9732 14.7063C15.9408 14.6684 15.9051 14.6335 15.8665 14.6019C15.8479 14.5872 15.8154 14.5903 15.7891 14.5848L15.7837 14.6723ZM15.6816 8.22268L15.5269 8.06792C15.4844 8.12905 15.4426 8.19018 15.4 8.25053C15.4431 8.26802 15.4884 8.27947 15.5346 8.28458C15.5864 8.27088 15.6359 8.24977 15.6816 8.2219V8.22268ZM14.9475 15.6302L14.8593 15.6728C14.9166 15.7123 14.9731 15.7502 15.0326 15.7873C15.0567 15.7663 15.0753 15.7398 15.0868 15.7099C15.0882 15.6986 15.0867 15.687 15.0825 15.6763C15.0783 15.6657 15.0716 15.6562 15.0628 15.6488C15.0252 15.6381 14.9865 15.6316 14.9475 15.6295V15.6302ZM11.4202 12.412C11.4829 12.4406 11.5092 12.4631 11.5339 12.4615C11.5889 12.4615 11.6685 12.4987 11.6825 12.4043C11.6871 12.3749 11.6592 12.3408 11.6461 12.3091L11.4202 12.412ZM13.5312 12.436C13.573 12.4507 13.6168 12.459 13.6611 12.4608C13.6969 12.4504 13.7305 12.4337 13.7602 12.4112C13.7253 12.378 13.6882 12.3161 13.6565 12.3192C13.6248 12.3223 13.5861 12.3803 13.5312 12.4352V12.436ZM12.5364 11.4169C12.5596 11.4316 12.5867 11.4595 12.5975 11.4541C12.6335 11.4347 12.6654 11.4084 12.6911 11.3767C12.6911 11.372 12.661 11.3341 12.644 11.3117L12.5364 11.4169ZM12.5983 13.3916C12.5697 13.4094 12.5388 13.4203 12.5388 13.4296C12.5437 13.464 12.5517 13.4979 12.5627 13.5309C12.5798 13.5216 12.6107 13.5124 12.6115 13.5015C12.61 13.4646 12.6056 13.4279 12.5983 13.3916ZM14.9499 9.21314C14.9425 9.24935 14.9381 9.2861 14.9367 9.32302C14.9367 9.33385 14.9684 9.34314 14.9854 9.35242C14.9964 9.31941 15.0045 9.28549 15.0094 9.25105C15.0117 9.24486 14.9785 9.23403 14.9499 9.21314ZM15.5942 16.6222L15.5656 16.6896C15.5865 16.6981 15.6112 16.7182 15.6282 16.7136C15.6535 16.7017 15.6764 16.6851 15.6955 16.6648L15.5942 16.6222Z" fill="black"/>
</svg>
