<svg width="48" height="48" viewBox="0 0 48 48" fill="none" xmlns="http://www.w3.org/2000/svg">
<path fill-rule="evenodd" clip-rule="evenodd" d="M22.4975 11.9471V14.1301L18.4332 14.1301V16.9316H15.5934V22.4959H18.4332V25.319H22.4975L22.4975 30.5539H18.5935V27.9319L15.5935 27.9319V30.714H18.4218V33.5539H22.4975V36.0591H25.4975V33.5539H29.5505V30.714H32.3788V25.1497H29.5618V22.319H25.4975V17.1301H29.3789V19.7781H32.3789V16.9959H29.5618V14.1301H25.4975V11.9471H22.4975ZM18.5934 17.1301H22.4975V22.319H18.5934V17.1301ZM25.4975 30.5539V25.319H29.3788V30.5539H25.4975Z" fill="white"/>
<path fill-rule="evenodd" clip-rule="evenodd" d="M11.0141 8.2721V11.1632H8.23194V13.9453H5.3562V34.1844H8.23194V36.9666H11.0141V39.8437H14.7236V42.5824H33.2713V39.8003H36.9037V36.9092H39.6858V34.1271H42.5767V13.8152H39.6858V11.033H36.9037V8.14197H33.2713V5.50342H14.7236V8.2721H11.0141ZM33.1941 8.50342H14.7236V11.2721H11.0141V13.9453H8.3562L8.3562 34.1844H11.0141V36.8437H14.7236V39.5824H33.1941V36.8003H36.9037V34.1271H39.5767V13.8152H36.9037V11.142H33.1941V8.50342Z" fill="white"/>
</svg>
