<svg width="49" height="49" viewBox="0 0 49 49" fill="none" xmlns="http://www.w3.org/2000/svg">
<g filter="url(#filter0_d_80_417)">
<path d="M9.05316 16.0649L11.2964 16.0649V13.8092H13.552V16.0649L11.3088 16.0649L11.3088 32.4738H13.552V34.7181H16.5595V36.9385H31.5345V34.6829H34.542V36.9385H31.5971V39.1941H16.5595V36.9737H13.552V34.7294H11.2964V32.4738H9.05316V16.0649Z" fill="#D95F5F"/>
<path d="M36.7975 32.4272L36.7977 34.6829H34.542V32.4272H36.7975Z" fill="#D95F5F"/>
<path d="M36.7975 15.9594H39.0532V32.4272H36.7975V15.9594Z" fill="#D95F5F"/>
<path d="M34.542 13.7037H36.7977L36.7975 15.9594H34.542V13.7037Z" fill="#D95F5F"/>
<path d="M34.542 13.7037V11.4481H31.5971V9.30887H16.5595V11.5536H13.552V13.8092H16.5595V11.5645H31.5345V13.7037H34.542Z" fill="#D95F5F"/>
<path d="M13.552 13.8092H11.2964V16.0649L9.05316 16.0649V32.4738H11.2964V34.7294H13.552V36.9737H16.5595V39.1941H31.5971V36.9385H34.542V34.6829M13.552 13.8092V16.0649L11.3088 16.0649L11.3088 32.4738H13.552V34.7181H16.5595V36.9385H31.5345V34.6829H34.542M13.552 13.8092V11.5536H16.5595V9.30887H31.5971V11.4481H34.542V13.7037M13.552 13.8092H16.5595V11.5645H31.5345V13.7037H34.542M34.542 34.6829H36.7977L36.7975 32.4272M34.542 34.6829V32.4272H36.7975M36.7975 32.4272H39.0532V15.9594H36.7975M36.7975 32.4272V15.9594M36.7975 15.9594L36.7977 13.7037H34.542M36.7975 15.9594H34.542V13.7037" stroke="#D95F5F"/>
<path d="M22.4246 17.856V19.7749H25.6804V17.856H29.1921V19.7749H31.447V24.7896H29.1921V26.5659H26.9363V28.7954H24.655V30.647H23.4001V28.7954H21.1697V26.5659H18.9138V24.7896H16.658V19.7749H18.9138V17.856H22.4246Z" fill="#D95F5F" stroke="#D95F5F"/>
</g>
<defs>
<filter id="filter0_d_80_417" x="2.55316" y="2.80887" width="43" height="42.8853" filterUnits="userSpaceOnUse" color-interpolation-filters="sRGB">
<feFlood flood-opacity="0" result="BackgroundImageFix"/>
<feColorMatrix in="SourceAlpha" type="matrix" values="0 0 0 0 0 0 0 0 0 0 0 0 0 0 0 0 0 0 127 0" result="hardAlpha"/>
<feOffset/>
<feGaussianBlur stdDeviation="3"/>
<feComposite in2="hardAlpha" operator="out"/>
<feColorMatrix type="matrix" values="0 0 0 0 0 0 0 0 0 0 0 0 0 0 0 0 0 0 0.75 0"/>
<feBlend mode="normal" in2="BackgroundImageFix" result="effect1_dropShadow_80_417"/>
<feBlend mode="normal" in="SourceGraphic" in2="effect1_dropShadow_80_417" result="shape"/>
</filter>
</defs>
</svg>
