<svg width="48" height="48" viewBox="0 0 48 48" fill="none" xmlns="http://www.w3.org/2000/svg">
<path d="M21.0001 4.16553H27.0001V7.06213H31.994V10.0586H35.994V13.0435H38.994V16.0435H41.9857V32.0435H38.994V35.0435H35.994V32.0435H38.9857V16.0435H35.994V13.0586H31.994V10.0621H15.994V13.0359H11.994V16.0079H8.99396V13.0079H11.994V10.0359H15.994V7.06213H21.0001V4.16553Z" fill="white"/>
<path d="M11.994 35.0435H15.994V37.9379H31.994V35.0435H35.994V38.0435H31.994V40.8345H34.4001V43.8345H26.4001V40.9379H22.0001V43.8345H14.0001V40.8345H15.994V38.0435H11.994V35.0435Z" fill="white"/>
<path d="M11.994 35.0435H8.99396V32.0435H6.0144V16.0435H9.01441L9.0144 32.0435H11.994V35.0435Z" fill="white"/>
<path d="M21.0001 26.975H18.0176V29.975H21.0176V27H27.0001V21.0432H30.0001V18.0688H33.0001V15.0688H30.0001V18.0432H27.0001V21H21.0001V26.975Z" fill="white"/>
</svg>
