<svg width="48" height="48" viewBox="0 0 48 48" fill="none" xmlns="http://www.w3.org/2000/svg">
<path fill-rule="evenodd" clip-rule="evenodd" d="M18 13.8526V25.8526H30V13.8526H18ZM27 16.8526H21V22.8526H27V16.8526Z" fill="white"/>
<path fill-rule="evenodd" clip-rule="evenodd" d="M13.5 9.92169H10.5V12.9217H7.55139V28.9217H10.5V31.9217H13.5V34.9217H16.5V37.9217H19.5V40.9217H22.5V43.9217H25.5V40.9217H28.5V37.9217H31.5V34.9217H34.5V31.9217H37.5V28.9217H40.4486V12.9217H37.5V9.92169H34.5V6.92169H31.5008V4.09119H16.5V6.92169H13.5V9.92169ZM16.5 7.09119H31.5V9.92169H34.5V12.9217H37.4486V28.9217H34.5V31.9217H31.5V34.9217H28.5V37.9217H25.5V40.9217H22.5V37.9217H19.5V34.9217H16.5V31.9217H13.5V28.9217H10.5514V12.9217H13.5V9.92169H16.5V7.09119Z" fill="white"/>
</svg>
