<svg width="105" height="134" viewBox="0 0 105 134" fill="none" xmlns="http://www.w3.org/2000/svg">
<path d="M104.952 8.38477C104.952 47.9694 104.952 87.5541 104.952 127.139C104.286 127.186 103.644 127.281 102.978 127.281C80.7892 127.399 58.6241 127.54 36.4353 127.635C27.398 127.682 18.337 127.635 9.22841 127.635C8.96681 126.572 8.68145 125.674 8.51497 124.753C6.04162 111.125 5.4946 97.4267 6.77885 83.6098C8.4436 65.5889 14.0324 49.0323 25.4003 34.6958C27.3505 32.2395 27.8737 29.7596 27.7072 26.6419C27.4218 21.4222 27.7786 16.1789 27.8737 10.7938C31.4886 13.7698 34.4138 16.3915 37.5768 18.6825C39.7886 20.3121 42.3571 20.2413 45.1158 19.7217C52.4883 18.3282 59.9084 16.6749 67.376 16.3914C74.4631 16.1316 81.6216 17.4779 88.7325 18.2101C91.515 18.4935 93.9883 18.7533 96.2238 16.3206C98.9112 13.4628 102.027 11.0064 104.952 8.38477ZM46.5903 45.4659C44.0694 45.3478 41.4534 44.8282 39.6459 47.3317C37.0537 50.9218 38.1476 57.8892 41.8815 60.2038C45.5677 62.4712 49.682 62.5657 53.4872 60.7235C57.1258 58.9521 58.8857 55.6219 59.0998 51.6067C59.29 48.1584 57.8869 46.5759 54.4622 46.1508C51.8462 45.8438 49.2064 45.6784 46.5903 45.4659ZM62.9049 81.3424C69.8018 81.2007 76.0327 79.4293 81.3838 75.1071C82.4539 74.2569 83.5003 73.1704 84.0711 71.9423C84.9035 70.1236 83.976 68.6829 82.2399 67.809C80.2422 66.7934 80.266 68.5648 79.6238 69.604C79.0531 70.5251 78.2207 71.4699 77.2456 71.9186C74.4631 73.2177 71.633 74.5875 68.6602 75.3433C63.6422 76.6187 58.5766 76.0755 53.6061 74.5639C52.7024 74.3041 51.5846 74.7765 50.562 74.9182C50.9187 76.0755 50.99 77.4218 51.6797 78.2956C52.2981 79.0987 53.5585 79.5947 54.6287 79.8308C57.3637 80.4686 60.1462 80.8701 62.9049 81.3424ZM83.4052 51.5358C83.3814 47.875 81.1935 44.9699 78.5061 45.0644C76.1041 45.1588 74.368 47.7569 74.3918 51.2052C74.4393 54.5826 76.437 57.0626 79.172 57.0862C81.8118 57.0862 83.4052 54.9841 83.4052 51.5358Z" fill="#A46230"/>
<path d="M104.952 8.38459C102.027 11.0299 98.9118 13.4862 96.2482 16.3676C94.0126 18.8004 91.5393 18.5406 88.7567 18.2571C81.6458 17.525 74.4874 16.1787 67.4003 16.4385C59.9565 16.6983 52.5126 18.3752 45.1401 19.7687C42.3576 20.2883 39.8129 20.3356 37.6012 18.7295C34.4381 16.4149 31.5129 13.7932 27.898 10.8409C27.8029 16.2259 27.4461 21.4693 27.7315 26.689C27.898 29.8066 27.3748 32.2866 25.4247 34.7429C14.033 49.0793 8.46792 65.6123 6.80316 83.6569C5.51892 97.4737 6.0659 111.172 8.53926 124.8C8.70573 125.722 8.96734 126.619 9.25273 127.682C18.3851 127.682 27.4224 127.705 36.4596 127.682C58.6484 127.587 80.8135 127.446 103.002 127.328C103.668 127.328 104.31 127.233 104.976 127.186C104.976 129.241 104.976 131.319 104.976 133.374C79.0298 133.539 53.0834 133.681 27.1608 133.846C22.4519 133.87 17.7192 133.87 13.0103 133.988C6.25617 134.153 4.06821 132.665 2.83153 126.17C-1.37792 104.04 -1.1639 82.0272 5.30487 60.3218C8.27765 50.3783 13.1292 41.2852 19.4791 32.9951C21.0963 30.8694 21.453 28.7202 21.5006 26.0276C21.5719 19.8868 22.4281 13.7696 23.094 7.65242C23.2367 6.40064 23.9264 5.17248 24.5685 4.03879C26.1857 1.11009 28.9682 0.755803 31.2988 3.16489C32.2739 4.18049 32.9874 5.40865 33.8673 6.51872C34.8424 7.7705 35.7937 9.06952 36.8877 10.2032C39.6226 13.0847 42.5003 14.3128 46.8524 13.1083C60.5272 9.32933 74.4398 9.66 88.3287 12.2108C90.1599 12.5415 91.4917 12.3761 92.9186 11.0062C96.8665 7.2509 100.957 3.66087 105 0C104.952 2.73975 104.952 5.55036 104.952 8.38459Z" fill="white"/>
<path d="M46.5897 45.4657C49.2058 45.7019 51.8456 45.8436 54.4617 46.1506C57.8863 46.5521 59.2894 48.1346 59.0992 51.6065C58.8851 55.5981 57.1253 58.9519 53.4866 60.7233C49.6576 62.5891 45.5671 62.4711 41.8809 60.2037C38.1233 57.8891 37.0531 50.9216 39.6453 47.3316C41.429 44.828 44.045 45.324 46.5897 45.4657Z" fill="white"/>
<path d="M62.9055 81.342C60.1467 80.8461 57.3642 80.4445 54.6293 79.8305C53.5591 79.5943 52.3224 79.0983 51.6803 78.2952C50.9906 77.4214 50.8955 76.0515 50.5625 74.9178C51.5851 74.7761 52.7029 74.3037 53.6066 74.5635C58.5771 76.0515 63.6189 76.6183 68.6608 75.3429C71.6336 74.5871 74.4637 73.2173 77.2462 71.9182C78.1975 71.4695 79.0536 70.5247 79.6244 69.6036C80.2665 68.5408 80.2427 66.793 82.2405 67.8086C83.9766 68.6825 84.904 70.1469 84.0717 71.9419C83.5247 73.1464 82.4545 74.2329 81.3843 75.1067C76.0333 79.4289 69.8261 81.2003 62.9055 81.342Z" fill="white"/>
<path d="M83.4047 51.5357C83.4285 54.984 81.8113 57.0861 79.1952 57.0861C76.4603 57.0625 74.4626 54.6061 74.415 51.2051C74.3674 47.7804 76.1273 45.1587 78.5293 45.0643C81.1691 44.9698 83.3809 47.8749 83.4047 51.5357Z" fill="white"/>
</svg>
