<svg width="1199" height="1280" viewBox="0 0 1199 1280" fill="none" xmlns="http://www.w3.org/2000/svg">
<path d="M-389.127 544.164C-384.167 525.885 -358.346 438.38 -313.263 418.923C-262.924 397.178 -191.606 315.281 -145.842 287.142C-100.078 259.004 -75.1603 244.91 -28.2267 234.675C18.7069 224.44 126.847 172.234 133.406 171.335C141.563 170.223 273.037 175.815 273.037 175.815C273.037 175.815 375.047 182.11 423.639 160.986C424.56 160.578 425.455 160.103 426.319 159.563C444.043 147.992 458.089 130.647 466.531 109.908C466.531 109.908 479.856 79.2029 514.042 65.1255C548.228 51.0482 638.601 10.7455 655.405 8.26026C672.209 5.77506 700.014 -3.90414 723.762 8.26026C747.51 20.4247 772.428 45.3584 772.428 134.924C772.428 140.924 781.593 163.798 821.879 185.609C824.52 187.023 826.863 189.032 828.758 191.508C830.652 193.983 832.056 196.869 832.879 199.98C837.143 216.232 846.086 247.281 854.11 255.211C865.126 266.083 873.239 301.923 881.353 309.591C889.155 316.997 911.497 342.291 942.648 349.763C943.832 350.041 945.031 350.302 946.231 350.531C979.262 356.94 990.84 401.085 1036.62 421.556C1082.4 442.026 1101.5 452.898 1111.92 474.023C1122.34 495.147 1132.78 497.681 1131.63 541.826C1130.47 585.971 1157.18 594.866 1157.18 594.866C1157.18 594.866 1196.04 609.793 1196.02 652.548C1196.02 653.586 1196.11 654.621 1196.3 655.638C1197.3 661.083 1197.57 681.798 1141.15 674.931C1137.46 674.464 1133.73 675.072 1130.32 676.697C1110.54 686.246 1040.36 723.605 985.687 797.033C930.418 871.279 912.8 902.507 908.95 909.848C908.197 911.264 907.586 912.766 907.129 914.328C905.648 919.364 902.998 931.512 903.428 952.538C904.005 981.33 875.031 1059.39 882.567 1114.4C890.103 1169.42 941.67 1256.92 944.498 1271" stroke="url(#paint0_linear_1520_30365)" stroke-width="3" stroke-miterlimit="10"/>
<path d="M91.698 1278.66C91.698 1278.66 79.5279 1254.49 91.698 1247.44C103.868 1240.4 254.678 1113.09 260.096 1103.71C265.515 1094.33 266.27 1074.71 266.27 1074.71C277.863 1012.43 364.372 933.948 364.372 933.948C331.163 893.858 341.971 739.465 341.971 739.465C363.602 684.872 349.7 661.835 349.7 661.835L313.396 666.102C277.093 670.37 247.734 620.895 247.734 620.895C247.734 620.895 250.828 588.473 251.598 562.035C252.368 535.597 236.141 512.543 231.507 480.988C226.873 449.432 254.678 422.978 254.678 422.978L291.055 428.946C371.39 411.042 379.103 322.327 379.888 299.29C380.673 276.253 339.721 232.746 334.302 221.66C328.883 210.575 273.096 175.88 273.096 175.88" stroke="url(#paint1_linear_1520_30365)" stroke-miterlimit="10"/>
<path d="M-184.75 316.997C-184.75 316.997 -130.769 355.583 -89.0617 381.187C-47.3545 406.792 -10.2665 479.713 -10.2665 501.458C-10.2665 523.204 24.5561 634.465 81.2614 656.293C137.967 678.12 183.227 739.465 168.17 777.855C168.17 777.855 121.429 867.42 124.138 878.931C125.619 885.127 208.071 1031.56 265.753 1081.28" stroke="url(#paint2_linear_1520_30365)" stroke-miterlimit="10"/>
<path d="M-390 624.655L-383.367 676.338C-383.367 676.338 -320.799 712.455 -308.436 727.235C-296.074 742.016 -211.889 900.692 -205.7 904.093C-199.512 907.494 -165.533 923.713 -155.495 939.932C-145.457 956.152 -49.6647 1017.55 -40.3964 1026.87C-31.1281 1036.18 -0.998824 1142.03 9.03934 1148.85C19.0775 1155.67 22.9418 1161.65 15.2281 1173.59C7.51441 1185.53 -4.09317 1256.34 -31.1281 1270.06L-43.55 1278.66" stroke="url(#paint3_linear_1520_30365)" stroke-miterlimit="10"/>
<path d="M364.371 933.948C364.371 933.948 542.038 939.066 551.306 903.243C560.574 867.42 556.71 835.848 572.937 829.03C589.164 822.212 768.37 769.32 803.904 751.4C803.904 751.4 837.127 749.765 854.894 718.995C872.661 688.224 1040.22 647.333 1085.08 652.45C1129.94 657.568 1135.68 674.196 1135.68 674.196" stroke="url(#paint4_linear_1520_30365)" stroke-miterlimit="10"/>
<path d="M-332.392 1278.66C-332.392 1274.32 -329.431 1250.01 -292.995 1237.21C-256.558 1224.41 -281.979 1207.78 -320.222 1217.38C-358.465 1226.97 -361.352 1180.28 -328.336 1177.07C-328.336 1177.07 -294.727 1196.91 -299.361 1150.91C-299.361 1150.91 -295.882 1097.17 -260.556 1093.33C-225.23 1089.49 -193.338 1094.96 -190.451 1081.34C-187.564 1067.72 -178.859 1062.62 -213.045 1051.73C-247.231 1040.84 -223.409 996.716 -208.988 982.001C-194.567 967.286 -187.55 950.233 -150.476 951.72C-113.403 953.208 -111.079 952.44 -97.1764 934.275C-83.274 916.11 -72.2587 882.838 -57.2014 889.231C-42.1442 895.624 -75.738 964.097 -62.9904 967.923C-50.2428 971.749 -49.6654 949.382 -30.5514 947.453C-11.4375 945.524 -14.2653 958.326 2.47975 946.178C19.2248 934.03 44.187 922.503 46.5115 884.751C48.836 846.999 60.4139 829.733 67.9351 830.371C75.4563 831.008 69.2973 863.643 86.294 864.281C103.291 864.918 98.6419 857.25 109.08 859.163C115.347 860.32 121.46 862.336 127.276 865.164C127.276 865.164 179.199 875.693 167.014 839.968C154.829 804.243 148.492 791.801 160.366 793.175C172.24 794.548 195.396 806.058 200.608 804.783C205.819 803.508 221.469 721.398 246.964 727.3C272.459 733.203 271.867 788.793 279.403 800.875C286.939 812.958 292.076 842.47 265.752 868.695C239.428 894.921 274.191 908.36 294.46 910.927C314.729 913.494 340.579 922.846 352.868 911.123C365.157 899.401 339.661 899.4 328.646 862.94C317.631 826.479 328.646 764.415 348.352 755.455C368.059 746.495 367.466 750.975 367.466 750.975C367.466 750.975 362.655 693.39 379.829 688.845C397.003 684.3 417.864 709.332 417.864 709.332C417.864 709.332 418.442 683.09 457.262 684.382C496.082 685.673 508.252 693.963 504.196 702.923C500.139 711.882 445.033 740.74 446.261 754.18C447.49 767.619 462.473 772.083 458.994 788.727C455.515 805.372 429.457 875.742 442.782 880.86C456.107 885.977 460.741 843.107 477.546 841.832C494.35 840.557 511.865 847.015 514.041 885.323C516.218 923.631 530.327 973.613 468.855 946.75C468.855 946.75 442.782 940.357 452.569 969.787C462.355 999.217 477.486 1010.09 433.455 1014.57C389.423 1019.05 340.18 1043.36 317.586 1091.33C294.993 1139.3 285.133 1214.19 292.15 1215.46C299.168 1216.74 336.375 1120.76 364.372 1123.9C392.369 1127.04 405.117 1182.76 420.189 1184.69C435.261 1186.62 443.878 1185.97 450.318 1156.54C456.759 1127.11 484.489 1080.39 536.057 1097.68C587.625 1114.96 598.048 1127.11 599.721 1166.77C601.394 1206.44 639.696 1187.24 656.5 1221.79C673.305 1256.34 674.519 1261.88 676.843 1278.66" stroke="url(#paint5_linear_1520_30365)" stroke-width="2" stroke-miterlimit="10"/>
<path d="M792.327 1277.72C792.327 1277.72 826.306 1238.48 767.602 1182.19C708.898 1125.9 717.456 1087.51 655.598 1065.32C593.74 1043.13 579.127 1015.85 599.974 991.958C620.82 968.071 658.678 970.703 676.844 928.831C695.01 886.958 691.901 882.773 676.844 856.335C661.787 829.897 702.65 829.88 720.417 837.565C738.183 845.249 791.483 836.715 816.209 801.726C840.934 766.737 960.652 644.586 996.185 640.417C1031.72 636.247 1076.53 638.782 1077.3 633.68C1078.07 628.579 1007.72 597.007 978.418 579.938C949.118 562.869 958.342 535.581 979.203 544.965C1000.06 554.35 1030.95 576.537 1039.45 562.95C1047.53 549.969 1053.17 543.167 1029.78 521.977C1027.39 519.791 1025.38 517.143 1023.86 514.162C1016.84 500.69 992.114 460.763 943.744 455.465C878.807 448.337 876.527 446.931 849.492 424.76C822.457 402.59 796.192 428.161 776.115 446.931C776.115 446.931 701.954 427.311 667.191 452.048C634.855 475.069 627.216 519.492 632.575 556.476C632.649 557.004 632.571 557.545 632.353 558.023C632.135 558.501 631.787 558.891 631.358 559.139C630.929 559.388 630.441 559.482 629.961 559.409C629.481 559.336 629.034 559.099 628.681 558.732C620.346 550.001 604.371 535.842 597.679 547.598C588.41 563.801 579.912 609.057 591.09 625.669C602.268 642.281 606.162 675.34 569.844 624.655C533.526 573.97 578.343 535.58 564.44 527.046C550.538 518.511 461.704 550.933 415.422 536.365C369.14 521.797 335.857 515.895 318.86 521.863C301.864 527.831 300.324 496.275 315.766 492.858C331.208 489.441 442.457 491.223 445.537 440.832C448.616 390.442 433.959 388.79 461.823 377.705C489.687 366.62 506.625 375.138 505.085 264.252C505.085 264.252 505.855 225.012 444.056 283.022C444.056 283.022 405.725 346.689 400.024 302.642C399.255 296.658 435.558 280.455 418.561 266.803C405.058 255.963 383.028 266.688 374.544 271.561C372.359 272.798 370.086 273.837 367.748 274.667C356.866 278.542 322.902 296.249 323.554 365.769C324.324 448.5 285.696 418.22 284.541 417.795C283.386 417.37 195.974 385.945 172.419 387.155C148.863 388.365 133.021 394.398 113.33 414.018C93.6383 433.638 66.174 451.133 40.5012 461.793C14.8283 472.453 -26.494 460.518 -43.4908 478.437C-60.4875 496.357 -61.2574 511.268 -55.0687 527.046C-48.88 542.824 13.6439 582.145 40.5012 591.955C67.3584 601.765 99.0275 620.519 93.6235 632.471C88.2195 644.422 18.6926 625.653 3.3096 620.519C-12.0734 615.385 -23.7846 611.935 -25.7833 634.465C-27.7821 656.996 -10.7112 695.467 -9.94135 701.86C-9.17146 708.253 -5.30723 732.14 -28.8629 705.277C-52.4185 678.414 -49.3389 657.502 -91.8309 665.187C-134.323 672.871 -219.336 728.053 -266.818 798.341C-314.299 868.63 -323.952 939.442 -323.567 956.07C-323.183 972.698 -346.738 940.292 -361.795 941.993C-376.853 943.693 -378.022 977.456 -390 977.456" stroke="url(#paint6_linear_1520_30365)" stroke-width="3" stroke-miterlimit="10"/>
<path d="M667.118 135.512C667.118 135.512 575.323 143.965 548.229 186.688C521.135 229.41 540.501 286.423 555.943 291.606C571.385 296.789 609.243 310.375 638.602 333.413C667.962 356.45 671.041 371.018 708.188 376.92C745.336 382.822 793.927 376.92 772.297 314.643C750.666 252.366 698.846 241.28 681.923 238.795C665.001 236.31 671.87 215.758 673.425 212.341C674.98 208.924 741.338 144.897 667.118 135.512Z" stroke="url(#paint7_linear_1520_30365)" stroke-width="5" stroke-miterlimit="10"/>
<path d="M612.337 208.253C605.389 208.402 598.74 211.403 593.687 216.672C588.633 221.941 585.539 229.099 585.006 236.752C584.695 241.084 585.288 244.927 587.583 247.248C595.311 254.933 613.848 283.938 623.901 293.323C633.953 302.707 641.978 318.06 656.103 318.06C670.227 318.06 676.416 295.873 637.033 266.018C630.269 252.383 626.473 237.196 625.944 221.66C625.751 211.147 619.488 208.188 612.337 208.253Z" stroke="url(#paint8_linear_1520_30365)" stroke-width="5" stroke-miterlimit="10"/>
<path d="M364.374 933.948C331.165 893.858 341.974 739.465 341.974 739.465C363.604 684.872 349.702 661.835 349.702 661.835L313.399 666.102C277.096 670.37 247.736 620.895 247.736 620.895C247.736 620.895 250.831 588.473 251.6 562.035C252.37 535.597 236.143 512.543 231.509 480.988C226.875 449.432 254.68 422.978 254.68 422.978L291.057 428.946C371.392 411.042 379.106 322.327 379.891 299.29C380.675 276.253 339.723 232.746 334.304 221.66C328.885 210.575 273.098 175.88 273.098 175.88" stroke="#34998A" stroke-width="2" stroke-miterlimit="10"/>
<path d="M364.375 933.948C364.375 933.948 542.041 939.066 551.31 903.243C560.578 867.42 556.714 835.848 572.94 829.03C589.167 822.212 768.374 769.32 803.907 751.4C803.907 751.4 837.131 749.766 854.897 718.995C872.664 688.224 1040.22 647.333 1085.08 652.45C1129.94 657.568 1135.68 674.196 1135.68 674.196L1141.09 674.932C1197.51 681.864 1197.25 661.083 1196.24 655.639C1196.06 654.621 1195.96 653.586 1195.96 652.548C1195.96 609.793 1157.12 594.866 1157.12 594.866C1157.12 594.866 1130.47 585.906 1131.63 541.761C1132.78 497.616 1122.36 495.065 1111.92 473.957C1101.48 452.849 1082.38 441.96 1036.62 421.49C990.857 401.02 979.264 356.875 946.233 350.466C945.034 350.237 943.834 349.975 942.65 349.697C911.558 342.144 889.157 316.997 881.355 309.525C873.241 301.857 865.069 266.018 854.113 255.145C846.088 247.215 837.146 216.167 832.882 199.915C832.059 196.804 830.655 193.917 828.76 191.442C826.865 188.967 824.522 186.957 821.881 185.543C781.595 163.732 772.43 140.859 772.43 134.858C772.43 45.293 747.513 20.4083 723.765 8.19482C700.016 -4.01863 672.197 5.62787 655.407 8.19482C638.618 10.7618 548.23 51.0482 514.044 65.1255C479.858 79.2029 466.533 109.908 466.533 109.908C458.092 130.647 444.045 147.992 426.321 159.563C425.457 160.103 424.562 160.578 423.641 160.986C375.049 182.11 273.039 175.815 273.039 175.815" stroke="#3EC5A1" stroke-width="2" stroke-miterlimit="10"/>
<defs>
<linearGradient id="paint0_linear_1520_30365" x1="403.702" y1="2.25806" x2="403.702" y2="1271" gradientUnits="userSpaceOnUse">
<stop stop-color="#34998A"/>
<stop offset="1" stop-color="#276058"/>
</linearGradient>
<linearGradient id="paint1_linear_1520_30365" x1="233.094" y1="175.88" x2="233.094" y2="1278.66" gradientUnits="userSpaceOnUse">
<stop stop-color="#ECA85D"/>
<stop offset="1" stop-color="#276058"/>
</linearGradient>
<linearGradient id="paint2_linear_1520_30365" x1="40.5017" y1="316.997" x2="40.5017" y2="1081.28" gradientUnits="userSpaceOnUse">
<stop stop-color="#ECA85D"/>
<stop offset="1" stop-color="#276058"/>
</linearGradient>
<linearGradient id="paint3_linear_1520_30365" x1="-185.345" y1="624.655" x2="-185.345" y2="1278.66" gradientUnits="userSpaceOnUse">
<stop stop-color="#ECA85D"/>
<stop offset="1" stop-color="#276058"/>
</linearGradient>
<linearGradient id="paint4_linear_1520_30365" x1="750.026" y1="652.013" x2="750.026" y2="934.201" gradientUnits="userSpaceOnUse">
<stop stop-color="#ECA85D"/>
<stop offset="1" stop-color="#276058"/>
</linearGradient>
<linearGradient id="paint5_linear_1520_30365" x1="162.841" y1="684.335" x2="162.841" y2="1278.66" gradientUnits="userSpaceOnUse">
<stop stop-color="#698D87"/>
<stop offset="1" stop-color="#275F58"/>
</linearGradient>
<linearGradient id="paint6_linear_1520_30365" x1="964.849" y1="251.279" x2="-277.538" y2="1277.72" gradientUnits="userSpaceOnUse">
<stop stop-color="#698D87"/>
<stop offset="1" stop-color="#275F58"/>
</linearGradient>
<linearGradient id="paint7_linear_1520_30365" x1="656.161" y1="135.512" x2="656.161" y2="378.702" gradientUnits="userSpaceOnUse">
<stop stop-color="#698D87"/>
<stop offset="1" stop-color="#275F58"/>
</linearGradient>
<linearGradient id="paint8_linear_1520_30365" x1="625.931" y1="208.252" x2="625.931" y2="318.06" gradientUnits="userSpaceOnUse">
<stop stop-color="#698D87"/>
<stop offset="1" stop-color="#275F58"/>
</linearGradient>
</defs>
</svg>
