<svg width="36" height="36" viewBox="0 0 36 36" fill="none" xmlns="http://www.w3.org/2000/svg">
<path fill-rule="evenodd" clip-rule="evenodd" d="M18.03 0C27.951 0.0165 36 8.0745 36 18C36 27.9345 27.936 36 18 36C8.0655 36 0 27.9345 0 18C0 8.0745 8.0505 0.0165 17.9715 0H18.03ZM23.571 24H12.4305C13.389 30.399 15.7935 34.5 18 34.5C20.208 34.5 22.6125 30.399 23.571 24ZM33.3735 24H25.089C24.45 28.4775 23.1075 32.103 21.3615 34.1565C26.865 33.0165 31.368 29.1315 33.3735 24ZM10.9125 24H2.6265C4.6335 29.1315 9.1365 33.0165 14.64 34.1565C12.894 32.103 11.5515 28.4775 10.9125 24ZM10.728 13.5H2.124C1.6275 15.249 1.0125 18.5835 2.124 22.5H10.728C10.446 19.779 10.4055 16.6125 10.728 13.5ZM23.7645 13.5H12.237C11.9445 16.2 11.8995 19.3905 12.237 22.5H23.7645C24.0585 19.7835 24.1005 16.605 23.7645 13.5ZM33.8775 13.5H25.2735C25.3665 14.388 25.7355 18.0285 25.2735 22.5H33.8775C34.989 18.582 34.374 15.2475 33.8775 13.5ZM14.64 1.8435C9.1365 2.9835 4.6335 6.8685 2.6265 12H10.9125C11.5515 7.5225 12.894 3.8955 14.64 1.8435ZM23.571 12C22.6125 5.601 20.208 1.5 18 1.5C15.7935 1.5 13.389 5.601 12.4305 12H23.571ZM21.3615 1.8435C23.1075 3.8955 24.45 7.5225 25.089 12H33.3735C31.368 6.8685 26.865 2.9835 21.3615 1.8435Z" fill="white"/>
</svg>
