<svg width="313" height="475" viewBox="0 0 313 475" fill="none" xmlns="http://www.w3.org/2000/svg">
<path d="M279.466 1.07617C279.466 1.07617 267.098 0.698444 260.999 9.63804C254.899 18.5776 243.399 10.1137 235.075 21.2777C226.751 32.4417 199.191 16.647 189.636 30.4831C181.06 42.9202 172.204 43.8155 158.34 28.0488C157.705 27.323 156.932 26.7294 156.067 26.3021C155.203 25.8748 154.262 25.6221 153.299 25.5585C152.336 25.4948 151.371 25.6214 150.457 25.9311C149.543 26.2408 148.699 26.7275 147.974 27.3633C142.993 31.7422 135.481 37.2403 129.129 37.2822C118.595 37.2822 53.4435 65.8497 50.7855 73.5162C49.5264 77.0837 46.5885 78.1189 43.7905 78.2029C41.9028 78.2936 40.1254 79.1181 38.8369 80.5006C37.5485 81.8831 36.8511 83.7142 36.8934 85.6036C36.8934 89.0311 37.3971 92.5986 38.908 94.3613C42.3495 98.3624 43.1889 108.043 64.7754 108.575C86.362 109.107 96.4907 116.172 94.0424 125.965C92.3711 132.028 90.224 137.95 87.6211 143.676C86.9733 145.133 86.821 146.761 87.1874 148.313C87.5538 149.864 88.4187 151.253 89.6496 152.266C96.2249 157.694 109.627 165.696 122.764 155.232C141.175 140.57 141.776 144.236 141.776 144.236C141.776 144.236 140.111 138.472 143.763 134.876C147.414 131.281 152.605 124.356 158.298 126.944C163.992 129.532 167.937 111.121 169.336 108.925C170.735 106.728 192.056 104.322 197.079 106.617C202.101 108.911 207.277 106.407 214.65 96.4318C220.862 88.0378 233.704 83.5051 240.573 83.3932C241.668 83.3721 242.743 83.1105 243.725 82.627C244.707 82.1434 245.57 81.4497 246.253 80.5952L251.248 74.3416C251.898 73.5398 252.367 72.6077 252.626 71.6084C252.884 70.6092 252.925 69.5661 252.745 68.5498C252.143 65.1502 251.779 60.0439 254.857 59.3164C259.544 58.2252 263.923 61.0232 272.037 48.5442C275.702 42.9482 279.032 39.9543 281.928 38.4854C282.932 37.9776 283.805 37.2442 284.479 36.3425C285.152 35.4409 285.608 34.3955 285.81 33.2883C286.012 32.1812 285.954 31.0423 285.643 29.961C285.331 28.8796 284.773 27.8852 284.012 27.0555L283.844 26.8737C282.953 25.9695 282.308 24.8514 281.972 23.6265C281.637 22.4017 281.621 21.1112 281.928 19.8787C283.663 12.9117 286.167 -0.112979 279.466 1.07617Z" fill="white" stroke="black" stroke-linejoin="round"/>
<path d="M29.0725 94.3754C29.7782 93.9454 30.5631 93.6617 31.3806 93.5409C32.198 93.4201 33.0315 93.4648 33.8314 93.6723C34.6312 93.8797 35.3812 94.2458 36.0369 94.7487C36.6926 95.2516 37.2406 95.881 37.6484 96.5998C39.2489 99.7555 41.6215 102.455 44.5454 104.448C51.6045 109.018 59.9325 111.227 68.3284 110.758C79.3105 110.296 88.0682 113.682 90.2786 122.481C92.4891 131.281 82.878 145.788 82.794 147.775C82.7101 149.762 86.8931 158.743 101.233 161.429C115.573 164.115 121.7 162.59 127.66 154.882C133.62 147.174 141.048 147.229 142.293 147.607C143.539 147.985 142.699 142.725 144.784 139.031C146.868 135.338 150.38 128.623 157.598 129.112C163.95 129.518 168.315 121.768 170.455 113.43C170.736 112.317 171.322 111.306 172.148 110.51C172.974 109.713 174.006 109.164 175.128 108.925C179.814 107.89 187.565 106.505 191.734 107.526C197.945 108.925 203.597 112.534 209.361 105.665C215.125 98.7962 223.351 89.0312 238.391 85.6596C238.849 85.5531 239.319 85.5061 239.79 85.5197C241.762 85.5197 247.596 85.1 250.114 79.574C253.164 72.8868 254.507 75.7127 254.689 69.5292C254.871 63.3456 254.899 61.5409 261.782 60.6315C268.665 59.7222 274.96 49.4396 274.988 48.0406C275.016 46.6416 278.024 38.7092 291.231 39.4787C304.437 40.2481 306.913 43.186 306.62 45.5084C306.494 46.7115 305.962 49.7054 305.5 52.1536C305.303 53.2813 304.796 54.3317 304.035 55.1868C303.273 56.0419 302.289 56.6678 301.191 56.9941C299.429 57.4978 297.61 58.3931 297.428 59.9041C297.036 62.9679 291.832 60.7714 292.28 68.0742C292.728 75.377 295.539 78.2589 291.217 79.7279C286.894 81.1968 276.037 81.1268 274.96 87.4783C273.883 93.8297 282.781 99.1319 284.865 99.8734C286.95 100.615 286.138 105.469 289.3 106.141C292.462 106.812 293.623 105.078 293.035 107.232C292.448 109.387 291.636 119.305 291.357 119.823C291.077 120.341 286.152 121.908 284.991 124.02C284.194 125.419 285.313 128.861 286.516 131.015C287.334 132.354 287.619 133.952 287.313 135.492C286.488 138.821 285.621 144.655 287.845 149.832C289.867 154.328 292.229 158.663 294.91 162.8C295.51 163.777 295.828 164.9 295.828 166.046C295.828 167.192 295.51 168.315 294.91 169.292C293.777 171.194 292.728 173.643 293.231 175.629C293.451 176.609 293.432 177.627 293.177 178.598C292.922 179.569 292.437 180.465 291.765 181.211C291.092 181.956 290.25 182.529 289.31 182.882C288.37 183.235 287.359 183.358 286.362 183.24H286.096C283.886 182.96 282.039 182.26 280.696 184.037C276.919 189.059 268.623 199.496 261.11 195.929C258.142 194.489 255.097 193.214 251.989 192.109C250.917 191.74 249.764 191.675 248.657 191.922C247.551 192.169 246.534 192.718 245.721 193.508C243.639 195.72 240.902 197.205 237.913 197.747C234.925 198.288 231.841 197.857 229.115 196.516C217.154 191.27 216.734 186.415 204.465 197.817C204.465 197.817 199.526 203.623 191.51 197.971C190.699 197.398 184.641 193.858 180.416 198.685C176.191 203.511 164.705 200.321 158.9 196.656C153.094 192.991 146.127 189.661 141.902 190.934C139.02 191.816 125.953 198.629 117.895 202.896C116.518 203.642 114.908 203.832 113.395 203.426C111.883 203.02 110.584 202.049 109.767 200.713C108.137 198.108 105.671 196.135 102.772 195.117C93.8322 191.662 93.6363 195.201 86.9071 191.326L83.1019 189.129C82.2255 188.632 81.4849 187.926 80.9457 187.075C80.4065 186.223 80.0852 185.252 80.0101 184.247C79.2406 174.062 75.0575 142.179 52.5897 127.741C52.0146 127.371 51.3807 127.101 50.715 126.944C46.7279 125.993 31.1291 121.544 25.3932 108.757C25.3932 108.757 21.1962 100.559 24.26 97.7329C25.7617 96.4736 27.3722 95.3501 29.0725 94.3754Z" fill="white" stroke="black" stroke-linejoin="round"/>
<path d="M80.5705 190.416C80.4166 188.766 90.1537 196.432 96.5191 195.775C101.332 195.285 104.437 200.545 105.669 203.147C105.854 203.545 105.918 203.988 105.85 204.422C105.783 204.855 105.588 205.259 105.291 205.582C101.975 209.177 91.0911 221.796 87.6495 236.094C83.5645 253.035 77.1431 250.713 77.1431 250.713C77.1431 250.713 54.8431 242.515 55.8224 241.606C58.2846 239.283 81.6617 202.56 80.5705 190.416Z" fill="white" stroke="black" stroke-linejoin="round"/>
<path d="M111.249 205.442C110.697 205.173 110.072 205.093 109.471 205.215C108.869 205.336 108.324 205.652 107.919 206.113C104.436 210.003 97.3988 218.201 94.9645 223.769C91.6629 231.295 89.7463 241.956 86.1229 246.418C84.7238 248.125 83.2341 249.755 81.6601 251.301C81.4757 251.477 81.3399 251.697 81.2656 251.941C81.1913 252.185 81.1811 252.444 81.2359 252.693C81.2908 252.942 81.4088 253.172 81.5787 253.362C81.7485 253.552 81.9645 253.695 82.2057 253.777C87.6377 255.767 92.4789 259.097 96.2796 263.458C102.183 270.257 112.788 274.762 116.705 276.273C116.897 276.345 117.101 276.378 117.306 276.369C117.51 276.36 117.711 276.31 117.895 276.221C118.08 276.132 118.244 276.006 118.379 275.852C118.513 275.697 118.615 275.517 118.678 275.322C120.077 270.929 124.511 258.254 130.331 256.463C133.758 255.42 137.262 254.649 140.81 254.155C141.136 254.109 141.448 253.993 141.724 253.814C142 253.636 142.235 253.399 142.41 253.121C142.586 252.843 142.699 252.529 142.742 252.203C142.784 251.877 142.755 251.545 142.656 251.231C141.257 247.034 137.956 238.64 131.143 233.114C131.143 233.114 126.946 229.966 129.282 227.14C131.618 224.314 144.825 235.31 149.26 234.765C153.694 234.219 156.52 230.666 160.55 231.561C164.579 232.457 168.524 236.542 170.664 239.535C172.805 242.529 174.414 243.131 175.337 242.879C176.26 242.627 184.011 242.781 185.312 241.088C186.613 239.396 180.933 238.29 180.653 235.059C180.443 232.652 179.492 226.329 179.016 223.251C178.94 222.747 178.728 222.274 178.402 221.882C178.077 221.49 177.651 221.194 177.17 221.027C175.771 220.467 173.756 219.474 173.952 218.117C174.106 217.054 174.386 215.696 174.623 214.605C174.732 214.089 174.693 213.552 174.51 213.057C174.327 212.562 174.007 212.128 173.588 211.807C172.443 211.026 171.536 209.944 170.965 208.68C170.395 207.416 170.185 206.02 170.357 204.644C170.453 204.034 170.319 203.409 169.98 202.892C169.641 202.375 169.122 202.002 168.524 201.846C166.757 201.474 164.939 201.412 163.152 201.665C161.47 201.884 159.766 201.462 158.382 200.482C156.997 199.502 156.033 198.036 155.681 196.376C155.681 196.376 144.083 190.179 139.019 194.25C139.019 194.25 117.195 208.24 111.249 205.442Z" fill="white" stroke="black" stroke-linejoin="round"/>
<path d="M49.1059 242.739C43.2021 244.977 28.9743 249.328 15.6279 245.537C15.6279 245.537 4.86962 245.537 7.87746 258.981C10.8853 272.426 0.96643 283.604 1.59598 288.738C1.59598 288.738 -0.922216 299.175 4.39397 302.154C9.71016 305.134 30.9749 295.915 33.7729 295.048C36.5709 294.18 43.3001 294.264 45.6504 295.607C48.0007 296.95 48.2525 291.662 41.8031 286.304C35.3538 280.946 40.1803 269.124 43.7757 268.117C46.3918 267.347 54.7299 257.009 59.0528 251.455C59.396 251.016 59.6437 250.51 59.7802 249.97C59.9167 249.43 59.9389 248.868 59.8454 248.318C59.7519 247.769 59.5447 247.246 59.2372 246.781C58.9296 246.317 58.5285 245.922 58.0595 245.621L54.6599 243.411C53.8526 242.869 52.9286 242.526 51.9634 242.409C50.9982 242.292 50.0191 242.405 49.1059 242.739Z" fill="white" stroke="black" stroke-linejoin="round"/>
<path d="M67.364 248.909C66.467 248.532 65.4629 248.498 64.5424 248.813C63.6219 249.127 62.8488 249.769 62.3696 250.615C59.5716 255.498 53.9756 264.605 49.3029 266.256C42.8955 268.495 38.6566 278.385 42.308 281.645C45.3298 284.359 49.7786 288.85 49.5968 293.439C49.5678 294.206 49.7558 294.967 50.1394 295.632C50.523 296.298 51.0864 296.842 51.7652 297.202C53.9227 298.408 55.5868 300.334 56.4658 302.644C58.8721 308.604 61.1664 330.694 70.3438 332.163L73.2958 332.639C73.9578 332.747 74.6365 332.685 75.2682 332.46C75.9 332.234 76.4639 331.851 76.9073 331.348C77.3506 330.844 77.6587 330.237 77.8027 329.581C77.9467 328.926 77.9219 328.245 77.7306 327.602L67.7977 294.334C67.7977 294.334 66.2448 284.737 74.387 282.247C82.5291 279.756 89.9299 287.171 99.2612 272.02L99.387 271.74C99.7521 270.944 99.843 270.05 99.6456 269.197C99.4481 268.344 98.9735 267.58 98.2959 267.026C88.8632 259.599 78.4554 253.503 67.364 248.909Z" fill="white" stroke="black" stroke-linejoin="round"/>
<path d="M82.2761 337.633C82.2761 337.633 70.8043 298.377 70.8882 295.775C70.8882 293.928 68.6079 285.632 76.0785 284.387C85.0741 282.904 91.9152 285.142 95.3847 281.057C97.5701 278.31 99.4468 275.331 100.981 272.174C101.148 271.859 101.43 271.619 101.768 271.505C102.106 271.39 102.475 271.409 102.799 271.558L138.782 288.962C139.101 289.122 139.347 289.398 139.469 289.733C139.591 290.069 139.581 290.439 139.439 290.766L129.324 312.969C128.737 314.273 127.713 315.332 126.428 315.962L122.231 317.949C120.779 318.635 119.6 319.792 118.887 321.232C118.173 322.671 117.967 324.31 118.3 325.881L124.931 356.869C124.974 357.169 124.918 357.474 124.772 357.739C124.626 358.005 124.398 358.215 124.122 358.34C123.846 358.464 123.537 358.496 123.242 358.43C122.946 358.364 122.68 358.204 122.483 357.974C121.188 355.769 120.244 353.376 119.685 350.881C116.412 339.158 109.053 348.195 109.053 348.195C109.053 348.195 106.94 350.462 103.821 346.083C101.288 342.515 96.1402 344.292 94.2935 345.09C94.0748 345.193 93.8359 345.247 93.594 345.247C93.3521 345.247 93.1132 345.193 92.8945 345.09C90.4183 343.732 82.7098 339.521 82.2761 337.633Z" fill="white" stroke="black" stroke-linejoin="round"/>
<path d="M185.564 243.019C185.938 242.927 186.33 242.944 186.695 243.068C187.059 243.192 187.381 243.417 187.621 243.718C188.814 245.178 189.502 246.985 189.583 248.869C189.664 250.753 189.132 252.612 188.068 254.169C183.983 260.898 180.262 260.408 178.961 263.052C177.66 265.697 174.176 286.64 177.128 288.808C180.08 290.976 186.292 291.76 184.809 295.034C183.326 298.307 180.108 295.817 173.91 292.991C167.713 290.165 152.296 284.387 144.532 287.143C144.088 287.322 143.607 287.385 143.133 287.325C140.558 286.975 131.633 285.227 121.924 277.28C121.546 276.979 121.268 276.571 121.128 276.108C120.988 275.646 120.993 275.152 121.14 274.692C122.371 270.859 125.715 261.038 128.219 259.653C131.325 257.932 144.909 255.638 145.357 254.421C145.805 253.204 139.355 235.212 133.06 232.149C133.06 232.149 130.57 231.211 131.129 229.952C131.689 228.693 135.088 229.952 137.229 231.211C140.256 233.102 143.473 234.673 146.826 235.898C148.788 236.306 150.812 236.316 152.778 235.927C154.744 235.537 156.611 234.757 158.27 233.632C161.641 231.113 167.643 237.898 169.364 242.319C171.084 246.74 177.562 244.74 180.22 244.236C182.011 243.9 184.235 243.355 185.564 243.019Z" fill="white" stroke="black" stroke-linejoin="round"/>
<path d="M143.707 289.382C143.368 289.467 143.054 289.631 142.789 289.859C142.525 290.087 142.317 290.374 142.182 290.697C140.391 295.075 132.991 312.913 130.836 315.487C128.402 318.411 121.855 317.949 120.19 322.482C118.693 326.497 126.178 352.63 127.856 358.366C127.964 358.753 128.159 359.111 128.426 359.411C128.692 359.712 129.024 359.948 129.395 360.101C130.941 360.769 132.656 360.942 134.304 360.596C135.953 360.25 137.453 359.403 138.601 358.17C143.679 353.204 150.198 357.988 152.213 358.17C154.227 358.352 163.545 356.156 166.749 353.777C169.952 351.399 168.553 346.712 175.352 344.446C179.549 343.047 183.746 342.012 186.376 341.424C186.715 341.347 187.034 341.203 187.316 341.001C187.598 340.799 187.836 340.542 188.018 340.246C188.199 339.95 188.319 339.621 188.371 339.278C188.423 338.935 188.406 338.585 188.321 338.248C186.362 330.68 180.962 308.87 181.718 301.119C181.749 300.794 181.707 300.466 181.595 300.159C181.484 299.851 181.306 299.573 181.074 299.342C179.675 297.943 175.856 295.285 165.419 291.704C153.584 287.591 146.337 288.654 143.707 289.382Z" fill="white" stroke="black" stroke-linejoin="round"/>
<path d="M254.688 300.014C254.373 299.858 254.026 299.778 253.674 299.778C253.322 299.778 252.975 299.858 252.66 300.014C249.358 301.693 237.159 306.561 219.377 298.363C219.377 298.363 218.58 298.027 217.825 297.65C217.659 297.561 217.517 297.434 217.411 297.279C217.305 297.124 217.237 296.946 217.214 296.76C217.191 296.573 217.212 296.384 217.277 296.208C217.342 296.032 217.448 295.874 217.587 295.747C219.503 294.012 223.029 290.333 220.021 288.962C216.048 287.143 216.188 290.948 210.62 292.963C205.052 294.977 197.511 298.209 189.173 294.11C189.173 294.11 186.025 292.165 184.626 299.874C183.227 307.582 191.551 334.849 191.16 337.871C190.768 340.893 190.838 341.466 189.201 342.837C187.564 344.208 181.339 345.02 177.645 346.461C173.952 347.902 174.707 347.146 172.357 350.518C170.007 353.889 168.16 357.135 165.362 357.149C162.564 357.163 155.499 359.527 155.499 359.527C155.499 359.527 152.869 361.066 154.758 364.242C156.646 367.418 170.385 368.341 175.575 369.586C181.547 371.308 187.356 373.55 192.936 376.287C195.958 377.868 196.364 370.985 201.121 371.419C205.877 371.852 212.62 372.118 221.182 379.967C229.744 387.815 236.151 390.123 238.572 389.76C240.992 389.396 245.077 391.005 247.567 385.982C250.057 380.96 252.324 380.666 254.814 382.513C257.304 384.359 256.339 386.948 260.27 388.738C264.201 390.529 268.972 388.263 272.329 393.523C275.687 398.783 275.127 401.077 276.233 401.161C277.338 401.245 280.709 396.237 288.74 401.007C296.77 405.778 299.204 409.318 302.967 409.709C306.731 410.101 317.167 405.162 308.885 398.056C307.205 397.078 305.325 396.494 303.386 396.349C301.447 396.203 299.501 396.5 297.693 397.216C291.524 399.664 280.514 388.584 277.8 384.317C275.085 380.05 272.078 371.601 266.608 368.173C261.137 364.745 248.686 354.043 247.106 344.39C245.525 334.737 244.629 332.946 246.672 329.127C248.714 325.308 255.527 323.251 257.192 322.706C258.857 322.16 257.556 316.802 259.99 318.607C262.424 320.411 263.656 324.328 264.803 322.02C265.95 319.712 265.46 305.344 254.688 300.014Z" fill="white" stroke="black" stroke-linejoin="round"/>
<path d="M73.2675 334.275C72.5486 334.41 71.8818 334.744 71.3428 335.239C70.8038 335.733 70.4141 336.369 70.2177 337.073C69.3923 339.871 66.5243 348.265 60.7604 352.714C53.7654 358.016 44.644 363.822 47.0223 365.711C49.4006 367.599 63.5584 358.716 65.489 360.381C67.4197 362.045 61.6698 370.244 63.8522 372.846C66.0347 375.448 76.6391 377.602 75.8137 380.596C74.9882 383.59 69.9378 387.885 74.5405 389.312C79.1432 390.739 81.6335 385.269 85.2849 385.856C88.9363 386.444 90.8809 391.354 88.3487 395.076C85.8165 398.797 81.3536 402.295 83.8998 413.123C86.446 423.951 83.5501 427.784 84.4314 430.876C85.3128 433.968 103.094 444.642 105.682 443.467C108.27 442.292 106.48 438.165 111.782 440.669C117.084 443.173 128.22 458.129 131.634 458.618C135.047 459.108 133.69 454.421 136.572 456.953C139.454 459.486 136.334 463.948 140.279 466.858C140.279 466.858 156.983 478.12 172.33 471.363C176.418 471.149 180.496 471.922 184.222 473.616C184.831 473.985 185.558 474.108 186.255 473.96C186.951 473.811 187.565 473.403 187.971 472.818C188.909 471.419 188.769 468.775 183.606 464.424C174.093 456.31 159.46 447.902 160.187 442.166C160.915 436.43 166.986 426.931 169.532 425.798C172.079 424.665 174.079 421.139 170.931 415.655C167.784 410.171 177.129 406.478 178.346 405.009C179.563 403.54 183.341 397.314 177.703 393.131C173.394 389.941 179.395 382.037 183.131 377.966C183.404 377.668 183.602 377.31 183.711 376.92C183.82 376.531 183.835 376.121 183.756 375.725C183.677 375.329 183.506 374.956 183.256 374.638C183.007 374.32 182.686 374.066 182.319 373.895C178.514 372.132 172.107 369.698 167.14 370.467C159.586 371.671 150.912 367.04 151.401 363.892C151.891 360.744 150.002 357.023 144.071 358.674C138.139 360.325 131.801 365.207 125.982 362.004C120.162 358.8 117.588 352.378 117.588 350.895C117.588 349.413 113.391 345.453 110.187 349.678C106.983 353.903 103.598 348.769 102.562 347.79C101.674 346.788 100.455 346.138 99.1277 345.959C97.8005 345.779 96.453 346.081 95.3297 346.81C92.0001 349.077 79.6469 341.019 79.5349 337.997C79.3531 335.772 76.0655 333.786 73.2675 334.275Z" fill="white" stroke="black" stroke-linejoin="round"/>
<path d="M260.06 196.614C260.335 196.725 260.585 196.891 260.794 197.102C261.003 197.313 261.166 197.565 261.274 197.841C261.381 198.118 261.431 198.414 261.419 198.711C261.408 199.007 261.336 199.298 261.207 199.566C260.046 202.098 259.053 206.561 263.851 209.863C270.986 214.829 284.193 227.112 287.242 232.848C290.292 238.584 297.399 255.582 295.762 267.166C294.125 278.749 282.22 282.009 276.176 287.129C270.133 292.25 268.999 298.209 262.564 298.811C259.662 299.232 256.701 298.83 254.016 297.65C253.798 297.546 253.559 297.493 253.317 297.493C253.075 297.493 252.836 297.546 252.617 297.65C250.365 298.657 243.804 301.329 238.865 300.56C232.835 299.622 222.511 295.425 221.755 295.09C221 294.754 226.89 288.934 219.503 286.276C218.385 285.849 217.15 285.845 216.029 286.265C214.908 286.685 213.98 287.5 213.417 288.556C210.843 292.431 201.904 295.845 191.677 293.005L181.17 289.228C179.939 288.668 178.191 286.724 178.275 285.381C178.624 279.785 180.667 265.081 181.073 264.242C181.478 263.402 198.098 255.302 191.411 246.055C190.544 244.852 184.738 236.751 183.773 235.101C182.975 233.702 181.716 225.168 181.282 222.132C181.239 221.825 181.117 221.536 180.928 221.29C180.739 221.045 180.49 220.853 180.205 220.733C178.806 220.117 176.134 218.634 176.792 216.06C176.792 216.06 179.002 212.521 175.868 210.087C172.735 207.652 171.014 204.491 174.357 203.637C177.701 202.784 181.128 201.665 182.583 200C184.038 198.335 185.172 197.202 189.746 199.608C194.321 202.014 198.602 203.665 201.428 202.126C204.759 200.086 207.914 197.77 210.857 195.201C212.211 194.182 213.842 193.596 215.535 193.521C217.228 193.446 218.904 193.886 220.342 194.781C224.539 197.062 223.91 200.951 229.128 200.797C234.346 200.643 240.054 200.322 243.118 197.747C246.182 195.173 249.358 192.697 253.023 193.97C255.135 194.628 258.045 195.789 260.06 196.614Z" fill="white" stroke="black" stroke-linejoin="round"/>
</svg>
