<svg width="29" height="46" viewBox="0 0 29 46" fill="none" xmlns="http://www.w3.org/2000/svg">
<path d="M9.68159 29.3901L7.48168 1.07747C7.43653 0.496402 7.89586 0 8.47868 0H21.3446C21.9505 0 22.4171 0.534427 22.3355 1.13474L18.5012 29.3328C18.4196 29.9331 18.8863 30.4675 19.4921 30.4675H26.6017C27.4903 30.4675 27.9375 31.54 27.3121 32.1713L14.3675 45.2377C13.9593 45.6497 13.2873 45.6292 12.905 45.193L1.45398 32.1266C0.887478 31.4802 1.34652 30.4675 2.20604 30.4675H8.68459C9.26741 30.4675 9.72674 29.9711 9.68159 29.3901Z" fill="#FFF0C8"/>
<path d="M20.082 3.07837L16.4029 26.5202" stroke="#6B6B6B" stroke-linecap="round"/>
<path d="M16 32L25 32" stroke="#6B6B6B" stroke-linecap="round"/>
<path d="M14.4844 43L23.4844 34" stroke="#6B6B6B" stroke-linecap="round"/>
</svg>
