<svg width="130" height="130" viewBox="0 0 130 130" fill="none" xmlns="http://www.w3.org/2000/svg">
<rect x="0.5" y="0.5" width="129" height="129" rx="64.5" fill="white"/>
<rect x="0.5" y="0.5" width="129" height="129" rx="64.5" stroke="#FEF3D7"/>
<path d="M104.497 63.1725C104.497 64.5821 104.643 66.0241 104.465 67.4175C103.946 71.7435 105.746 75.0002 108.584 78.1435C111.097 80.9303 113.464 84.0088 115.167 87.3465C121.491 99.8223 115.491 112.444 101.676 116.106C93.4055 118.293 85.7517 116.268 78.5194 112.217C77.0113 111.375 75.9735 111.261 74.4006 112.152C64.5089 117.742 54.4227 118.066 44.1743 113.06C43.4122 112.687 42.3257 112.671 41.4825 112.865C34.8988 114.323 28.5747 114.048 23.337 109.301C17.7263 104.197 16.802 94.832 21.4397 88.0756C23.6937 84.7865 26.6126 81.8214 29.726 79.3101C33.1638 76.5233 34.7853 73.4448 34.7691 68.9567C34.7529 59.6241 35.6286 50.3888 39.2285 41.5747C48.2769 19.4746 71.0439 15.4402 87.0651 22.0345C93.5352 24.6917 97.6378 29.8441 100.265 36.1793C103.865 44.7989 104.578 53.9209 104.497 63.1725ZM77.3032 98.1697C77.3032 98.3641 77.3032 98.5747 77.3032 98.7692C78.0978 98.9312 78.9086 99.077 79.7032 99.2714C81.9409 99.8385 84.2112 100.276 86.3679 101.07C86.9841 101.297 87.6002 102.609 87.5192 103.354C87.4057 104.537 86.3354 104.489 85.249 104.31C82.7842 103.922 80.2869 103.646 77.7897 103.484C77.2546 103.452 76.6546 104.1 76.1032 104.44C76.4438 104.91 76.7032 105.477 77.1248 105.85C77.9194 106.498 78.7951 107.032 79.6545 107.616C86.0273 111.926 92.9839 113.643 100.557 111.926C107.432 110.354 112.443 105.266 113.092 99.5955C113.708 94.1515 112.281 89.2583 109.005 84.9323C107.367 82.7936 105.438 80.8817 103.638 78.8564C101.335 76.2478 100.103 73.3152 100.249 69.7182C100.427 65.7324 100.378 61.7467 100.265 57.7609C100.054 50.7938 99.1135 43.9402 96.2433 37.4916C93.9244 32.2907 90.6164 27.916 85.103 25.8097C76.4438 22.4882 67.7035 22.5044 59.1577 26.069C48.4391 30.5408 43.1041 39.5494 40.8663 50.2916C39.4393 57.2262 39.3582 64.4363 38.8555 71.5491C38.5798 75.4215 37.3312 78.6458 34.1529 81.0437C32.5638 82.2427 31.0557 83.5551 29.5314 84.8351C25.1531 88.4968 22.51 92.9363 22.9316 98.8826C23.4829 106.627 30.099 110.743 38.6447 108.896C38.4015 108.572 38.1582 108.264 37.9312 107.972C33.6502 102.496 31.7205 96.355 32.6611 89.4204C32.9529 87.2169 33.7151 86.585 35.9042 86.4553C36.2934 86.4391 36.6988 86.2447 37.0393 86.0503C39.4717 84.5597 41.8068 82.8584 44.3527 81.5946C46.3797 80.5901 48.6661 80.0878 51.0336 79.3101C48.4877 74.417 51.6984 70.0099 51.9903 65.376C51.6822 65.295 51.5039 65.2464 51.3255 65.1978C50.2877 64.9223 48.9418 64.8737 49.1201 63.3345C49.2985 61.8763 50.612 61.9249 51.6822 61.8925C53.8065 61.8277 55.947 61.7143 58.055 61.8925C62.4009 62.2327 66.7467 62.6702 71.0763 63.2697C71.8385 63.3831 72.4547 64.5173 73.1357 65.1654C72.406 65.6676 71.6763 66.1699 70.9466 66.6884C70.2331 67.2069 69.2277 67.5795 68.9034 68.2762C67.2656 71.9056 67.4116 75.5187 69.5196 78.9536C69.8764 79.5369 70.4926 80.0392 71.1088 80.347C73.8979 81.7728 76.7194 83.15 79.541 84.511C80.3193 84.8837 81.1626 85.2402 82.0058 85.386C86.2868 86.0989 89.7407 88.2538 91.5731 92.11C92.6109 94.2811 93.6812 95.9661 95.8541 97.0355C96.8595 97.5378 97.7189 98.6558 96.8757 99.7089C96.4379 100.244 95.0109 100.438 94.2325 100.163C91.9299 99.3849 89.7245 98.2993 87.4867 97.3271C83.9193 95.7717 80.5626 96.5008 77.3032 98.1697ZM77.4492 93.7464C77.4167 93.5682 77.3843 93.39 77.3356 93.2117C63.6333 95.3829 49.9796 96.2416 36.634 91.2674C35.9853 98.7854 39.9095 106.336 46.4445 109.479C55.5254 113.837 64.4441 112.719 73.2006 108.118C71.1898 105.639 71.1736 103.678 72.8276 101.151C73.2168 100.568 73.4438 99.6441 73.3141 98.9798C72.9412 97.2137 73.4601 95.9499 74.9681 95.0588C75.7627 94.5727 76.6221 94.1677 77.4492 93.7464ZM58.9469 65.7487C55.7524 65.538 55.7686 65.538 55.1848 68.2276C54.8768 69.6048 54.3092 70.9496 54.2281 72.343C54.1308 74.1415 53.92 76.1668 54.6011 77.7546C56.0767 81.2544 55.8659 84.4786 54.3254 87.8001C53.8876 88.7723 53.6281 89.8092 53.2065 91.0244C54.6335 91.0244 55.7686 91.0244 56.9686 91.0244C57.3578 89.5662 57.6496 88.0432 58.1361 86.6012C59.0928 83.7657 59.3036 80.9627 58.201 78.1273C57.1307 75.3891 57.1794 72.6023 57.9253 69.7993C58.2821 68.4707 58.5902 67.1583 58.9469 65.7487ZM66.0332 65.6676C64.6062 65.9431 62.7252 65.9431 62.5955 66.3968C61.6874 69.7345 60.0982 73.0721 61.5739 76.6853C63.0495 80.3146 62.6766 83.9764 61.5414 87.6219C61.2171 88.6751 61.0063 89.7768 60.7144 90.911C61.9793 90.911 62.8873 90.911 63.4063 90.911C64.2657 88.9343 64.9143 87.2168 65.7413 85.5804C66.6819 83.6847 66.99 81.87 65.9197 79.9096C65.3684 78.905 65.0279 77.787 64.736 76.6691C63.8117 73.0559 64.4765 69.5724 66.0332 65.6676ZM52.2011 83.2311C47.8391 84.6407 43.7689 85.5642 39.8447 88.5292C43.3959 89.3556 46.4121 90.0523 49.3471 90.7328C50.3201 88.2052 51.1795 85.9207 52.2011 83.2311ZM70.1682 84.3004C69.1791 86.4877 68.271 88.4806 67.1683 90.8948C71.0115 90.2467 74.433 89.6634 77.8545 89.0801C77.9032 88.8857 77.968 88.6913 78.0167 88.4968C75.7627 86.3743 72.9574 85.2726 70.1682 84.3004ZM83.6598 92.1748C84.7949 92.3368 85.8976 92.4826 87.0003 92.6447C87.0814 92.4988 87.1462 92.3692 87.2273 92.2234C86.1246 91.4781 85.0381 90.7328 83.6436 89.8092C83.6598 90.8948 83.6598 91.4619 83.6598 92.1748Z" fill="white"/>
<path d="M77.3013 98.1701C80.5607 96.5012 83.9174 95.7883 87.5173 97.3276C89.7551 98.2835 91.9604 99.3691 94.2631 100.163C95.0414 100.422 96.4684 100.244 96.9063 99.7093C97.7495 98.6562 96.89 97.5382 95.8847 97.0359C93.728 95.9666 92.6415 94.2977 91.6037 92.1104C89.7713 88.2704 86.3335 86.0993 82.0364 85.3864C81.1931 85.2406 80.3499 84.8841 79.5715 84.5115C76.7338 83.1667 73.9284 81.7895 71.1393 80.3474C70.5231 80.0396 69.9069 79.5211 69.5502 78.954C67.4421 75.5191 67.2962 71.8898 68.934 68.2766C69.2421 67.5799 70.2637 67.1911 70.9772 66.6888C71.6907 66.1703 72.4366 65.668 73.1663 65.1658C72.4852 64.5015 71.869 63.3673 71.1069 63.2701C66.7935 62.6706 62.4314 62.2331 58.0856 61.8929C55.9775 61.7309 53.837 61.8443 51.7128 61.8929C50.6425 61.9253 49.3128 61.8605 49.1507 63.3349C48.9723 64.8579 50.3182 64.9227 51.356 65.1982C51.5344 65.2468 51.7128 65.2954 52.0209 65.3764C51.7128 70.0103 48.5183 74.4174 51.0641 79.3105C48.6966 80.0882 46.4102 80.5905 44.3832 81.595C41.8374 82.8588 39.5023 84.5601 37.0699 86.0507C36.7294 86.2613 36.324 86.4395 35.9348 86.4557C33.7456 86.5854 32.9835 87.2173 32.6916 89.4208C31.7511 96.3716 33.6808 102.512 37.9618 107.973C38.205 108.28 38.432 108.572 38.6753 108.896C30.1295 110.743 23.5297 106.628 22.9621 98.883C22.5405 92.9367 25.1675 88.481 29.562 84.8355C31.0863 83.5555 32.5943 82.2431 34.1835 81.0441C37.3618 78.6462 38.6104 75.4381 38.8861 71.5495C39.3888 64.4529 39.4698 57.2266 40.8968 50.292C43.1184 39.566 48.4534 30.5574 59.1883 26.0694C67.734 22.5048 76.4743 22.4886 85.1336 25.8101C90.6469 27.9326 93.9388 32.2911 96.2738 37.4921C99.1603 43.9406 100.101 50.7942 100.295 57.7613C100.409 61.7471 100.458 65.7491 100.279 69.7186C100.117 73.2994 101.366 76.2482 103.668 78.8568C105.452 80.8821 107.398 82.7778 109.036 84.9327C112.311 89.2426 113.738 94.1519 113.122 99.5959C112.473 105.283 107.463 110.371 100.587 111.926C93.0145 113.66 86.0579 111.926 79.685 107.616C78.8256 107.033 77.95 106.498 77.1554 105.85C76.7176 105.494 76.4581 104.926 76.1338 104.44C76.7014 104.1 77.2851 103.452 77.8202 103.484C80.3175 103.647 82.8147 103.922 85.2795 104.311C86.366 104.489 87.4362 104.538 87.5497 103.355C87.6308 102.61 86.9984 101.297 86.3984 101.07C84.2579 100.276 81.9715 99.8227 79.7337 99.2719C78.9391 99.0774 78.1446 98.9316 77.3338 98.7696C77.3013 98.5589 77.3013 98.3645 77.3013 98.1701ZM76.3122 48.4773C76.3122 45.7877 74.8365 43.649 72.9555 43.6166C71.0258 43.5842 69.3718 45.5285 69.3556 47.8292C69.3394 50.5188 70.7826 52.3011 73.0204 52.3659C74.9176 52.4469 76.3122 50.8104 76.3122 48.4773ZM58.9288 47.0191C58.9775 44.6859 57.8261 43.2925 55.8154 43.2439C53.8046 43.1953 52.2965 44.8642 52.2479 47.1811C52.1992 49.6601 53.3506 51.2479 55.264 51.3289C57.3397 51.3937 58.8802 49.5953 58.9288 47.0191Z" fill="#A46230"/>
<path d="M77.4487 93.7465C76.6217 94.184 75.7623 94.5729 74.9515 95.0589C73.4434 95.9501 72.9245 97.2139 73.2975 98.9799C73.4434 99.6442 73.2002 100.568 72.811 101.151C71.157 103.662 71.1894 105.639 73.1839 108.118C64.4274 112.72 55.5087 113.838 46.4279 109.479C39.9091 106.352 35.9849 98.8017 36.6173 91.2676C49.9629 96.2579 63.6166 95.383 77.319 93.2119C77.3838 93.3901 77.4163 93.5683 77.4487 93.7465Z" fill="#A46230"/>
<path d="M58.9474 65.749C58.5907 67.1748 58.2826 68.471 57.9258 69.7672C57.1799 72.5702 57.1312 75.357 58.2015 78.0952C59.3042 80.9307 59.0934 83.7337 58.1366 86.5691C57.6502 88.0111 57.3421 89.5179 56.9691 90.9924C55.7853 90.9924 54.6502 90.9924 53.207 90.9924C53.6124 89.7772 53.8719 88.7402 54.3259 87.7681C55.8502 84.4466 56.0772 81.2223 54.6016 77.7226C53.9367 76.1347 54.1313 74.1094 54.2286 72.311C54.3097 70.9338 54.8773 69.5728 55.1854 68.1956C55.7691 65.5222 55.7691 65.5222 58.9474 65.749Z" fill="#A46230"/>
<path d="M66.033 65.668C64.4763 69.5728 63.8115 73.0563 64.752 76.6856C65.0439 77.7874 65.3844 78.9215 65.9357 79.9261C67.006 81.9028 66.6979 83.7013 65.7574 85.5969C64.9466 87.2334 64.2817 88.9508 63.4223 90.9275C62.9034 90.9275 61.9791 90.9275 60.7305 90.9275C61.0061 89.7772 61.2169 88.6916 61.5575 87.6384C62.6926 83.9929 63.0655 80.3312 61.5899 76.7018C60.1143 73.0725 61.7034 69.751 62.6115 66.4133C62.7088 65.9434 64.606 65.9434 66.033 65.668Z" fill="#A46230"/>
<path d="M52.1996 83.2314C51.1942 85.9048 50.3186 88.1894 49.3618 90.7332C46.4106 90.0527 43.3944 89.356 39.8594 88.5296C43.7512 85.5646 47.8213 84.6411 52.1996 83.2314Z" fill="#A46230"/>
<path d="M70.1679 84.3008C72.957 85.2729 75.7785 86.3747 78.0163 88.481C77.9677 88.6754 77.9028 88.8699 77.8542 89.0643C74.4326 89.6476 71.0111 90.2309 67.168 90.879C68.2544 88.481 69.1625 86.4881 70.1679 84.3008Z" fill="#A46230"/>
<path d="M83.6602 92.1751C83.6602 91.4784 83.6602 90.9113 83.6602 89.8096C85.0385 90.7493 86.1412 91.4784 87.2438 92.2237C87.1628 92.3695 87.0979 92.4992 87.0168 92.645C85.8979 92.483 84.779 92.3209 83.6602 92.1751Z" fill="#A46230"/>
<path d="M76.3161 48.4768C76.3161 50.8099 74.9216 52.4626 73.0243 52.3815C70.7865 52.3005 69.3433 50.5183 69.3595 47.8449C69.3757 45.5441 71.0297 43.5998 72.9594 43.6322C74.8405 43.6484 76.3161 45.7872 76.3161 48.4768Z" fill="white"/>
<path d="M58.9291 47.019C58.8804 49.5951 57.3399 51.3936 55.2481 51.3126C53.3508 51.2316 52.1833 49.6599 52.2319 47.1648C52.2806 44.864 53.7886 43.179 55.7994 43.2276C57.8264 43.2924 58.9777 44.6858 58.9291 47.019Z" fill="white"/>
</svg>
