<svg width="18" height="21" viewBox="0 0 18 21" fill="none" xmlns="http://www.w3.org/2000/svg">
<path d="M0.785261 17.6715C-0.943192 14.3033 0.232978 9.02049 3.80869 5.06798C7.86927 0.581357 13.4839 -0.488276 16.3506 2.67895C16.3539 2.6831 16.3567 2.6878 16.3613 2.69201C15.7876 4.53655 13.9606 8.46124 8.48416 10.5831C3.46746 12.5279 1.53226 15.6198 0.785261 17.6715ZM17.1568 3.83198C16.7223 4.95213 15.966 6.41599 14.663 7.85581C13.3532 9.30381 11.4917 10.7259 8.85487 11.748C3.50323 13.8218 2.00797 17.2168 1.59078 18.862C1.61048 18.8839 1.62743 18.9067 1.64659 18.9281C4.51295 22.0954 10.1278 21.0258 14.1881 16.5385C17.801 12.5459 18.963 7.19462 17.1568 3.83198Z" fill="#F4E3B3"/>
</svg>
