<svg width="72" height="72" viewBox="0 0 72 72" fill="none" xmlns="http://www.w3.org/2000/svg">
<path d="M29.1923 35.8263L29.2052 35.82L29.2176 35.8131C31.8011 34.3673 34.0495 32.3886 35.8188 30.0098C36.3603 31.2824 37.1155 32.4538 38.0534 33.4714C39.2043 34.72 40.6043 35.7086 42.1612 36.3718C45.0391 37.7753 48.0506 38.8803 51.1495 39.6698C54.0571 40.4919 57.1044 41.1991 60.2513 41.9281C60.2464 41.9727 60.237 42.0254 60.2219 42.0837C60.2015 42.1623 60.1752 42.2327 60.1497 42.2871C57.8567 42.2909 56.6746 42.3644 55.4954 42.4377L55.4919 42.4379C54.2911 42.5126 53.0919 42.587 50.6852 42.587H41.062C38.6769 42.587 37.4863 42.5056 36.2886 42.4237L36.2807 42.4231C35.0677 42.3402 33.8451 42.257 31.409 42.257C29.0178 42.257 27.836 42.117 26.6454 41.9759L26.6413 41.9754C25.4275 41.8316 24.2034 41.687 21.756 41.687H21.7276H21.6994H21.6713H21.6434H21.6155H21.5877H21.5601H21.5325H21.5051H21.4778H21.4506H21.4234H21.3964H21.3695H21.3427H21.316H21.2895H21.263H21.2366H21.2103H21.1841H21.1581H21.1321H21.1062H21.0805H21.0548H21.0292H21.0038H20.9784H20.9531H20.928H20.9029H20.8779H20.8531H20.8283H20.8036H20.779H20.7545H20.7301H20.7058H20.6816H20.6575H20.6335H20.6095H20.5857H20.5619H20.5383H20.5147H20.4913H20.4679H20.4446H20.4214H20.3983H20.3752H20.3523H20.3295H20.3067H20.284H20.2614H20.2389H20.2165H20.1942H20.1719H20.1497H20.1277H20.1057H20.0838H20.0619H20.0402H20.0185H19.9969H19.9754H19.954H19.9326H19.9113H19.8902H19.869H19.848H19.8271H19.8062H19.7854H19.7646H19.744H19.7234H19.7029H19.6825H19.6621H19.6419H19.6216H19.6015H19.5815H19.5615H19.5415H19.5217H19.5019H19.4822H19.4626H19.443H19.4235H19.4041H19.3847H19.3654H19.3462H19.327H19.3079H19.2889H19.27H19.2511H19.2322H19.2135H19.1947H19.1761H19.1575H19.139H19.1205H19.1022H19.0838H19.0655H19.0473H19.0292H19.0111H18.993H18.9751H18.9571H18.9393H18.9215H18.9037H18.886H18.8684H18.8508H18.8333H18.8158H18.7984H18.781H18.7637H18.7465H18.7293H18.7121H18.695H18.678H18.661H18.644H18.6271H18.6102H18.5934H18.5767H18.56H18.5433H18.5267H18.5101H18.4936H18.4771H18.4607H18.4443H18.428H18.4117H18.3954H18.3792H18.3631H18.3469H18.3309H18.3148H18.2988H18.2829H18.2669H18.2511H18.2352H18.2194H18.2037H18.1879H18.1722H18.1566H18.141H18.1254H18.1099H18.0943H18.0789H18.0634H18.048H18.0327H18.0173H18.002H17.9867H17.9715H17.9563H17.9411H17.926H17.9108H17.8958H17.8807H17.8657H17.8507H17.8357H17.8207H17.8058H17.7909H17.7761H17.7612H17.7464H17.7316H17.7168H17.7021H17.6874H17.6727H17.658H17.6434H17.6287H17.6141H17.5995H17.585H17.5704H17.5559H17.5414H17.5269H17.5124H17.498H17.4835H17.4691H17.4547H17.4403H17.4259H17.4116H17.3972H17.3829H17.3686H17.3543H17.34H17.3257H17.3115H17.2972H17.283H17.2688H17.2546H17.2403H17.2262H17.212H17.1978H17.1836H17.1695H17.1553H17.1411H17.127H17.1129H17.0987H17.0846H17.0705H17.0564H17.0423H17.0282H17.014H16.9999H16.9858H16.9717H16.9576H16.9435H16.9295H16.9154H16.9013H16.8872H16.8731H16.859H16.8449H16.8307H16.8166H16.8025H16.7884H16.7743H16.7602H16.746H16.7319H16.7178H16.7036H16.6895H16.6753H16.6611H16.6469H16.6327H16.6186H16.6043H16.5901H16.5759H16.5617H16.5474H16.5332H16.5189H16.5046H16.4903H16.476H16.4617H16.4473H16.433H16.4186H16.4042H16.3898H16.3754H16.3609H16.3465H16.332H16.3175H16.303H16.2885H16.2739H16.2594H16.2448H16.2302H16.2155H16.2009H16.1862H16.1715H16.1568H16.1421H16.1273H16.1125H16.0977H16.0828H16.068H16.0531H16.0382H16.0232H16.0082H15.9932H15.9782H15.9631H15.9481H15.9329H15.9178H15.9026H15.8874H15.8722H15.8569H15.8416H15.8262H15.8109H15.7955H15.78H15.7646H15.749H15.7335H15.7179H15.7023H15.6867H15.671H15.6552H15.6395H15.6237H15.6078H15.592H15.576H15.5601H15.5441H15.528H15.512H15.4958H15.4797H15.4635H15.4472H15.4309H15.4146H15.3982H15.3818H15.3653H15.3488H15.3322H15.3156H15.2989H15.2822H15.2655H15.2487H15.2318H15.2149H15.1979H15.1809H15.1639H15.1468H15.1296H15.1124H15.0952H15.0779H15.0605H15.0431H15.0256H15.0081H14.9905H14.9729H14.9552H14.9374H14.9196H14.9018H14.8838H14.8659H14.8478H14.8297H14.8116H14.7934H14.7751H14.7568H14.7384H14.7199H14.7014H14.6828H14.6642H14.6455H14.6267H14.6078H14.5889H14.57H14.551H14.5319H14.5127H14.4935H14.4742H14.4548H14.4354H14.4159H14.3963H14.3767H14.357H14.3372H14.3174H14.2974H14.2774H14.2574H14.2373H14.217H14.1968H14.1764H14.156H14.1355H14.1149H14.0943H14.0735H14.0527H14.0319H14.0109H13.9899H13.9687H13.9476H13.9263H13.9049H13.8835H13.862H13.8404H13.8187H13.797H13.7752H13.7532H13.7312H13.7092H13.687H13.6647H13.6424H13.6203C16.0061 40.942 18.3598 40.0952 20.6751 39.1489C23.5981 38.2747 26.4464 37.1635 29.1923 35.8263Z" fill="white" stroke="black"/>
<path d="M12.2141 42.0959C17.2508 40.8099 22.1878 39.1872 26.9891 37.2397C28.6143 36.5298 34.2879 31.56 35.4994 31.418C35.4994 31.418 38.4544 34.627 39.2227 35.1098C42.2914 37.094 45.7037 38.5365 49.2992 39.3697C52.6679 40.3352 61.267 41.1304 53.4953 41.386C48.8855 41.528 44.2167 41.5564 39.6364 41.386C35.0562 41.2156 15.9965 37.6373 13.0415 41.5564C13.928 40.4772 12.0073 39.3981 11.1208 40.4772L10.7662 40.9316C10.2934 41.528 10.7662 42.2663 11.4458 42.4935C15.435 43.9987 22.4384 42.6923 26.7527 42.9479C32.8202 43.3266 38.8878 43.5159 44.9554 43.5159C47.9104 43.5159 62.6853 45.8162 61.6511 40.676C61.6069 40.4965 61.5117 40.3324 61.376 40.202C61.2403 40.0716 61.0695 39.9801 60.8828 39.9376C53.1112 38.2053 40.5525 36.7854 37.0656 28.8053C37.0058 28.5981 36.883 28.4128 36.7129 28.2732C36.5429 28.1336 36.3333 28.0459 36.111 28.0215C35.8888 27.9971 35.664 28.037 35.4656 28.1362C35.2671 28.2354 35.104 28.3892 34.9971 28.5781C29.8554 35.3654 19.8675 37.7793 11.7709 39.9376C11.473 39.9941 11.2108 40.162 11.0418 40.4043C10.8727 40.6466 10.8108 40.9436 10.8696 41.2298C10.9284 41.516 11.103 41.768 11.3552 41.9305C11.6073 42.0929 11.9163 42.1524 12.2141 42.0959Z" fill="#01414F"/>
<path d="M54.9255 47.2378L44.7249 47.6955C41.3147 47.6955 37.9943 47.9243 34.4644 47.6955C30.9346 47.4666 27.7039 46.9804 24.4732 47.0376C21.1148 47.3687 17.7368 47.4834 14.3623 47.3808L14.452 47.2378C17.7416 46.256 21.1006 45.5008 24.5031 44.9782C27.9661 44.9152 31.4236 45.2708 34.7935 46.0365C38.0541 46.4083 41.5241 46.3511 44.9044 46.6085L55.0751 47.0376L54.9255 47.2378Z" fill="#01414F"/>
<path d="M52.2045 48.6206L45.1034 49.248C42.7464 49.248 40.3594 49.7577 38.0024 50.0714C35.6086 50.6104 33.1731 50.7553 30.7521 50.5028C28.3942 49.9289 26.0783 49.0893 23.8301 47.9932V47.7971C26.2468 47.7971 28.6337 48.3461 30.9311 48.5814C33.2285 48.8166 35.5558 48.5814 37.9427 48.5814C40.3296 48.5814 42.6867 48.2677 45.0736 48.3461H52.2343L52.2045 48.6206Z" fill="#01414F"/>
<path d="M68.0154 39.3188C68.6439 40.0292 69.0571 40.8904 69.2102 41.8093C69.3633 42.7281 69.2505 43.6695 68.884 44.5314C68.5482 45.3904 68.1058 46.2077 67.5661 46.9658C67.0869 47.6818 66.6076 48.3692 66.0685 49.0852C64.9891 50.5501 63.6983 51.8614 62.2345 52.9803C60.717 54.04 59.0269 54.8529 57.2324 55.3861C50.4803 57.6987 43.4229 59.0965 36.2656 59.539C34.5583 59.6822 32.821 59.9972 30.9639 60.0259C29.0594 60.1124 27.1536 59.8798 25.3328 59.3385C23.5656 58.823 21.8883 58.1356 20.2708 57.5628C18.6534 56.99 17.0959 56.5031 15.3586 55.9876C13.5359 55.4288 11.8173 54.5975 10.2666 53.5245C8.79374 52.4564 7.43884 51.2472 6.22302 49.9158C4.88849 48.5923 3.86701 47.01 3.22775 45.2761C2.97217 44.395 2.93107 43.4697 3.10761 42.5711C3.28414 41.6725 3.67362 40.8245 4.24615 40.0921H4.51572C4.2093 40.8246 4.06444 41.6098 4.09022 42.3983C4.11599 43.1869 4.31183 43.9618 4.66548 44.6746C5.49062 46.0404 6.56609 47.2531 7.84047 48.2547C9.06696 49.3319 10.4013 50.2912 11.8242 51.1187C13.2062 51.9422 14.711 52.5602 16.2871 52.9517C18.0193 53.4366 19.7197 54.02 21.3791 54.6988C23.0265 55.3861 24.584 56.1021 26.1715 56.6463C29.4248 57.5719 32.8134 57.9878 36.2057 57.8778C39.6775 58.2944 43.2015 58.0412 46.5693 57.1332C49.8927 56.048 53.1266 54.7269 56.244 53.1808C57.7576 52.5484 59.2108 51.7914 60.5872 50.9182C61.9228 49.9779 63.1391 48.8917 64.2114 47.6818C65.3826 46.5123 66.445 45.2473 67.3864 43.9013C67.8313 43.2491 68.095 42.4992 68.1526 41.7225C68.2102 40.9458 68.0599 40.1678 67.7159 39.4621L68.0154 39.3188Z" fill="#01414F"/>
<path d="M37.9861 12.118C37.9861 13.5341 39.5013 14.1536 39.9256 15.9238C39.9022 16.3492 39.7844 16.7646 39.5804 17.1414C39.3764 17.5183 39.0909 17.8477 38.7437 18.1069C38.1516 18.5759 37.5235 19 36.8649 19.3755C35.7027 19.7418 34.7345 20.537 34.1679 21.5906C33.6013 22.6441 33.4816 23.8719 33.8345 25.0104C34.1758 26.1697 34.8738 27.1993 35.8345 27.9606C36.2594 28.3103 36.7406 28.5894 37.2588 28.7866C37.7909 28.9636 38.2775 29.2503 38.6854 29.627C39.0934 30.0038 39.413 30.4618 39.6225 30.9698C39.9212 31.9433 39.8568 32.9882 39.4407 33.92C39.1347 34.6319 38.7592 35.3135 38.3195 35.9556C37.4315 37.0269 36.6118 38.15 35.8648 39.3188H35.683C35.5853 37.8479 35.8341 36.3746 36.4103 35.0115C36.8649 33.7725 37.1376 32.2679 36.8649 32.0614C36.5921 31.8548 36.8649 31.8843 36.1073 31.5598C35.3008 31.1935 34.5792 30.6716 33.986 30.0257C32.8224 28.8333 32.0156 27.3542 31.6526 25.7479C31.4022 24.9226 31.3402 24.0539 31.4711 23.2029C31.602 22.3518 31.9225 21.5388 32.4102 20.8211C33.3619 19.5577 34.6816 18.6018 36.1982 18.0774C37.38 17.5759 38.8952 16.9268 39.0165 15.9828C39.1377 15.0387 37.5922 13.6816 37.6831 12.1475C37.6831 12.1084 37.699 12.0709 37.7275 12.0432C37.7559 12.0155 37.7944 12 37.8346 12C37.8748 12 37.9133 12.0155 37.9417 12.0432C37.9702 12.0709 37.9861 12.1084 37.9861 12.1475V12.118Z" fill="#01414F"/>
</svg>
