<svg width="137" height="45" viewBox="0 0 137 45" fill="none" xmlns="http://www.w3.org/2000/svg">
<path d="M16.9854 14.0303C16.9995 13.7317 17.102 13.4439 17.2798 13.2033C17.4577 12.9628 17.703 12.7802 17.9847 12.6788C18.5822 12.401 19.1633 12.0894 19.7253 11.7456C20.0875 11.5151 20.4774 11.3313 20.8857 11.1985C21.1065 11.1299 21.3099 11.0147 21.4821 10.8606L21.8689 10.4745V9.92742C21.7238 9.92742 21.6593 9.76652 21.5626 9.68607C21.2259 9.45639 20.8485 9.29259 20.4506 9.20338C20.096 9.09075 19.7253 9.07466 19.3869 8.94594C19.2967 8.92528 19.203 8.92528 19.1129 8.94594C18.584 8.81731 18.0446 8.73653 17.5012 8.70459L17.34 8.54369C17.0259 8.48765 16.7081 8.45538 16.3891 8.44715C16.1151 8.28626 15.7767 8.33453 15.4866 8.20581C15.1965 8.07709 15.0837 8.20581 15.0031 7.94837C15.0031 7.94837 14.8419 7.94837 14.7774 7.94837C14.713 7.94837 14.31 7.77138 14.0683 7.77138H13.9877C13.8749 7.53004 13.5525 7.5783 13.4236 7.36914C13.2167 7.29006 13.0283 7.16924 12.8702 7.01421C12.7122 6.85918 12.5878 6.67327 12.505 6.46811C12.505 6.46811 12.505 6.46811 12.4244 6.37157C12.1887 6.14004 11.9975 5.86738 11.8603 5.56708C11.7495 5.3462 11.6838 5.10556 11.6669 4.85912C11.6123 4.74337 11.584 4.617 11.584 4.48906C11.584 4.36112 11.6123 4.23475 11.6669 4.11899C11.6768 4.09309 11.6768 4.06445 11.6669 4.03855C11.6851 3.51854 11.8781 3.01979 12.2148 2.62264C12.5374 2.14476 12.9161 1.70721 13.343 1.31936C13.6419 1.12094 13.9543 0.943525 14.2778 0.788401C14.8235 0.46381 15.416 0.225029 16.0345 0.0804486H16.2602C16.392 0.116763 16.5313 0.116763 16.6631 0.0804486C16.7598 0.0804486 16.921 0.0804486 17.066 0.0804486C17.2111 0.0804486 17.2917 0.0804486 17.4045 0.0804486H18.307C18.4117 0.0648685 18.5144 0.0378919 18.6132 0C18.6132 0 18.6132 0.0804486 18.7099 0.0804486C19.0337 0.0958675 19.3565 0.128091 19.677 0.176987C19.7785 0.162465 19.8816 0.162465 19.9832 0.176987C20.3958 0.259072 20.7929 0.405686 21.1597 0.611413C21.6689 0.924666 22.1302 1.3094 22.5297 1.75379C22.655 1.93119 22.7528 2.12647 22.8198 2.33302V2.39738L22.6747 2.54219C22.1215 2.21638 21.4954 2.03386 20.8535 2.01123C20.1976 1.98673 19.5427 2.07936 18.9195 2.28475L18.4198 2.94444C18.3908 3.21503 18.4204 3.48869 18.5066 3.74686C18.5928 4.00503 18.7336 4.24169 18.9195 4.44079C19.0699 4.65117 19.269 4.82226 19.4997 4.93957C20.0064 5.21595 20.5487 5.42167 21.1114 5.55099C21.4778 5.6283 21.8386 5.73044 22.1912 5.85669C22.3363 5.85669 22.4974 5.85669 22.6264 5.98541C22.94 5.99604 23.25 6.05577 23.545 6.1624C23.9181 6.23428 24.2846 6.33652 24.641 6.46811C25.0112 6.61127 25.3718 6.77787 25.7208 6.96689C26.0775 7.13367 26.4085 7.35038 26.7039 7.61048C26.9689 7.86127 27.1968 8.1484 27.3808 8.46325C27.4876 8.63253 27.5487 8.82654 27.5581 9.02639C27.6413 9.6374 27.5225 10.2588 27.2197 10.7963C27.0466 10.9573 26.89 11.1352 26.7523 11.3272C26.6952 11.4086 26.6243 11.4794 26.5428 11.5364C25.7822 11.998 24.9905 12.4065 24.1736 12.7592C24.1736 12.7592 19.5641 14.6096 19.951 16.2507C19.8215 16.4782 19.634 16.6674 19.4075 16.799C19.1811 16.9307 18.9237 17 18.6616 17C18.3995 17 18.1421 16.9307 17.9157 16.799C17.6892 16.6674 17.5017 16.4782 17.3722 16.2507C17.1957 15.5196 17.0665 14.778 16.9854 14.0303Z" fill="#FCD376"/>
<path d="M66.0121 18.4535C65.4463 18.8522 64.7685 19.0605 64.0766 19.0483C63.9503 18.9591 63.8452 18.8432 63.7688 18.7087C63.6925 18.5743 63.6466 18.4247 63.6346 18.2705C63.6152 18.1386 63.5686 18.0122 63.4978 17.8993C63.4269 17.7864 63.3334 17.6895 63.2231 17.6148H62.4915C62.325 17.9031 62.2309 18.2275 62.2172 18.5603C62.2172 18.728 62.2172 18.911 62.141 19.0635C62.0648 19.216 61.9734 19.3838 61.8362 19.46C61.6592 19.5613 61.4607 19.6188 61.2571 19.6278C60.937 19.6278 60.6017 19.6278 60.2664 19.6278C60.175 19.5363 60.0988 19.4448 60.0073 19.3685C59.9148 19.2743 59.8427 19.1621 59.7955 19.0387C59.7483 18.9154 59.727 18.7837 59.733 18.6518V14.9613C59.7434 14.753 59.7434 14.5443 59.733 14.336C59.9159 14.0158 59.733 13.5735 59.733 13.1618C59.7102 12.7249 59.7102 12.2871 59.733 11.8503C59.733 11.4538 59.3977 11.0573 59.733 10.6455C59.4587 10.554 59.733 10.371 59.733 10.2338C59.733 10.0965 59.9464 9.92876 59.733 9.83726C59.7832 9.65741 59.8189 9.47382 59.8397 9.28826V5.33851C59.8491 5.19634 59.8491 5.05369 59.8397 4.91151L59.9616 4.08801L60.3883 3.52376C60.836 3.488 61.2864 3.5398 61.7143 3.67626C62.0953 3.79826 62.4915 3.88976 62.903 3.98126L63.5736 4.13376C63.885 3.94274 64.1421 3.67494 64.3204 3.35601C64.3204 3.21876 64.61 3.14251 64.7319 3.05101L65.5397 3.27976L65.753 3.35601C66.0121 3.35601 66.2255 3.60001 66.515 3.66101C66.7448 3.77546 66.9556 3.92462 67.1399 4.10326L67.4142 3.92026C67.3797 3.66311 67.3288 3.40843 67.2618 3.15776C67.1552 2.85276 67.079 2.54776 67.0028 2.24276C66.9265 1.93776 67.1704 1.69376 67.0028 1.41926C67.2945 1.29955 67.5952 1.20268 67.9019 1.12951C67.9968 1.0649 68.1053 1.02304 68.2189 1.00717C68.3326 0.991302 68.4484 1.00186 68.5573 1.03801C68.8395 1.11808 69.1333 1.14903 69.426 1.12951C69.8203 1.28731 70.1669 1.54478 70.4319 1.87676C70.4909 2.04997 70.5318 2.22885 70.5538 2.41051C70.5304 2.55642 70.4786 2.69632 70.4014 2.82226L70.1423 3.26451V5.47576L70.5386 6.05526L70.6605 5.76551H71.2091C71.8035 5.38426 72.0017 4.63701 72.7332 4.34726H73.1447C73.9309 4.90015 74.6035 5.59907 75.126 6.40601V6.83301L74.4097 7.83951C74.5163 8.76976 74.2268 9.68476 74.2877 10.615C74.2877 11.0878 74.2877 11.5758 74.2877 12.0485C74.2754 12.1549 74.2754 12.2624 74.2877 12.3688L74.1049 12.7195L74.3639 12.8263L74.1353 12.9025C74.2268 14.0768 73.9524 15.2358 74.0134 16.41C73.7848 17.0505 74.0134 17.7673 73.6781 18.4078C73.5714 18.606 73.6781 18.911 73.6781 19.1703C73.661 19.3726 73.6201 19.5723 73.5562 19.765C73.4932 19.8668 73.4162 19.9592 73.3276 20.0395C73.3466 20.2677 73.3139 20.4972 73.2321 20.7111C73.1504 20.9249 73.0215 21.1176 72.8551 21.2748V21.473C72.3065 21.656 72.215 22.2813 71.7426 22.5405L71.0415 22.815H70.4471C70.2827 22.6672 70.1615 22.4774 70.0966 22.266C69.8793 21.8282 69.6024 21.4228 69.2736 21.0613C69.0895 20.8666 68.9213 20.6575 68.7707 20.436C68.7262 20.3135 68.7006 20.185 68.6944 20.0548C68.9589 19.7536 69.32 19.554 69.7156 19.4905C69.9084 19.4655 70.0919 19.3924 70.249 19.2778C70.4062 19.1632 70.5319 19.0108 70.6148 18.8348C70.901 18.2709 71.0621 17.6519 71.0872 17.02C71.1061 16.8527 71.1471 16.6886 71.2091 16.532C71.1704 16.2282 71.1704 15.9208 71.2091 15.617C71.2542 15.2932 71.2542 14.9648 71.2091 14.641C71.2091 14.3208 71.2091 14.0005 71.2091 13.6955C71.2091 13.3905 71.2091 13.2533 71.2091 13.0398C71.2283 12.9498 71.2591 12.8626 71.3006 12.7805C71.1025 12.5365 71.1939 12.2773 71.3006 12.018C71.2091 11.9113 71.2091 11.6368 71.2091 11.3318L71.4225 11.1945C71.4225 10.9353 71.4225 10.7523 71.3311 10.5693C71.3311 9.88301 71.3311 9.19676 71.3311 8.51051C71.3176 8.27981 71.287 8.05043 71.2396 7.82426L70.9805 7.71751C70.8695 7.66124 70.7468 7.63191 70.6224 7.63191C70.4979 7.63191 70.3752 7.66124 70.2642 7.71751C70.0966 7.71751 70.1728 7.87001 70.1423 7.96151C69.868 8.03776 70.1423 8.37326 69.9289 8.48001C69.7156 8.58676 69.9289 8.55626 69.9289 8.58676L70.0356 8.72401C69.9106 9.17011 69.8743 9.63644 69.9289 10.0965C69.9289 10.5693 69.9289 11.042 69.9289 11.5148C69.9289 11.9875 69.9289 12.506 69.9289 13.0398C69.9289 13.5735 69.7765 14.3055 69.807 14.946C69.807 14.946 69.807 15.0833 69.7156 15.1443C69.6241 15.2053 69.6089 15.5255 69.8223 15.6475C69.7156 15.983 69.5174 16.2575 69.5784 16.593C69.6394 16.9285 69.4565 16.8828 69.4717 17.0048C69.487 17.1268 69.3041 17.2793 69.4717 17.447C69.6394 17.6148 69.3193 17.691 69.2584 17.8283C69.1974 17.9655 69.2584 18.1485 69.1364 18.301C69.077 18.4785 68.9779 18.6402 68.8469 18.7738C68.7097 18.8805 68.9383 19.1855 68.6182 19.1398C68.5367 19.3258 68.4754 19.5201 68.4354 19.7193C68.4354 20.009 68.2068 20.192 68.1458 20.436C68.0848 20.68 68.0391 20.436 67.9629 20.436V20.7258H67.7648V20.9698C67.0405 22.0723 65.967 22.8994 64.7167 23.3183C64.6309 23.256 64.5594 23.1762 64.5069 23.0842C64.4543 22.9922 64.4219 22.89 64.4119 22.7845C64.3972 22.5398 64.4671 22.2975 64.61 22.0983C65.1129 21.3815 65.3568 20.5733 65.814 19.8108C65.814 19.7345 65.814 19.6125 65.814 19.521C65.8908 19.4662 65.9522 19.3925 65.9923 19.307C66.0323 19.2215 66.0496 19.1272 66.0426 19.033C66.2541 18.7923 66.4055 18.5049 66.4846 18.1943C66.6788 17.7316 66.8071 17.2439 66.8656 16.7455C66.8117 16.2794 66.8117 15.8086 66.8656 15.3425C67.0028 14.885 66.8656 14.4123 67.0637 14.0005C67.0637 13.3295 67.2771 12.6585 67.1856 11.9723C67.1705 11.8763 67.1705 11.7785 67.1856 11.6825C67.1856 11.6825 67.2618 11.5605 67.2771 11.5148L67.1704 11.2708L67.4295 11.164L67.1856 11.042C67.1609 10.778 67.1974 10.5118 67.2923 10.2643C67.2923 10.1575 67.1856 9.92876 67.2923 9.80676C67.3457 9.71123 67.3737 9.6036 67.3737 9.49414C67.3737 9.38468 67.3457 9.27705 67.2923 9.18151L67.4142 8.98326L67.1856 8.86126L67.3228 8.70876L67.2009 8.58676C67.4904 8.46476 67.2009 8.35801 67.2009 8.20551C67.2315 8.03916 67.2315 7.86861 67.2009 7.70226H66.5608L66.2712 8.00726V17.5538V17.8588L66.0731 17.9655V18.2553C65.9512 18.2248 66.0274 18.362 66.0121 18.4535ZM62.2172 5.93326C62.2172 8.23601 62.2172 10.5083 62.2172 12.8568C62.2172 13.0093 62.3391 13.2075 62.2172 13.3143C62.0953 13.421 62.2172 13.848 62.1258 13.9853C62.0343 14.1225 62.1258 14.4123 62.1258 14.6105C62.1417 14.7013 62.1417 14.7942 62.1258 14.885C61.9429 15.1748 62.1258 15.4035 62.2477 15.617C62.3696 15.8305 62.7659 15.8915 63.025 15.9678L63.5736 15.5255L63.4517 15.373C63.6498 15.19 63.6041 14.9765 63.6041 14.763V5.99426L63.1164 5.81126C63.0336 5.88214 62.9282 5.92109 62.8192 5.92109C62.7102 5.92109 62.6048 5.88214 62.522 5.81126L62.2172 5.93326Z" fill="#EBB667"/>
<path d="M129.535 13.0549H129.717C130.675 13.065 131.632 13.0141 132.583 12.9024C132.971 12.7173 133.28 12.3977 133.451 12.0027C133.523 11.8576 133.624 11.7287 133.747 11.6238C133.87 11.5189 134.013 11.4403 134.168 11.3927C134.902 11.7634 135.55 12.2827 136.073 12.9177C136.251 13.1882 136.395 13.4803 136.499 13.7869C136.317 14.2292 136.225 14.3359 135.631 14.7324C135.067 14.6562 134.503 14.9307 133.924 14.8392H129.489C129.284 14.8251 129.081 14.7997 128.879 14.7629C128.727 15.1289 128.498 14.7629 128.315 14.7629L128.163 14.9002C127.739 14.7474 127.282 14.7054 126.837 14.7782C126.378 14.7087 125.908 14.7452 125.465 14.8849L125.328 14.7782C124.863 14.9132 124.375 14.9496 123.896 14.8849H122.371C121.897 14.9566 121.413 14.9202 120.954 14.7782C120.466 15.0222 119.948 14.7782 119.43 14.9154C118.912 15.0527 119.323 15.4339 119.278 15.6779C119.378 15.776 119.497 15.8524 119.629 15.9022C119.76 15.9521 119.9 15.9744 120.04 15.9677H123.088L123.164 16.2117C123.671 16.2517 124.181 16.2517 124.688 16.2117C125.141 16.1307 125.6 16.0949 126.06 16.1049H127.584L127.675 16.3794C127.834 16.317 127.997 16.266 128.163 16.2269C128.536 16.1985 128.91 16.2242 129.275 16.3032C129.647 16.38 130.034 16.3483 130.388 16.2117C130.571 16.4404 130.754 16.3489 130.937 16.2117C131.302 16.4557 131.699 16.2117 132.08 16.3489C132.08 16.3489 132.08 16.2117 132.08 16.1812C132.125 16.1681 132.172 16.1681 132.217 16.1812C132.369 16.1812 132.217 16.0287 132.308 15.9524C132.4 15.8762 132.537 15.9524 132.552 15.8304L132.659 15.7084L132.781 15.5864C132.948 15.5864 133.101 15.4949 133.269 15.4797C133.441 15.4644 133.614 15.4644 133.787 15.4797H134.198C134.198 15.7084 134.442 15.5559 134.564 15.6017L134.686 15.7237C134.893 15.9575 135.134 16.1581 135.402 16.3184C135.801 16.59 136.126 16.9569 136.347 17.3859C136.21 17.6299 136.118 17.8892 135.798 17.9959C135.478 18.1027 135.494 18.4077 135.402 18.6517C135.333 18.963 135.287 19.2791 135.265 19.5972C135.209 20.0584 135.092 20.5098 134.914 20.9392C134.732 21.3052 134.61 21.7169 134.457 22.1134C134.327 22.5246 134.097 22.8967 133.787 23.1962C133.642 23.3466 133.489 23.4891 133.329 23.6232C132.468 24.1045 131.468 24.2766 130.495 24.1112C130.321 24.0433 130.171 23.9265 130.063 23.7748C129.955 23.6232 129.893 23.4434 129.885 23.2572L129.306 22.5862C129.069 22.735 128.8 22.8239 128.521 22.8451C128.242 22.8664 127.962 22.8194 127.706 22.7082L127.584 22.9827L127.34 22.8607C126.776 22.7082 126.182 22.5709 126.044 21.8694C125.694 21.778 125.298 21.8694 124.978 21.7169C124.724 21.7872 124.463 21.8281 124.2 21.8389H118.257L118.394 22.0219C118.302 22.1439 118.074 22.2354 118.165 22.4642C118.068 22.6871 117.911 22.879 117.712 23.0189C117.513 23.1587 117.28 23.2412 117.037 23.2572H116.641L116.351 23.0132L116.199 23.3334L115.788 23.0589L115.513 23.2267L115.407 23.1352H115.026C114.937 22.9307 114.875 22.7153 114.843 22.4947C114.739 21.6449 114.703 20.7882 114.736 19.9327C114.721 19.8697 114.689 19.8118 114.645 19.7649L114.858 19.3684V18.5144L115.407 18.0112C115.772 17.9197 116.092 18.3162 116.595 18.2247L116.108 17.8587C116.04 17.3935 116.04 16.9209 116.108 16.4557V13.2532C116.108 12.9329 116.108 12.6127 116.108 12.3077C116.108 12.0027 116.001 11.6367 116.199 11.3317C116.124 11.2047 116.084 11.0599 116.084 10.9123C116.084 10.7648 116.124 10.6199 116.199 10.4929C116.016 10.2337 116.199 9.9592 116.199 9.6847C116.199 9.4102 116.199 9.1357 116.199 8.8612C116.199 8.5867 116.199 8.26645 116.199 7.9767V4.3777C116.211 4.28149 116.211 4.18416 116.199 4.08795L116.321 3.7067C116.448 3.54961 116.626 3.44176 116.824 3.4017C117.012 3.34104 117.215 3.34104 117.403 3.4017C117.716 3.44781 118.035 3.44781 118.348 3.4017C118.665 3.39164 118.976 3.4883 119.232 3.6762C119.413 3.79933 119.607 3.90164 119.811 3.9812H121.091C121.194 3.34379 121.331 2.7125 121.503 2.0902L121.167 1.58695C121.167 1.2057 121.594 1.3887 121.716 1.22095C121.883 1.24093 122.052 1.24093 122.219 1.22095C122.89 1.22095 123.53 1.40395 124.185 1.3582C124.658 1.58695 125.267 1.49545 125.709 1.9987V2.59345C125.557 2.98995 125.161 3.23395 124.856 3.59995L125.054 3.84395C126.258 3.84395 127.477 3.84395 128.696 3.84395C128.899 3.84768 129.101 3.80577 129.285 3.72131C129.47 3.63685 129.633 3.51199 129.763 3.35595L130.098 2.80695H131.059L133.192 4.33195L133.329 5.0182L132.385 5.6282C132.239 6.07539 132.192 6.54888 132.247 7.01595C132.247 8.54095 132.247 10.0659 132.247 11.5909C132.201 11.7777 132.104 11.9479 131.967 12.0825C131.83 12.2172 131.658 12.311 131.47 12.3534C131.47 12.3534 131.363 12.4449 131.348 12.4297C131.333 12.4144 131.013 12.4297 130.83 12.4297C130.342 12.4297 129.855 12.4297 129.306 12.4297C129.215 11.9722 128.757 11.9264 128.529 11.7587C128.3 11.5909 128.041 11.8349 127.843 11.8349H120.223C120.057 11.8612 119.894 11.902 119.735 11.9569L119.613 12.0637C119.533 12.1659 119.489 12.2921 119.489 12.4221C119.489 12.5521 119.533 12.6783 119.613 12.7804L119.735 12.9024V12.9939C120.086 13.0706 120.443 13.1165 120.802 13.1312H125.039H125.13L125.328 12.9482L125.45 13.2227L126.06 13.0092L126.746 12.9177H128.163C128.605 12.9024 129.123 13.1312 129.535 13.0549ZM131.683 20.6799C131.987 19.7709 132.181 18.8289 132.263 17.8739L131.958 17.4165C131.516 17.4927 131.043 17.2944 130.601 17.5385C130.601 17.5385 130.449 17.5385 130.434 17.5385C130.419 17.5385 130.068 17.4317 129.885 17.4317H128.529C128.392 17.4242 128.254 17.4242 128.117 17.4317C127.576 17.5613 127.012 17.5613 126.471 17.4317C126.439 17.413 126.402 17.4031 126.365 17.4031C126.327 17.4031 126.29 17.413 126.258 17.4317C126.151 17.569 126.014 17.5079 125.877 17.5079C125.522 17.5308 125.165 17.5308 124.81 17.5079C124.673 17.5079 124.581 17.6757 124.414 17.5079C124.246 17.3402 124.17 17.5079 124.078 17.5842C123.963 17.6461 123.859 17.7288 123.774 17.8282L123.499 18.8042L123.636 19.0024L123.469 19.2464L124.002 19.9632C124.589 20.0808 125.189 20.1167 125.785 20.07L126.044 19.8259L126.365 18.3009C126.492 18.2378 126.624 18.1868 126.761 18.1484C127.303 18.0782 127.854 18.125 128.376 18.2857C128.788 18.4534 129.352 18.4534 129.55 19.1854V21.0612L129.809 21.4424H130.647L130.876 21.2137H131.089L131.683 20.6799ZM119.735 5.58245C119.064 6.00945 119.034 6.4822 119.643 7.10745C120.31 7.08496 120.978 7.11555 121.64 7.19895C121.749 7.16296 121.861 7.13743 121.975 7.1227C122.219 7.1227 122.463 7.22945 122.707 7.22945H124.353C124.483 7.2061 124.61 7.17036 124.734 7.1227C124.734 7.1227 124.734 7.22945 124.856 7.22945H126.075C126.212 7.22945 126.349 7.22945 126.456 7.10745C126.489 7.09229 126.526 7.08445 126.563 7.08445C126.599 7.08445 126.636 7.09229 126.669 7.10745C126.837 7.3057 127.05 7.19895 127.233 7.22945C127.744 7.23197 128.255 7.18601 128.757 7.0922L128.849 7.0007C129.047 6.83295 128.849 6.5737 128.986 6.34495C129.123 6.1162 128.986 6.0247 128.894 5.8722L128.651 5.58245C128.361 5.58245 128.102 5.6587 127.873 5.4452C127.848 5.43048 127.819 5.42272 127.79 5.42272C127.76 5.42272 127.731 5.43048 127.706 5.4452C127.447 5.6587 127.142 5.55195 126.867 5.55195H124.048C123.137 5.51131 122.225 5.54702 121.32 5.6587C120.884 5.70445 120.445 5.70445 120.009 5.6587C119.915 5.65425 119.822 5.63362 119.735 5.5977V5.58245ZM128.879 9.0442C128.671 8.91198 128.424 8.85297 128.178 8.87645C127.248 8.87645 126.319 8.87645 125.404 8.87645C124.489 8.84599 123.572 8.87656 122.661 8.96795C121.936 9.02899 121.207 9.02899 120.482 8.96795C120.376 8.95333 120.273 8.92247 120.177 8.87645L119.43 9.0137C119.44 9.11001 119.44 9.20714 119.43 9.30345C119.371 9.42533 119.35 9.56221 119.371 9.6961C119.391 9.82998 119.451 9.95461 119.543 10.0536C119.636 10.1526 119.756 10.2213 119.888 10.2507C120.02 10.2802 120.158 10.2689 120.284 10.2184C120.368 10.1743 120.462 10.1513 120.558 10.1513C120.653 10.1513 120.747 10.1743 120.832 10.2184C120.958 10.2782 121.096 10.3092 121.236 10.3092C121.376 10.3092 121.514 10.2782 121.64 10.2184C121.756 10.2027 121.874 10.2027 121.99 10.2184C122.067 10.2184 122.082 10.3862 122.219 10.2184C122.356 10.0507 122.417 10.2184 122.524 10.2184C122.632 10.1753 122.744 10.1446 122.859 10.1269C123.557 10.1096 124.255 10.1453 124.947 10.2337C125.564 10.2295 126.18 10.1888 126.791 10.1117C127.355 10.1117 127.919 10.1117 128.452 10.1117L128.879 9.85245V9.0442ZM119.034 20.1157C119.217 19.9174 119.461 20.1157 119.613 20.1157C119.765 20.1157 120.07 20.1157 120.314 20.0242L120.619 19.7344C120.596 19.0672 120.627 18.3991 120.71 17.7367C120.604 17.5689 120.345 17.5537 120.299 17.3097C120.127 17.3145 119.959 17.355 119.804 17.4285C119.649 17.502 119.512 17.607 119.4 17.7367C119.296 17.8726 119.162 17.9821 119.009 18.0563C118.855 18.1305 118.686 18.1673 118.516 18.1637C118.264 18.1962 118.018 18.2629 117.784 18.3619C117.972 18.4929 118.123 18.6693 118.225 18.8746C118.326 19.0799 118.374 19.3075 118.363 19.5362C118.363 19.7039 118.5 19.8717 118.561 20.0089L119.034 20.1157Z" fill="#EBB667"/>
<path d="M102.133 16.0441L101.843 16.2423L102.011 16.4863C101.813 16.7151 101.859 17.0658 101.798 17.3556C101.645 18.0723 101.34 18.7128 101.157 19.4143C101.029 19.8156 100.833 20.1921 100.578 20.5276C100.187 21.2257 99.6699 21.846 99.0543 22.3576C98.5239 22.7268 97.9745 23.0678 97.4083 23.3793C96.9265 23.6505 96.4151 23.8654 95.8843 24.0198C95.5337 24.1571 95.1984 24.0198 94.9089 24.0198L94.5431 23.7301C94.5362 23.6004 94.5619 23.471 94.6178 23.3538C94.6737 23.2366 94.758 23.1353 94.8631 23.0591C95.1092 22.8149 95.3742 22.5905 95.6556 22.3881C96.1367 22.0261 96.5808 21.6174 96.9816 21.1681C96.9816 21.1681 96.9816 20.9851 96.9816 20.8783C97.5365 20.1373 97.9074 19.2748 98.0637 18.3621H97.7436C97.1736 18.8146 96.7322 19.4088 96.4634 20.0853L96.0519 20.2378C96.0519 20.2378 95.9452 20.2378 95.9147 20.2378C95.6495 19.9708 95.4692 19.6312 95.3966 19.2618C95.3494 18.9839 95.2342 18.7219 95.0613 18.4993C95.0613 18.4231 95.0613 18.3163 95.0613 18.2706C95.0613 18.2248 95.0613 17.8131 94.9241 17.6148C94.8515 17.3829 94.8155 17.1411 94.8174 16.8981C94.8174 16.6388 94.8174 16.3796 94.8174 16.1203C94.9089 16.1203 95.046 16.1203 95.0613 16.0136H95.8081C96.0713 16.0442 96.3373 16.0442 96.6006 16.0136V15.8001C97.0039 15.807 97.4069 15.7763 97.8046 15.7086C98.1101 15.6207 98.3916 15.4643 98.6276 15.2511L98.9628 15.0071V12.8721C98.8191 12.8072 98.6633 12.7737 98.5056 12.7737C98.348 12.7737 98.1921 12.8072 98.0484 12.8721C97.6596 12.9334 97.2637 12.9334 96.8749 12.8721C96.7834 12.6738 96.7072 12.8721 96.6158 12.8721C96.5244 12.8721 96.4177 12.7653 96.311 12.7653C96.1589 12.7828 96.005 12.7612 95.8636 12.7024C95.7223 12.6437 95.5982 12.5499 95.5032 12.4298C95.5032 12.4298 95.3966 12.4298 95.3356 12.4298C95.2124 12.2446 95.1467 12.0271 95.1467 11.8046C95.1467 11.5821 95.2124 11.3645 95.3356 11.1793C96.2798 11.0303 97.2414 11.0303 98.1856 11.1793L98.7495 10.8896C98.9884 10.5139 99.0756 10.0614 98.9933 9.62381C98.9101 9.11995 98.8743 8.60937 98.8867 8.09881C98.7677 8.03313 98.6391 7.9868 98.5056 7.96156C98.4142 7.96156 98.3227 8.03781 98.2161 8.03781H97.1187V7.85481L95.869 7.54981C95.5947 7.24481 95.1679 7.00081 95.2289 6.42131L95.5947 6.14681C95.93 6.14681 96.3262 6.04006 96.7225 5.99431C97.1187 5.94856 97.454 6.29931 97.8198 5.99431C98.3532 6.16206 98.6428 6.25356 99.1457 5.82656C99.1457 5.61306 99.1457 5.39956 99.1457 5.18606C99.1306 4.98301 99.1306 4.77911 99.1457 4.57606C99.1457 4.37781 99.0543 4.22531 99.1457 4.02706C99.1762 3.81465 99.1762 3.59898 99.1457 3.38656C99.0499 3.16704 98.9325 2.95759 98.7952 2.76131L99.2067 2.44106C99.4277 2.36825 99.6602 2.33722 99.8925 2.34956C100.37 2.38965 100.835 2.51897 101.264 2.73081C101.387 2.7929 101.524 2.81932 101.66 2.80706C101.66 2.99006 101.798 2.91381 101.889 2.92906C101.896 2.9695 101.912 3.00805 101.934 3.04241C101.957 3.07677 101.986 3.10623 102.02 3.12902C102.054 3.1518 102.093 3.16745 102.133 3.17502C102.173 3.18259 102.215 3.18192 102.255 3.17306L102.605 3.44756C102.615 3.80703 102.553 4.16487 102.422 4.49981C102.259 4.81785 102.161 5.16515 102.133 5.52156C102.133 6.13156 102.133 6.74156 102.133 7.35156C102.133 7.51931 102.301 7.64131 102.133 7.85481C101.965 8.06831 102.133 8.23606 102.133 8.43431C102.15 8.52497 102.181 8.61244 102.224 8.69356L102.133 8.87656C102.057 9.01381 102.285 9.12056 102.133 9.31881C101.98 9.51706 102.133 9.70006 102.133 9.89831C102.103 10.7737 102.133 11.6501 102.224 12.5213C102.236 13.1489 102.196 13.7763 102.102 14.3971C102.102 14.3971 102.102 14.4733 102.102 14.3971V14.7326L102.011 15.0528L102.102 15.1443C101.859 15.2511 102.102 15.3426 102.102 15.4493C102.102 15.5561 102.133 15.8916 102.133 16.0441Z" fill="#EBB667"/>
<path d="M106.171 2.51725L106.766 3.2035C106.766 3.4475 106.766 3.722 106.674 4.01175C106.583 4.3015 106.674 4.56075 106.552 4.8505C106.499 5.15827 106.499 5.47297 106.552 5.78075L106.842 6.08575C107.39 6.08575 107.68 5.75025 107.97 5.3995C108.259 5.04875 108.305 4.89625 108.457 4.6675H108.96C109.675 5.13406 110.266 5.76727 110.682 6.51275C110.727 6.92012 110.642 7.33126 110.439 7.687L110.225 7.79375C109.981 7.91575 109.737 8.12925 109.448 7.79375C109.07 7.72545 108.683 7.72545 108.305 7.79375C108.194 7.81593 108.08 7.81593 107.97 7.79375H106.705L106.43 8.22075V10.493L106.964 10.8742C107.195 10.8301 107.414 10.7328 107.602 10.5899C107.789 10.447 107.941 10.2624 108.046 10.0507C108.174 9.87123 108.328 9.71189 108.503 9.578H109.082L109.875 10.2337C110.246 10.5515 110.507 10.9785 110.621 11.4537C110.664 11.6293 110.695 11.8077 110.713 11.9875L110.317 12.5212H109.997V12.75H107.634C107.482 12.75 107.39 12.628 107.223 12.75C107.055 12.872 107.009 12.75 106.903 12.75C106.788 12.7738 106.675 12.8096 106.567 12.8567L106.415 13.1617C106.415 13.787 106.415 14.458 106.415 15.129C106.415 15.495 106.522 15.8457 106.567 16.2422L106.705 16.3642C106.763 16.45 106.839 16.5221 106.927 16.5757C107.016 16.6293 107.115 16.6631 107.218 16.6747C107.32 16.6863 107.425 16.6754 107.523 16.6429C107.621 16.6104 107.711 16.5569 107.787 16.4862C108.022 16.2991 108.201 16.0512 108.305 15.7695C108.394 15.5668 108.518 15.381 108.671 15.2205H109.311L110.347 16.2575C110.575 16.5023 110.746 16.7937 110.85 17.1115C110.909 17.2705 110.927 17.4415 110.903 17.6092C110.879 17.7769 110.814 17.936 110.713 18.0722L110.5 18.3772C109.985 18.5503 109.436 18.5973 108.899 18.5145C108.13 18.4337 107.356 18.398 106.583 18.4077L106.293 19.1397C106.293 19.2465 106.293 19.3685 106.4 19.4905C106.506 19.6125 106.308 19.8107 106.4 19.9937C106.453 20.0611 106.482 20.1443 106.482 20.2301C106.482 20.3159 106.453 20.3992 106.4 20.4665C106.644 20.5885 106.4 20.7867 106.4 20.924C106.414 20.9578 106.421 20.9941 106.421 21.0307C106.421 21.0674 106.414 21.1037 106.4 21.1375C106.4 21.29 106.232 21.3967 106.293 21.5645C106.331 21.6743 106.361 21.7863 106.385 21.9C106.396 21.9911 106.396 22.0834 106.385 22.1745L106.491 22.2965L106.263 22.5862L106.415 22.7997L106.095 23.0132L106.247 23.181C106.11 23.6537 106.08 23.669 105.135 24.2942C104.838 24.3419 104.534 24.3243 104.245 24.2426C103.955 24.161 103.687 24.0173 103.458 23.8215C103.282 23.1453 103.225 22.4433 103.291 21.7475V16.6387C103.298 16.578 103.298 16.5165 103.291 16.4557C103.129 16.271 103.047 16.0298 103.062 15.7847C103.098 15.5581 103.164 15.3375 103.26 15.129C103.226 15.1035 103.197 15.0702 103.178 15.0318C103.159 14.9934 103.148 14.9509 103.148 14.9079C103.148 14.8648 103.159 14.8224 103.178 14.784C103.197 14.7456 103.226 14.7123 103.26 14.6867L103.047 14.3055L103.275 14.092V6.162C103.269 6.10629 103.269 6.04995 103.275 5.99425C103.275 5.99425 103.275 5.99425 103.367 5.99425L103.215 5.81125L103.352 5.552C103.332 5.23303 103.368 4.91311 103.458 4.6065C103.344 4.44748 103.263 4.26664 103.221 4.07516C103.179 3.88368 103.177 3.68563 103.215 3.49325C103.287 3.21451 103.323 2.92737 103.321 2.63925L103.535 2.36475H104.678H104.982C104.982 2.5325 105.12 2.45625 105.211 2.48675H105.805C105.882 2.63925 106.065 2.4715 106.171 2.51725Z" fill="#EBB667"/>
<path d="M74.9585 2.91369C75.0927 2.81344 75.2558 2.75928 75.4233 2.75928C75.5908 2.75928 75.7539 2.81344 75.8881 2.91369C76.2929 3.12932 76.7163 3.30796 77.1531 3.44744C77.3307 3.4872 77.5041 3.54336 77.6713 3.61519C77.8508 3.73078 78.0598 3.79224 78.2733 3.79224C78.4868 3.79224 78.6958 3.73078 78.8753 3.61519L79.3173 3.38644V3.14244L79.8202 2.76119H80.3536C81.3774 3.11689 82.2416 3.82489 82.7921 4.75894C82.7921 5.15544 82.4721 5.39944 82.1825 5.70444V6.11619C81.9234 6.23819 82.0758 6.45169 82.0758 6.61944C82.0758 10.7674 82.0758 14.9053 82.0758 19.0329C82.0758 19.5209 82.0758 20.0242 82.0758 20.5579C82.076 20.9794 82.0248 21.3993 81.9234 21.8084C81.8472 21.8084 81.7405 22.0372 81.6034 22.0524C81.4662 22.0677 81.0242 22.3117 80.7042 22.2964H79.5154L79.2258 22.0067C79.2408 21.7934 79.2408 21.5794 79.2258 21.3662C79.197 21.1644 79.1511 20.9655 79.0887 20.7714C78.8644 20.7584 78.6458 20.6959 78.4486 20.5884C78.159 20.3597 77.9913 20.7409 77.7475 20.5884C77.6152 21.0019 77.5584 21.4358 77.5799 21.8694C77.5774 22.0235 77.5318 22.1737 77.4483 22.3031C77.3648 22.4325 77.2467 22.5358 77.1074 22.6014L76.894 22.7082C76.6349 22.7082 76.3301 22.7082 76.0406 22.7082C75.751 22.7082 75.5224 22.7082 75.2785 22.7082C75.1718 22.3727 74.9128 22.1592 74.9737 21.8237C75.0347 21.4882 74.7908 20.9239 74.8366 20.4512C74.8823 19.9784 74.8366 19.5057 74.8366 19.0329V10.3862C75.1871 9.95919 74.6994 9.51694 74.8366 9.07469C74.9581 8.65116 74.9581 8.20196 74.8366 7.77844L75.0347 7.70219C75.0347 7.51919 74.8213 7.36669 75.0347 7.19894C74.8365 6.92444 75.0347 6.60419 74.928 6.34494C74.8321 6.0764 74.7957 5.7902 74.8213 5.50619C74.8213 5.07919 74.8213 4.63694 74.8213 4.20994C74.8213 3.78294 74.9128 3.34069 74.9585 2.91369ZM77.7018 5.68919C77.7018 6.40594 77.5189 7.10744 77.5494 7.83944C77.5799 8.57144 77.5494 9.28819 77.5494 9.98969L77.8085 10.0812L77.5799 10.2032L77.6713 10.7674C77.6686 11.3642 77.6279 11.9601 77.5494 12.5517C77.5494 13.1769 77.5494 13.8174 77.5494 14.4427C77.5494 15.0679 77.717 15.6779 77.6865 16.2879C77.6561 16.8979 77.6865 17.8129 77.6865 18.5449L77.9609 18.9262H78.6467L79.1039 18.5297C79.0707 18.0466 79.1223 17.5615 79.2563 17.0962C79.0277 16.9742 79.0887 16.7607 79.1649 16.5929C79.2103 16.4923 79.2338 16.3831 79.2338 16.2727C79.2338 16.1622 79.2103 16.0531 79.1649 15.9524C79.1124 15.8336 79.0931 15.7027 79.1093 15.5738C79.1254 15.4448 79.1762 15.3227 79.2563 15.2204C79.1804 15.153 79.1311 15.0606 79.1171 14.96C79.1031 14.8594 79.1255 14.7571 79.1801 14.6714C79.2372 14.5498 79.2668 14.417 79.2668 14.2826C79.2668 14.1481 79.2372 14.0154 79.1801 13.8937L79.2716 13.6954L79.1344 13.5277C79.1858 13.3951 79.2216 13.2569 79.2411 13.1159C79.2411 12.7347 79.2411 12.3687 79.2411 11.9874C79.247 11.8655 79.2782 11.746 79.3325 11.6367C79.2845 11.4519 79.2538 11.263 79.2411 11.0724V8.22069C79.2411 7.94619 79.2411 7.68694 79.2411 7.41244C79.2411 7.13794 79.2411 6.90919 79.2411 6.66519C79.2411 6.42119 79.2411 6.37544 79.1191 6.29919V6.20769V5.97894L78.8296 5.52144H77.8694L77.7018 5.68919Z" fill="#EBB667"/>
<path d="M94.207 19.5363V19.9633L93.8412 20.2073L92.4238 20.3598C92.3147 20.346 92.2074 20.3204 92.1038 20.2835L91.9819 20.3903L91.3722 19.9785V19.2618L90.915 18.911C90.4883 18.7433 89.9854 18.5908 89.5891 19.1245V20.9393C89.5658 21.0438 89.5219 21.1426 89.4601 21.23C89.3982 21.3174 89.3196 21.3917 89.2289 21.4484C89.1381 21.5052 89.037 21.5433 88.9314 21.5606C88.8258 21.578 88.7178 21.5741 88.6137 21.5493C88.2174 21.5493 87.8212 21.5493 87.4402 21.5493L86.8763 21.2595C86.7696 21.107 86.8763 20.863 86.6172 20.7105V17.5233C86.6172 16.4863 86.6172 15.434 86.6172 14.4733C86.6172 13.5125 86.6172 12.3688 86.6934 11.3165C86.7696 10.2643 86.6934 8.99855 86.6934 7.83955C86.6934 7.6718 86.5257 7.53455 86.6934 7.38205C86.861 7.22955 86.6934 7.0618 86.6934 6.92455V6.68055H86.8001L86.6934 6.58905V4.7133L87.0134 4.2863C87.4795 4.28461 87.9411 4.37801 88.3698 4.5608C88.6421 4.67146 88.9302 4.73837 89.2233 4.75905C89.429 4.77849 89.6329 4.81418 89.8329 4.8658C90.0311 4.8658 90.2292 4.8658 90.4578 4.94205C90.6864 5.0183 90.8236 4.94205 91.1284 4.82005L91.9361 3.93555H92.8506C93.6278 4.4388 94.588 4.75905 95.0757 5.73505C94.8928 5.9028 94.7252 6.0553 94.5728 6.22305C94.4289 6.39681 94.3388 6.60881 94.3137 6.83305C94.1944 8.11035 94.1588 9.39409 94.207 10.676V19.5363ZM89.8329 17.142C90.0495 17.1869 90.2727 17.1884 90.4898 17.1465C90.7069 17.1046 90.9136 17.0202 91.0979 16.898C91.2635 15.2413 91.3094 13.5747 91.2351 11.9113C91.2351 10.2338 91.2351 8.57155 91.2351 6.92455L90.8845 6.7568C90.5188 7.0008 90.092 6.7568 89.711 6.89405V7.0923H89.5586C89.5586 7.26005 89.5586 7.3973 89.6348 7.5498V10.2185C89.6348 10.3405 89.6348 10.4625 89.6348 10.615C89.6228 10.7062 89.6228 10.7984 89.6348 10.8895C89.6348 12.6738 89.6348 14.4733 89.6348 16.2728C89.6424 16.5728 89.7098 16.8684 89.8329 17.142Z" fill="#EBB667"/>
<path d="M2.58619 17.1463L2.81151 16.9574C3.1789 16.4885 3.60521 16.099 4.0733 15.8045L4.67416 15.3888C4.90222 15.2192 5.15088 15.0979 5.4102 15.0297L6.16127 14.7084C6.47157 14.6494 6.77787 14.5609 7.07758 14.4439C7.07758 14.4439 7.22779 14.4439 7.33294 14.4439C7.52292 14.425 7.71377 14.425 7.90375 14.4439L8.48958 14.3305L8.62478 14.1604C8.9252 14.3305 9.21061 14.1604 9.49602 14.1604C9.78142 14.1604 9.9767 14.1604 10.202 14.0281C10.4264 13.9906 10.6536 13.9906 10.878 14.0281H10.9982C10.9982 14.3116 10.9982 14.5762 10.9982 14.8596C11.0186 15.1207 11.0537 15.3796 11.1033 15.6345C11.2814 16.026 11.4419 16.4298 11.584 16.844C11.404 16.863 11.2232 16.863 11.0432 16.844C10.923 16.844 10.893 17.0707 10.7728 16.844C10.6527 16.6172 10.6076 16.844 10.5175 16.844C10.4129 16.8251 10.3066 16.8251 10.202 16.844H9.88657C9.69127 16.841 9.49738 16.8859 9.31576 16.9763C9.16554 17.0896 8.98529 16.9763 8.8501 17.1274C8.7149 17.2786 8.54967 17.1274 8.4295 17.2408C8.30933 17.3542 7.7986 17.4487 7.48315 17.581L6.74711 17.8078C6.56685 17.8078 6.40161 18.0535 6.19132 18.0157C5.73751 18.2599 5.30042 18.5507 4.88446 18.885C4.72305 19.0048 4.58347 19.166 4.47479 19.3581C4.3661 19.5502 4.29072 19.7689 4.25356 20C4.09151 19.9021 3.93582 19.7884 3.7879 19.6598C3.40112 19.2885 3.04394 18.8708 2.72138 18.4125C2.67242 18.3513 2.63489 18.2772 2.61151 18.1954C2.58813 18.1137 2.57948 18.0265 2.58619 17.9401C2.60121 17.7133 2.58619 17.4109 2.58619 17.1463Z" fill="#ECB769"/>
<path d="M5.55486 21.8326C8.42287 21.0863 11.2314 20.1543 13.96 19.0435C14.8456 18.6387 18.1303 15.7746 18.7905 15.7296C18.8871 15.7296 20.5134 17.544 20.8998 17.8289C22.625 18.9553 24.5568 19.7785 26.5998 20.2581C28.4837 20.813 33.4753 21.3528 29.0151 21.5027C26.4066 21.5027 23.7659 21.5927 21.1413 21.5027C18.5167 21.4128 7.51927 19.4934 5.9091 21.5927C6.37605 21.0079 5.32943 20.4531 4.87859 21.0229L4.66926 21.2928C4.62863 21.3557 4.6018 21.4255 4.59033 21.4981C4.57886 21.5707 4.58297 21.6447 4.60244 21.7159C4.62191 21.787 4.65635 21.8538 4.70375 21.9125C4.75115 21.9711 4.81058 22.0204 4.87859 22.0575C7.00401 22.8973 10.3371 22.1475 12.6074 22.2825C16.2464 22.4924 19.8693 22.7023 23.5244 22.7023C25.1346 22.7023 34.1515 23.9919 33.5558 21.2028C33.5243 21.1091 33.468 21.0242 33.392 20.9561C33.316 20.8879 33.2228 20.8387 33.121 20.813C28.6125 19.8083 21.5439 18.9536 19.5634 14.4101C19.5301 14.3039 19.4643 14.209 19.374 14.137C19.2838 14.065 19.173 14.0191 19.0552 14.0048C18.9374 13.9905 18.8176 14.0084 18.7106 14.0564C18.6035 14.1044 18.5138 14.1804 18.4523 14.2751C15.554 18.1288 9.88622 19.5384 5.23282 20.8429C4.49215 20.9479 4.81418 22.0425 5.55486 21.8326Z" fill="#AF9F90"/>
<path d="M5.79299 21.1513C7.43991 20.6832 9.06068 20.1324 10.6487 19.501C12.32 19.0023 13.9445 18.366 15.5045 17.5992C17.098 16.7287 18.4483 15.4931 19.4376 14C19.7241 14.8607 20.1914 15.6543 20.8099 16.3306C21.4284 17.0069 22.1846 17.5513 23.0309 17.9293C24.6671 18.7172 26.3806 19.3438 28.1456 19.7996C29.7642 20.2711 31.6256 20.6955 33.5031 21.1198C33.6973 21.2141 33.5031 21.8271 33.3251 21.8271C30.5897 21.8271 30.5897 22 27.8543 22C25.1189 22 25.1189 22 22.3673 22C19.6157 22 19.6319 21.8114 16.8965 21.8114C14.1611 21.8114 14.1449 21.4971 11.4095 21.4971C8.67406 21.4971 8.65788 21.4971 5.92247 21.4971C5.5502 21.5756 5.45308 21.3242 5.79299 21.1513Z" fill="#754C24"/>
<path d="M27.8851 14L28.0164 14.1197L29.6577 14.359L29.8219 14.5128C30.0188 14.5128 30.2158 14.5128 30.3963 14.5128C30.5769 14.5128 30.7902 14.5128 30.9543 14.6325C31.1824 14.5906 31.4157 14.5906 31.6437 14.6325C31.9877 14.6801 32.3279 14.7544 32.6613 14.8547C32.7536 14.8713 32.848 14.8713 32.9403 14.8547C33.2216 14.9373 33.4765 15.0967 33.6789 15.3162L34.7786 15.8462C35.4763 16.1619 36.0942 16.6417 36.584 17.2479V18.6325C35.829 19.4872 35.1889 19.9829 34.7293 20V19.5043C34.5611 19.1348 34.2854 18.8298 33.9415 18.6325C33.7222 18.477 33.4851 18.3507 33.2357 18.2564C33.006 18.1709 32.7926 18.0171 32.5464 17.9487C32.054 17.8291 31.5945 17.6239 31.1021 17.5385L30.7246 17.4017C30.4121 17.2854 30.0867 17.2108 29.7562 17.1795L29.3295 17.0256C29.1818 17.0256 29.034 17.0256 28.8863 17.0256C28.7386 17.0256 28.7222 17.0256 28.6401 17.0256C28.4751 17.0434 28.3089 17.0076 28.1641 16.9231C28.0164 17.0598 27.8851 16.9231 27.721 16.9231C27.5518 16.9402 27.3814 16.9402 27.2122 16.9231H26.2438C26.0751 16.9488 25.9037 16.9488 25.735 16.9231C25.4226 16.8516 25.1026 16.8228 24.7831 16.8376C24.7831 16.8376 24.6682 16.8376 24.6025 16.735C24.5778 16.4564 24.5778 16.176 24.6025 15.8974C24.5972 15.7201 24.6297 15.5438 24.6979 15.3812C24.766 15.2186 24.868 15.0738 24.9965 14.9573C25.0785 14.9573 25.1113 14.7692 25.1934 14.6838C25.3471 14.4699 25.5677 14.3188 25.8171 14.2564C26.4015 14.2053 26.9889 14.2053 27.5733 14.2564C27.6882 14.0684 27.8031 14.1197 27.8851 14Z" fill="#ECB668"/>
<path d="M36.8995 20C37.2345 20.4433 37.4557 20.9678 37.5426 21.5243C37.6295 22.0807 37.5791 22.651 37.3962 23.1817C37.2221 23.7123 36.991 24.2209 36.7073 24.6976C36.4349 25.1308 36.1786 25.5805 35.8741 26.0137C35.292 26.9313 34.5789 27.7514 33.7593 28.4458C32.9212 29.1268 31.9788 29.6562 30.9715 30.0117C27.2005 31.5296 23.2302 32.4451 19.1955 32.727C18.2182 32.727 17.2248 32.9768 16.1834 32.9935C15.0972 33.0351 14.0125 32.8772 12.9791 32.5271C11.9697 32.1939 11.0404 31.7774 10.1272 31.3943C9.21396 31.0111 8.33277 30.7113 7.37146 30.3615C6.3462 30.0139 5.3867 29.4841 4.53561 28.7956C3.71097 28.1212 2.95891 27.356 2.29257 26.5134C1.57076 25.6797 1.02497 24.698 0.690392 23.6315C0.562855 23.0881 0.549799 22.5224 0.652117 21.9732C0.754435 21.4241 0.96971 20.9044 1.2832 20.4498L1.42739 20.5331C1.07363 21.447 1.07363 22.4677 1.42739 23.3816C1.86516 24.2363 2.45191 24.9988 3.15774 25.6305C3.83056 26.3304 4.57154 26.9557 5.36874 27.4962C6.14222 28.0186 6.98398 28.4226 7.86813 28.6956C8.84051 29.0046 9.79305 29.3774 10.72 29.8117C11.6493 30.2449 12.5144 30.6946 13.3956 31.0445C15.238 31.6237 17.1598 31.8827 19.0834 31.8107C21.045 32.0627 23.0355 31.8925 24.9313 31.311C26.7968 30.5944 28.6071 29.7312 30.3466 28.729C31.197 28.3262 32.0119 27.8468 32.782 27.2963C33.5699 26.6938 34.2901 26.0009 34.9289 25.2307C35.5648 24.4891 36.1383 23.6921 36.6432 22.8486C36.8617 22.4325 36.9854 21.9698 37.0048 21.4962C37.0243 21.0225 36.9389 20.5506 36.7553 20.1166L36.8995 20Z" fill="#AF9F90"/>
<path d="M29.5516 24.6119L23.8016 24.8457C22.846 24.8457 21.8903 24.9895 20.9023 24.9895C19.9232 25.0233 18.9432 24.9752 17.9706 24.8457C16.1005 24.53 14.2085 24.4036 12.3178 24.4681C10.4389 24.4681 8.54384 24.7378 6.58398 24.6299V24.486C7.50722 24.1624 8.44666 23.9106 9.40229 23.6769C10.3617 23.4013 11.3353 23.1911 12.3178 23.0475C14.2838 22.8973 16.2588 23.1038 18.165 23.6589C19.083 23.8848 20.0138 24.041 20.9509 24.1264C21.8903 24.1264 22.846 24.1264 23.8178 24.1264L29.584 24.3602L29.5516 24.6119Z" fill="white"/>
<path d="M43.0467 25.0602C42.6602 25.0735 42.2798 24.957 41.9616 24.7279C41.6691 24.8303 41.3573 24.8588 41.0521 24.811C40.717 24.811 40.3978 24.811 40.0787 24.811L39.967 25.0935L39.7116 24.9605C39.3925 25.1101 39.0733 25.2928 38.7382 25.4258C38.3826 25.5861 38.0539 25.8049 37.7648 26.0737C37.4936 26.3396 37.2542 26.622 36.935 26.9875L37.1904 24.9772C37.5406 24.5749 37.9311 24.2129 38.3553 23.8972C38.3553 23.8972 38.3553 23.8141 38.451 23.8141C38.9138 23.8141 39.2329 23.3655 39.6957 23.3821H39.8233C40.2223 23.0166 40.701 23.1495 41.1478 23.1329C41.5946 23.1163 41.834 23.216 42.1531 23C42.5822 23.0445 43.0051 23.1392 43.4138 23.2825C44.0501 23.5303 44.6351 23.9025 45.1372 24.379C45.7444 25.024 46.1312 25.8587 46.2382 26.7549C46.4936 27.0208 46.2382 27.4029 46.4776 27.702C46.717 28.001 46.4776 27.9844 46.4776 28.1506L46.3499 28.2835L46.4616 28.3998C46.3928 28.5966 46.3603 28.8052 46.3659 29.0145C46.3659 29.2139 46.1585 29.3634 46.3659 29.5628C46.1904 30.028 46.2063 30.5431 46.0148 31.0083C45.7084 31.8108 45.3063 32.5699 44.818 33.2679C44.6425 33.5005 44.451 33.6999 44.2914 33.9491C44.1319 34.1983 43.9723 34.298 43.8446 34.514C43.6752 34.7513 43.4705 34.9588 43.2382 35.1288C43.041 35.3353 42.8275 35.5242 42.5999 35.6937C42.0414 36.0093 41.5468 36.4413 41.0042 36.7736C40.3354 37.2 39.6168 37.5351 38.8659 37.7705L37.8127 38.136L37.717 38.2523C37.717 38.2523 37.6053 38.2523 37.5733 38.2523C37.2562 38.2232 36.9373 38.2805 36.6478 38.4185C36.356 38.5194 36.0573 38.5971 35.7542 38.6511C35.451 38.6511 35.1478 38.784 34.8446 38.8671H34.5414C34.305 38.8362 34.0652 38.8827 33.8553 39C33.8553 39 33.7116 39 33.584 39L34.318 37.3385C34.6771 37.1832 35.0622 37.1042 35.451 37.1059C35.99 36.992 36.5227 36.8478 37.0467 36.6739C38.1141 36.3061 39.1454 35.8332 40.1265 35.2617C40.5467 34.9987 40.9516 34.7102 41.3393 34.3977C41.7869 34.0312 42.2132 33.6373 42.6159 33.2181C43.1233 32.6353 43.5874 32.0132 44.0042 31.3572C44.2575 30.8041 44.4708 30.232 44.6425 29.6459C44.6425 29.4465 44.7382 29.2638 44.7702 29.0644C44.8021 28.865 44.6744 28.6324 44.7702 28.4496C44.8659 28.2669 44.7702 28.4496 44.7702 28.3666C44.6106 27.9013 44.7702 27.4195 44.5467 26.9709C44.3999 26.5976 44.1832 26.2585 43.9093 25.9732C43.6353 25.688 43.3095 25.4623 42.951 25.3094C42.951 25.3094 43.0467 25.1101 43.0467 25.0602Z" fill="#ECB869"/>
<path d="M11.8931 27.8422H12.9346C12.9346 28.083 13.191 27.9225 13.3191 27.9706C13.4473 28.0188 13.6716 27.9706 13.7998 28.1312C13.928 28.2918 13.9761 28.1312 14.0562 28.2276H14.4407C15.0015 28.1312 15.5623 28.4042 16.1231 28.34C16.6839 28.2757 16.9723 28.2115 17.485 28.1312C17.7093 28.1312 18.0298 28.2918 18.3502 28.34C18.6806 28.3721 19.0133 28.3721 19.3436 28.34C19.6801 28.34 20.0486 28.4524 20.3531 28.2436C20.8337 28.5487 21.3144 28.2436 21.8111 28.2436C22.3078 28.2436 22.8366 28.2436 23.4134 28.2436V28.0509L23.7018 27.8904C23.8431 27.9721 24.0033 28.0151 24.1665 28.0151C24.3296 28.0151 24.4898 27.9721 24.6311 27.8904L24.8394 28.1633C24.9413 28.094 25.0555 28.0449 25.1759 28.0188C25.8044 28.0599 26.4356 28.0112 27.0505 27.8743C27.6434 27.794 28.2362 27.8743 28.813 27.7458C29.2406 27.7271 29.6624 27.6404 30.0628 27.4889C30.3993 27.3444 30.7357 27.4889 31.0562 27.2802C31.2932 27.1094 31.5682 26.9992 31.8573 26.959C32.1509 26.9654 32.4363 26.8624 32.6584 26.67C33.0636 26.6296 33.459 26.521 33.8281 26.3488C34.5429 26.1126 35.2347 25.8116 35.895 25.4496C36.1033 25.3212 36.3276 25.1445 36.584 25.3051C36.584 25.562 36.584 25.7868 36.4878 26.0277C36.3917 26.2685 36.4077 26.5255 36.3597 26.7824C36.3423 27.0197 36.3102 27.2556 36.2635 27.4889C36.2635 27.7779 36.1674 28.1152 36.1193 28.4202C36.096 28.7605 36.0478 29.0987 35.9751 29.4319C35.8565 30.0417 35.6959 30.6427 35.4944 31.2303C35.5321 31.5654 35.4766 31.9043 35.3342 32.2098C35.206 32.4989 35.2221 32.8361 34.9977 33.0769C35.1099 33.4462 34.7734 33.7032 34.7254 34.0404C34.643 34.3528 34.5247 34.6545 34.3729 34.9396C34.1485 35.4213 33.9403 35.887 33.7159 36.3527C33.3285 37.1184 32.8839 37.8538 32.3861 38.5525C32.2211 38.8043 32.0276 39.036 31.8092 39.243C31.617 39.4196 31.5048 39.6926 31.2645 39.8211C31.0241 39.9495 31.0882 40.0941 30.9921 40.2065C30.6398 40.5637 30.241 40.8716 29.8064 41.1217C29.4379 41.3626 29.0373 41.5553 28.6688 41.7962C28.2029 42.0804 27.7154 42.3274 27.2107 42.5348C26.692 42.7809 26.1565 42.9901 25.6085 43.161C25.0221 43.3629 24.4225 43.5239 23.814 43.6428L21.9233 43.8997C21.3018 43.9798 20.6751 44.012 20.0486 43.996C19.3917 43.996 18.7508 43.996 18.1099 43.996C17.8991 43.9742 17.6902 43.9366 17.485 43.8836C17.2767 43.8836 17.0845 43.8836 16.8922 43.7552C16.6999 43.6267 16.6999 43.7552 16.5878 43.7552C16.2909 43.7485 15.9956 43.7108 15.7065 43.6428C14.887 43.4971 14.0826 43.2767 13.3031 42.9844C13.0468 42.8881 12.7744 42.9844 12.5501 42.8559C11.9732 42.583 11.3964 42.31 10.8356 42.0049C10.5438 41.8546 10.2603 41.6884 9.98643 41.5071L8.97701 40.7845C8.75269 40.624 8.64053 40.3028 8.32008 40.2546C8.21577 40.0127 8.05004 39.8023 7.8394 39.6444C7.62439 39.4478 7.42109 39.2387 7.23054 39.0182C7.02225 38.7613 6.846 38.4722 6.65373 38.1993C6.14609 37.5101 5.70609 36.7734 5.33988 35.9994C5.08351 35.4534 4.87522 34.9075 4.6509 34.3936C4.42659 33.8798 4.33045 33.2857 4.12216 32.7879C3.91386 32.2901 3.84977 31.696 3.68954 31.1821C3.56889 30.749 3.4726 30.3094 3.40114 29.8654C3.28898 29.1589 3.1608 28.4684 3.0166 27.7779C3.0166 27.4889 3.01659 27.1678 2.88841 26.959C2.76023 26.7503 2.88841 26.397 2.77626 26.1883C2.6641 25.9795 2.77626 25.3854 2.58398 25L2.8083 25.0963C2.96853 25.1927 3.09671 25.3051 3.24091 25.4014C4.06203 25.8708 4.91931 26.2735 5.80453 26.6058C6.34673 26.7115 6.88185 26.8509 7.40679 27.0232C7.77531 27.0232 8.11179 27.2641 8.46429 27.3444C8.81678 27.4247 9.56985 27.5692 10.1467 27.6655V27.8743H11.0439C11.3323 27.8743 11.5727 28.0991 11.8611 28.0028L11.8931 27.8422Z" fill="#EBB667"/>
<path d="M28.584 26.2918L24.6 26.5039C23.272 26.5039 21.944 26.6896 20.616 26.7957C19.2809 26.9956 17.9199 27.0491 16.568 26.9548C15.212 26.7528 13.8792 26.4555 12.584 26.0663V26C13.928 26 15.256 26.2254 16.552 26.305C17.8523 26.3643 19.1556 26.3643 20.456 26.305C21.784 26.305 23.112 26.1857 24.456 26.2122H28.456L28.584 26.2918Z" fill="white"/>
<path d="M36.707 34.7622L35.5856 35C35.576 34.8366 35.6099 34.6736 35.6845 34.5244C35.9343 33.9806 36.1114 33.4119 36.2123 32.8303C36.2497 32.6139 36.3049 32.4003 36.3772 32.1913C36.3772 32.1913 36.4596 32.1913 36.4596 32.1021C36.4725 31.6662 36.5615 31.2349 36.7235 30.8241C36.7235 30.5863 36.8224 30.3485 36.8554 30.2296C37.3172 29.6946 37.6965 29.2339 38.0923 28.7435C38.8188 27.96 39.7809 27.3821 40.8629 27.0791C41.1682 27.0004 41.4884 26.9801 41.8029 27.0196C42.1412 27.0021 42.4778 27.0745 42.771 27.2277C43.0641 27.3809 43.3009 27.6082 43.4521 27.8816C43.5078 27.9761 43.552 28.0757 43.584 28.1788V29.6649C43.3537 30.0444 43.1499 30.4365 42.9738 30.8389C42.7878 31.2245 42.5187 31.573 42.1822 31.8643C41.6886 32.3546 41.1354 32.7933 40.533 33.1721C40.0076 33.5088 39.4566 33.8117 38.8839 34.0786C38.3891 34.2867 37.8449 34.4204 37.3337 34.5988L36.707 34.7622Z" fill="#ECB769"/>
<path d="M67.6744 40.0894C67.5006 39.9102 67.3425 39.7163 67.202 39.5099C67.039 39.3112 66.9149 39.0836 66.8362 38.8389C66.8362 38.5796 66.7448 38.3356 66.6991 38.1221C66.3057 38.5817 65.8721 39.0053 65.4036 39.3879C64.9875 39.6643 64.5995 39.981 64.2453 40.3334C64.2453 40.3334 64.1082 40.3334 64.0624 40.3334C63.6991 40.5909 63.2823 40.7629 62.8432 40.8366C62.7874 40.8578 62.7358 40.8888 62.6908 40.9281C62.3908 40.9278 62.0926 40.9741 61.8068 41.0654C61.5186 41.1528 61.2111 41.1528 60.9229 41.0654C60.801 41.0654 60.6181 41.1569 60.5266 41.0654C60.3991 40.9859 60.2498 40.9486 60.0999 40.9586C59.9885 40.9628 59.8796 40.9247 59.7951 40.8519C59.3144 40.6422 58.8876 40.326 58.547 39.9271C58.2064 39.5281 57.9609 39.057 57.829 38.5491C57.6241 37.7686 57.5469 36.9601 57.6004 36.1549C57.6004 36.1549 57.6004 36.0634 57.6004 36.0329C57.7889 35.6959 57.8984 35.3204 57.9205 34.9349C58.0748 34.4105 58.2736 33.9003 58.5149 33.4099C58.7435 32.8609 59.1397 32.4034 59.4141 31.8849C59.7265 31.3245 60.1164 30.8111 60.5723 30.3599C61.2542 29.7746 61.9889 29.2539 62.767 28.8044C63.3319 28.5234 63.9119 28.2739 64.5044 28.0571C65.3008 27.9285 66.1171 28.0181 66.8667 28.3164C67.2485 28.5572 67.5343 28.9241 67.6744 29.3534C67.7405 29.5291 67.7765 29.7147 67.7811 29.9024C67.8269 30.1954 67.8269 30.4938 67.7811 30.7869C67.6558 31.5857 67.3538 32.3463 66.8972 33.0134C66.7043 33.2793 66.4902 33.5292 66.2571 33.7606C66.0131 33.9572 65.7587 34.1404 65.495 34.3096H64.7787C64.2301 33.7759 64.2301 33.7759 64.2453 33.1659C64.5282 32.9209 64.793 32.6559 65.0378 32.3729C65.3741 32.0183 65.6658 31.624 65.9065 31.1986C66.1866 30.7425 66.3047 30.2052 66.2418 29.6736C66.1577 29.5589 66.0505 29.463 65.9272 29.392C65.8038 29.3211 65.667 29.2768 65.5255 29.2619C65.5255 29.2619 65.4341 29.2619 65.4036 29.2619C65.3731 29.2619 64.9464 29.3381 64.7025 29.4144C64.2634 29.5712 63.8631 29.8209 63.529 30.1464C63.2019 30.4716 62.8558 30.7771 62.4927 31.0614C62.2936 31.2659 62.1102 31.4851 61.944 31.7171C61.5313 32.2666 61.1546 32.8422 60.8162 33.4404C60.6638 33.7454 60.5419 34.0504 60.3895 34.3401C60.2552 34.6416 60.1431 34.9525 60.0542 35.2704C59.9616 35.5493 59.8903 35.8347 59.8408 36.1244C59.8214 36.2703 59.7856 36.4135 59.7341 36.5514C59.7189 36.6933 59.7189 36.8365 59.7341 36.9784C59.7306 37.613 59.9399 38.2306 60.3285 38.7321C60.453 38.9098 60.6139 39.0588 60.8005 39.1692C60.9871 39.2797 61.1951 39.349 61.4106 39.3726C61.6392 39.3726 61.8678 39.6166 62.0659 39.4794C62.264 39.3421 62.6603 39.4794 62.9499 39.3116C63.5539 39.0901 64.1274 38.7929 64.6568 38.4271C65.0487 38.1663 65.416 37.8702 65.7541 37.5426C66.2571 36.9479 66.821 36.4141 67.2782 35.8346C67.5525 35.5296 67.7659 35.1636 68.0402 34.8586C68.4343 34.4451 68.886 34.0907 69.3814 33.8064C69.4488 33.7356 69.51 33.659 69.5643 33.5776C69.922 33.548 70.2749 33.4764 70.6159 33.3641C70.8448 33.3034 71.0854 33.3024 71.3149 33.3611C71.5443 33.4199 71.7549 33.5364 71.9266 33.6996C72.1897 33.9738 72.4293 34.2697 72.6429 34.5841C72.78 35.0569 72.5514 35.4686 72.841 35.8194C73.4201 35.6211 74.0907 35.6364 74.3651 35.0874C74.4163 34.9113 74.4774 34.7382 74.5479 34.5689C74.8527 33.9436 75.1423 33.3031 75.4928 32.7084C75.9988 31.6795 76.6507 30.7293 77.4284 29.8871C77.6906 29.6444 77.9888 29.4438 78.3124 29.2924L78.541 29.1856H79.0439C79.4665 29.3452 79.8325 29.6264 80.0955 29.9939C80.1032 30.9873 79.7876 31.9561 79.1963 32.7541C78.5332 33.7878 77.7448 34.7354 76.8493 35.5754L75.5995 36.8564C75.6164 36.9678 75.6637 37.0724 75.7364 37.1586C75.809 37.2447 75.9041 37.309 76.011 37.3444C76.011 37.3444 76.133 37.2529 76.1939 37.2529C76.7318 37.2053 77.2524 37.0386 77.718 36.7649C77.9675 36.6703 78.1905 36.517 78.3682 36.3179C78.546 36.1188 78.6732 35.8798 78.7391 35.6211C78.7307 35.5861 78.7307 35.5495 78.7391 35.5144C79.242 34.4469 79.7602 33.3946 80.2631 32.3424C80.5832 32.0679 80.6442 31.6256 80.9033 31.3054C81.1623 30.9851 81.33 30.6039 81.5891 30.2989C81.909 29.86 82.3559 29.53 82.8693 29.3534C83.103 29.2867 83.3486 29.2726 83.5884 29.3122C83.8281 29.3517 84.0562 29.4439 84.2562 29.5821C84.3781 29.6584 84.4391 29.8261 84.5305 29.9634C84.5146 30.09 84.5146 30.2181 84.5305 30.3446C84.6524 30.9546 84.2105 31.4274 84.1647 31.9764C83.8633 32.3791 83.5981 32.8078 83.3722 33.2574C82.8663 34.0026 82.2895 34.6972 81.65 35.3314C81.5315 35.4535 81.4244 35.5862 81.33 35.7279C80.9173 36.2138 80.4345 36.6352 79.8974 36.9784C79.8974 36.9784 79.8974 37.2071 79.7754 37.3291C79.6535 37.4511 79.6383 37.6494 79.8517 37.8324C80.3022 37.8502 80.7479 37.7334 81.1319 37.4969L82.2597 36.7649C82.2795 36.4971 82.3575 36.2369 82.4883 36.0024C82.8735 35.2343 83.4255 34.5622 84.1038 34.0351C84.3865 33.7512 84.734 33.5403 85.1164 33.4208C85.4987 33.3012 85.9044 33.2765 86.2984 33.3489C86.5771 33.3773 86.8405 33.4905 87.053 33.6732C87.2655 33.8558 87.417 34.0992 87.4872 34.3706C87.4361 35.2728 87.0689 36.1282 86.4501 36.7864C85.8314 37.4445 85.0006 37.8635 84.1038 37.9696C83.8447 38.1374 83.9666 38.3966 83.9361 38.6101C84.1952 38.8236 84.4391 39.0066 84.7896 38.7931C84.8963 38.7931 85.0639 38.7931 85.1401 38.7931C85.4339 38.6056 85.7453 38.4473 86.0698 38.3204C86.4085 38.1972 86.712 37.993 86.9538 37.7256L87.7158 37.0851C87.8853 36.3396 88.1901 35.6314 88.615 34.9959C88.9202 34.5383 89.2957 34.1317 89.7275 33.7911C89.8895 33.6366 90.081 33.5165 90.2905 33.4379C90.5 33.3593 90.7232 33.3238 90.9468 33.3336C91.2888 33.3421 91.6299 33.3727 91.9679 33.4251C92.1188 33.4624 92.2597 33.5322 92.3808 33.6297C92.5019 33.7272 92.6002 33.8499 92.669 33.9894C92.7567 34.1343 92.8141 34.2955 92.8377 34.4633C92.8613 34.6311 92.8505 34.8019 92.8061 34.9654C92.596 35.7699 92.1565 36.4958 91.5412 37.0546C91.1573 37.3747 90.7252 37.6321 90.261 37.8171C90.1238 37.8934 90.1238 37.9696 90.0476 38.0764H89.4837L89.2551 38.2594C89.377 38.5491 89.4532 38.8541 89.819 38.8999C89.9377 38.8268 90.0659 38.7704 90.2 38.7321C90.7232 38.6918 91.2223 38.4952 91.6326 38.1679C92.1813 37.7714 92.5928 37.2681 93.1567 36.8259H93.5072L93.6748 37.0089V37.6646C93.3243 38.0306 92.9281 38.4271 92.547 38.8541C92.0069 39.3972 91.3425 39.8003 90.6115 40.0284C89.9741 40.2457 89.2828 40.2457 88.6455 40.0284C88.4456 39.9587 88.2624 39.8482 88.1076 39.7038C87.9528 39.5593 87.8297 39.3843 87.7463 39.1896C87.6689 39.042 87.5824 38.8994 87.4872 38.7626L86.3137 39.6624C86.2132 39.7447 86.0918 39.7975 85.9631 39.8149C85.7955 39.8149 85.7193 39.9216 85.6126 39.9979C85.5059 40.0741 85.2925 40.1961 85.2316 40.1504C85.1706 40.1046 85.003 40.1504 84.8963 40.1504H83.5856C82.8083 39.7844 82.2292 39.3116 82.2901 38.3509L80.6746 38.9914L80.5527 39.2659L80.7661 39.3879C80.7661 39.7844 80.7661 40.0894 80.949 40.2876C80.9373 40.4195 80.9373 40.5522 80.949 40.6841C81.008 41.5052 80.7518 42.3178 80.2327 42.9564C80.1377 43.0721 80.0512 43.1944 79.9736 43.3224C79.678 43.6995 79.2736 43.9763 78.8153 44.1154C78.5438 44.1676 78.2686 44.1982 77.9923 44.2069L77.3979 43.8256C77.3979 43.8256 77.3979 43.7341 77.3979 43.7189C77.1894 43.4264 77.0298 43.1019 76.9255 42.7581V41.6296C76.9255 41.4771 76.9255 41.2941 76.9255 41.1874C77.0969 40.9381 77.1627 40.6311 77.1084 40.3334L77.2303 40.0894L77.5808 39.0219L77.9618 38.2441C77.6113 38.4729 77.1693 38.1221 76.8797 38.5339L76.7578 38.7931C76.5749 38.9761 76.392 39.1744 76.6359 39.4641C76.6359 39.4641 76.6359 39.6471 76.6359 39.7386V40.0894C76.6359 40.2114 76.514 40.3334 76.5292 40.4554C76.5499 40.9937 76.4064 41.5256 76.1177 41.9804C75.8439 42.5863 75.4187 43.1115 74.8832 43.5054C74.7211 43.6199 74.5474 43.717 74.3651 43.7951C74.0854 43.8925 73.8004 43.974 73.5116 44.0391C73.3697 44.0363 73.2298 44.0052 73.1001 43.9476L72.5819 43.7036L72.2619 43.2614C72.2087 42.882 72.2087 42.497 72.2619 42.1176C72.3746 41.7728 72.4662 41.4214 72.5362 41.0654C72.6429 40.6841 72.78 40.3181 72.8867 39.9521C73.161 38.9456 73.5421 37.9849 73.8926 36.9936L72.2466 37.4816C72.2055 37.5392 72.1698 37.6005 72.1399 37.6646C71.8551 38.3993 71.3692 39.0388 70.7378 39.5099C70.4903 39.7626 70.171 39.933 69.8234 39.9979C69.5884 40.0668 69.3668 40.1751 69.168 40.3181H68.3907L68.1621 40.0894H67.6744ZM70.4787 34.7671C69.8805 35.2113 69.3997 35.7949 69.0784 36.4674C68.757 37.1398 68.6046 37.8806 68.6346 38.6254L68.8632 38.7321L69.0461 38.8999C69.5521 38.686 70.0038 38.3612 70.3678 37.9495C70.7318 37.5377 70.9988 37.0496 71.1493 36.5209C70.9866 36.3673 70.8387 36.1988 70.7073 36.0176C70.5795 35.815 70.5012 35.5852 70.4787 35.3466C70.3873 35.2094 70.6159 35.0111 70.4787 34.7671ZM78.6629 42.9106C79.1701 42.4324 79.4982 41.7946 79.5925 41.1036C79.6868 40.4127 79.5416 39.7102 79.1811 39.1134C79.0046 39.4605 78.8469 39.8168 78.7086 40.1809C78.5867 40.5164 78.5714 40.9129 78.419 41.2331C78.2666 41.5534 78.5105 42.0566 78.2666 42.3159V42.7886L78.0228 42.8649L78.6629 42.9106ZM74.9594 41.6144C74.953 41.4715 74.9845 41.3294 75.0509 41.2026C75.2205 40.8669 75.3093 40.4961 75.31 40.1199C75.2756 39.9745 75.2756 39.8231 75.31 39.6776C75.351 39.5812 75.3722 39.4775 75.3722 39.3726C75.3722 39.2678 75.351 39.1641 75.31 39.0676C75.31 38.9151 75.31 38.6711 74.868 38.6711C74.868 38.6711 74.7918 38.7474 74.7918 38.8084C74.7918 39.2506 74.3498 39.5556 74.3803 40.0131C74.3803 40.1809 74.2431 40.3486 74.1669 40.5164C74.1149 40.6151 74.0877 40.725 74.0877 40.8366C74.0877 40.9483 74.1149 41.0582 74.1669 41.1569H73.9993L73.8469 42.2396L74.0755 42.4379L74.9594 41.6144ZM84.3019 36.7344C84.7963 36.6417 85.2494 36.3964 85.5973 36.0329C85.9286 35.6485 86.1915 35.21 86.3746 34.7366L86.0698 34.5231C85.9119 34.5212 85.7559 34.5577 85.6152 34.6294C85.4745 34.7011 85.3533 34.806 85.262 34.9349C84.8143 35.4645 84.4728 36.0755 84.2562 36.7344H84.3019ZM76.4835 34.7214C76.8597 34.3627 77.2015 33.9695 77.5046 33.5471C77.6722 33.3031 77.9009 33.1201 78.0533 32.8761C78.3785 32.3833 78.6786 31.8743 78.9525 31.3511C79.0281 31.2324 79.0781 31.0992 79.0991 30.96C79.1201 30.8207 79.1117 30.6787 79.0744 30.5429C78.0059 31.7976 77.1325 33.2062 76.4835 34.7214ZM81.0557 34.8129L81.1471 34.8891L82.0006 33.7606C82.6519 32.9586 83.181 32.0644 83.5704 31.1071C83.6409 30.9257 83.6409 30.7243 83.5704 30.5429C83.4368 30.6582 83.3143 30.7859 83.2046 30.9241C82.6283 31.7249 82.1186 32.5716 81.6805 33.4556C81.4887 33.7837 81.3206 34.1252 81.1776 34.4774C81.1068 34.5965 81.0251 34.7088 80.9337 34.8129H81.0557ZM91.724 34.7214C91.7047 34.6731 91.6752 34.6295 91.6377 34.5935C91.6002 34.5575 91.5554 34.5299 91.5063 34.5126C91.4573 34.4953 91.4051 34.4886 91.3533 34.4931C91.3015 34.4975 91.2512 34.513 91.2059 34.5384C90.9773 34.7214 90.6877 34.8129 90.52 35.1026C90.3524 35.3924 90.0171 36.0024 89.819 36.4751C89.819 36.5666 89.819 36.6429 89.6818 36.7954C90.1573 36.6488 90.5861 36.3802 90.9257 36.0164C91.2653 35.6525 91.5037 35.2061 91.6174 34.7214H91.724Z" fill="#EBB667"/>
<path d="M98.6274 40.2571L98.1702 40.0284C97.8206 39.8453 97.5221 39.578 97.3015 39.2506C97.143 39.0052 97.0584 38.7194 97.0576 38.4271C97.0709 38.1702 97.1554 37.9221 97.3015 37.7104C97.356 37.6219 97.4322 37.5489 97.5229 37.4981C97.6136 37.4474 97.7158 37.4208 97.8196 37.4206C97.9465 37.413 98.0738 37.413 98.2007 37.4206C98.3431 37.5658 98.4568 37.7365 98.536 37.9239C98.5521 38.0696 98.6116 38.207 98.7067 38.3185C98.8018 38.43 98.9281 38.5103 99.0694 38.5491C99.2516 38.5267 99.4358 38.5267 99.618 38.5491C99.7116 38.5626 99.8069 38.5574 99.8985 38.5339C99.99 38.5103 100.076 38.4689 100.151 38.4119C100.614 38.1633 101.019 37.8204 101.34 37.4054C101.569 37.0699 101.843 36.7496 102.087 36.4141C102.401 35.8917 102.686 35.352 102.94 34.7976C102.94 34.6756 103.062 34.5079 103.154 34.3554C103.245 34.2029 103.154 34.0961 103.154 33.9589H103.352V33.7911L103.581 33.3489L103.443 33.2116L103.596 33.0439C103.748 32.4339 103.901 31.8696 104.023 31.3206C104.144 30.7716 104.251 30.2226 104.358 29.6279L104.038 29.3381L103.824 29.4754C103.281 29.732 102.809 30.1198 102.453 30.6039C102.148 30.9851 101.965 31.4274 101.676 31.8239C101.483 32.2006 101.359 32.6085 101.31 33.0286C101.31 33.1049 101.31 33.1811 101.31 33.2574C101.261 33.3572 101.236 33.4667 101.236 33.5776C101.236 33.6886 101.261 33.7981 101.31 33.8979C101.463 34.2457 101.595 34.6021 101.706 34.9654L101.203 35.3161L101.294 35.4076H100.715L100.09 34.9959C100.012 34.8388 99.926 34.6861 99.8314 34.5384C99.6723 34.3266 99.5819 34.0712 99.5723 33.8064C99.5723 33.5166 99.5723 33.2269 99.5723 32.9219C99.5566 32.8516 99.5566 32.7787 99.5723 32.7084C99.8831 31.9919 100.272 31.3118 100.731 30.6801C101.091 30.2258 101.489 29.8025 101.919 29.4144C102.485 28.8559 103.167 28.429 103.916 28.1639L104.19 28.0876H105.013L105.699 28.1944L106.415 28.9111C106.4 29.1498 106.4 29.3892 106.415 29.6279C106.415 29.9939 106.263 30.2989 106.293 30.6496C105.943 31.3206 105.943 32.1746 105.592 32.7846C105.486 33.3465 105.301 33.8907 105.044 34.4011C104.846 34.9959 104.51 35.5144 104.266 36.0939C104.107 36.4483 103.897 36.7772 103.642 37.0699C103.205 37.7266 102.693 38.3304 102.117 38.8694C101.744 39.1846 101.347 39.4701 100.929 39.7234C100.252 40.1748 99.4338 40.3645 98.6274 40.2571Z" fill="#EBB667"/>
<path d="M119.157 34.0045L119.462 33.5318C119.934 33.364 120.254 33.6538 120.62 33.852V34.462C120.452 35.011 120.01 35.3923 119.889 35.987C119.889 36.231 119.538 36.3835 119.553 36.6733C119.291 37.0353 119.132 37.4626 119.096 37.9085C119.096 38 119.02 38.0763 118.974 38.183L119.157 38.61C119.477 38.61 119.645 38.3965 119.858 38.2593C120.179 38.0148 120.48 37.7444 120.757 37.451C121.089 37.174 121.338 36.8095 121.474 36.3988C121.687 35.7573 121.984 35.1471 122.357 34.584C122.431 34.4579 122.492 34.3252 122.54 34.1875C122.653 34.0082 122.775 33.8351 122.906 33.669C123.106 33.6303 123.311 33.632 123.51 33.6739C123.709 33.7158 123.897 33.7971 124.064 33.913C124.143 34.0274 124.185 34.163 124.185 34.3019C124.185 34.4407 124.143 34.5763 124.064 34.6908C123.925 34.9069 123.836 35.152 123.805 35.4075L124.202 34.9348C124.375 34.8104 124.538 34.6727 124.689 34.523C124.991 34.182 125.359 33.9068 125.771 33.7148C125.924 33.6047 126.102 33.5356 126.289 33.5143C126.476 33.4929 126.665 33.5199 126.838 33.5928C126.975 33.669 127.174 33.669 127.189 33.913C127.204 34.157 127.341 34.0808 127.417 34.1723V34.7975C126.856 35.899 126.377 37.0408 125.985 38.2135L126.29 38.3355L126.686 38.2135L127.356 37.5425C127.606 37.3089 127.807 37.0293 127.951 36.719C128.332 35.9246 128.847 35.2022 129.475 34.584C129.964 34.1257 130.512 33.7358 131.106 33.425L131.852 33.303C132.142 33.4403 132.553 33.5013 132.782 33.8825C132.919 33.547 133.056 33.2268 133.163 32.9065C133.345 32.5271 133.483 32.128 133.575 31.717C133.575 31.412 133.94 31.1985 133.925 30.8478C134.184 30.68 134.138 30.3445 134.306 30.1158C134.474 29.887 134.748 29.5515 134.946 29.3075L135.693 29.1245L136.15 29.3685V30.009C135.791 30.6664 135.48 31.3494 135.221 32.0525C135.099 32.4033 134.931 32.7235 134.794 33.059L134.108 34.584C133.959 34.9158 133.831 35.2571 133.727 35.6058C133.529 36.1395 133.209 36.6123 133.056 37.1308C132.97 37.4027 132.863 37.6677 132.736 37.9238V38.427L132.904 38.5948H133.224C134.016 38.0083 134.724 37.3155 135.327 36.536L135.693 36.8563V37.4663C135.468 37.8747 135.18 38.2453 134.84 38.5643C134.55 38.8388 134.276 39.1133 134.001 39.403C133.782 39.6524 133.509 39.8482 133.203 39.9751C132.896 40.102 132.564 40.1567 132.233 40.135H132.02L131.471 39.8605L131.182 39.4335V38.732C130.877 39.0523 130.633 39.3115 130.374 39.5555C130.203 39.7339 129.997 39.8749 129.769 39.9694C129.54 40.0639 129.295 40.1099 129.048 40.1045C128.717 40.086 128.401 39.9598 128.148 39.7451C127.895 39.5304 127.718 39.239 127.646 38.915C127.624 38.8597 127.593 38.8082 127.555 38.7625C127.189 38.9303 127.036 39.2963 126.747 39.525C126.457 39.7538 126.091 39.8605 125.771 40.1045C125.62 40.0114 125.446 39.9622 125.268 39.9622C125.091 39.9622 124.917 40.0114 124.766 40.1045C124.613 39.9215 124.552 39.647 124.263 39.6165C124.096 39.2978 124.048 38.9305 124.125 38.5795C124.186 38.3322 124.273 38.0919 124.384 37.8628C124.384 37.7255 124.384 37.7103 124.384 37.634H124.552L124.689 37.207L125.253 35.5143C125.253 35.5143 125.07 35.5143 125.009 35.6058C124.439 36.1438 123.928 36.742 123.485 37.39C123.287 37.6798 123.028 37.939 122.845 38.244C122.662 38.549 122.205 39.2505 121.9 39.769C121.809 39.9063 121.717 40.013 121.626 40.135H121.032L120.59 39.8148L120.437 39.3573C120.087 39.5555 119.736 39.7995 119.37 39.9978C118.962 40.1487 118.522 40.1958 118.09 40.135L117.496 39.5403V38.8845C116.81 39.6318 116.139 40.3028 115.042 40.1045C114.31 39.6623 114.112 39.403 114.036 38.7015L113.091 39.5098C112.723 39.755 112.308 39.9212 111.872 39.9978C111.659 39.9978 111.46 40.1808 111.262 39.9978C110.5 39.9978 110.196 39.4488 109.982 38.8083C109.232 39.4023 108.401 39.8851 107.513 40.2418L107.391 40.1198C106.984 40.334 106.519 40.409 106.065 40.3333C105.695 40.1174 105.338 39.878 104.998 39.6165C104.648 39.342 104.602 38.8845 104.358 38.4728V37.6645C104.834 37.2075 105.253 36.6956 105.608 36.1395C105.845 35.7847 106.127 35.4618 106.446 35.1788C106.804 34.8122 107.12 34.4083 107.391 33.974C107.511 33.8014 107.643 33.6382 107.788 33.486C108.023 33.3166 108.299 33.2119 108.588 33.1825C108.877 33.1531 109.168 33.1999 109.434 33.3183L109.815 33.8368C109.674 34.0334 109.516 34.2172 109.342 34.3858C109.105 34.6307 108.973 34.9595 108.976 35.3008C108.976 35.6668 108.976 36.0175 108.976 36.3683C108.976 36.719 108.885 36.7343 108.87 36.9173C108.855 37.1051 108.855 37.2937 108.87 37.4815L109.19 37.817L109.373 37.7103C109.571 37.6391 109.747 37.5171 109.883 37.3566C110.02 37.196 110.112 37.0025 110.15 36.7953C110.423 35.7104 110.822 34.6612 111.339 33.669C111.598 33.1353 111.887 32.632 112.146 32.144C112.533 31.3712 113.049 30.6699 113.67 30.07C113.857 29.827 114.105 29.6391 114.39 29.5263C114.674 29.4136 114.984 29.3801 115.286 29.4295C115.468 29.5052 115.632 29.6193 115.766 29.764C115.9 29.9088 116.001 30.0807 116.063 30.2683C116.067 30.6259 116.01 30.9817 115.896 31.3205C115.789 31.7628 115.56 32.1288 115.438 32.5558C115.279 32.9114 115.074 33.2447 114.829 33.547C114.379 34.2416 113.869 34.8948 113.305 35.499C113.152 35.6363 112.985 35.743 112.817 35.8803C112.253 36.3551 111.875 37.0141 111.75 37.7408C111.723 37.8942 111.739 38.052 111.795 38.1971C111.852 38.3423 111.947 38.4692 112.07 38.5643L112.39 38.427C112.791 38.2711 113.155 38.0321 113.457 37.7255C114.046 37.1541 114.559 36.5081 114.981 35.804C115.239 35.3874 115.546 35.0034 115.896 34.6603C116.23 34.3072 116.592 33.9809 116.978 33.6843C117.284 33.4855 117.618 33.3315 117.968 33.2268C118.155 33.1972 118.346 33.2122 118.526 33.2705C118.707 33.3288 118.87 33.4288 119.005 33.5623C119.074 33.7025 119.125 33.8511 119.157 34.0045ZM131.593 34.6908C130.77 35.194 130.77 35.194 130.069 36.2158C129.662 36.83 129.42 37.5392 129.368 38.2745C129.521 38.5643 129.719 38.5033 129.886 38.5033C130.537 38.0597 131.062 37.4556 131.41 36.7495C131.836 36.103 132.127 35.3767 132.264 34.6145L131.593 34.6908ZM117.877 34.8128C117.21 35.1326 116.672 35.6706 116.353 36.3378C115.901 36.9551 115.675 37.7087 115.713 38.4728C115.805 38.5226 115.902 38.5634 116.002 38.5948C116.115 38.5972 116.227 38.5769 116.332 38.535C116.437 38.493 116.532 38.4304 116.612 38.3508C116.977 37.9216 117.313 37.4681 117.618 36.9935C117.74 36.841 117.618 36.7038 117.724 36.5513C117.831 36.3988 117.816 36.4445 117.862 36.3835C118.138 35.9112 118.334 35.3957 118.441 34.8585L117.877 34.8128ZM107.208 36.3378C107.01 36.7495 106.553 36.902 106.34 37.2833C106.126 37.6645 105.654 37.8933 105.623 38.4575L106.218 38.8693L106.827 38.671C106.827 38.5643 107.117 38.3965 107.147 38.1983C107.229 37.8888 107.28 37.5722 107.3 37.2528C107.271 37.0045 107.271 36.7537 107.3 36.5055L107.208 36.3378Z" fill="#EBB667"/>
<path d="M115.393 30.1157H115.972C115.839 30.8838 115.548 31.6159 115.118 32.266C114.768 32.9665 114.243 33.5651 113.594 34.0045C113.442 34.0045 113.229 34.0045 113.076 33.791C113.126 33.0504 113.367 32.3356 113.777 31.717C114.585 30.619 114.585 30.619 115.393 30.1157Z" fill="#754C24"/>
</svg>
