<svg width="1080" height="800" viewBox="0 0 1080 800" fill="none" xmlns="http://www.w3.org/2000/svg">
<g clip-path="url(#clip0_815_26532)">
<path d="M0.589844 350.77C3.93984 339.59 21.3798 286.07 51.8298 274.17C85.8298 260.87 134 210.78 164.91 193.57C195.82 176.36 212.65 167.74 244.35 161.48C276.05 155.22 349.09 123.29 353.52 122.74C359.03 122.06 447.83 125.48 447.83 125.48C447.83 125.48 516.73 129.33 549.55 116.41C550.172 116.161 550.777 115.87 551.36 115.54C563.331 108.463 572.819 97.8542 578.52 85.1699C578.52 85.1699 587.52 66.3899 610.61 57.7799C633.7 49.1699 694.74 24.5199 706.09 22.9999C717.44 21.4799 736.22 15.5599 752.26 22.9999C768.3 30.4399 785.13 45.6899 785.13 100.47C785.13 104.14 791.32 118.13 818.53 131.47C820.314 132.335 821.896 133.564 823.176 135.078C824.456 136.592 825.404 138.357 825.96 140.26C828.84 150.2 834.88 169.19 840.3 174.04C847.74 180.69 853.22 202.61 858.7 207.3C863.97 211.83 879.06 227.3 900.1 231.87C900.9 232.04 901.71 232.2 902.52 232.34C924.83 236.26 932.65 263.26 963.57 275.78C994.49 288.3 1007.39 294.95 1014.43 307.87C1021.47 320.79 1028.52 322.34 1027.74 349.34C1026.96 376.34 1045 381.78 1045 381.78C1045 381.78 1071.25 390.91 1071.23 417.06C1071.23 417.695 1071.3 418.327 1071.42 418.95C1072.1 422.28 1072.28 434.95 1034.17 430.75C1031.68 430.464 1029.16 430.836 1026.86 431.83C1013.5 437.67 966.1 460.52 929.17 505.43C891.84 550.84 879.94 569.94 877.34 574.43C876.831 575.296 876.419 576.214 876.11 577.17C875.11 580.25 873.32 587.68 873.61 600.54C874 618.15 854.43 665.89 859.52 699.54C864.61 733.19 903.61 791.41 905.52 800.02" stroke="#D3D3D3" stroke-width="3" stroke-miterlimit="10"/>
<path d="M14.24 800C10.4641 799.997 6.84367 798.496 4.17372 795.826C1.50378 793.156 0.00264881 789.536 0 785.76" stroke="#D3D3D3" stroke-width="3" stroke-miterlimit="10"/>
<path d="M325.35 800C325.35 800 317.13 785.22 325.35 780.91C333.57 776.6 435.43 698.74 439.09 693C442.75 687.26 443.26 675.26 443.26 675.26C451.09 637.17 509.52 589.17 509.52 589.17C487.09 564.65 494.39 470.22 494.39 470.22C509 436.83 499.61 422.74 499.61 422.74L475.09 425.35C450.57 427.96 430.74 397.7 430.74 397.7C430.74 397.7 432.83 377.87 433.35 361.7C433.87 345.53 422.91 331.43 419.78 312.13C416.65 292.83 435.43 276.65 435.43 276.65L460 280.3C514.26 269.35 519.47 215.09 520 201C520.53 186.91 492.87 160.3 489.21 153.52C485.55 146.74 447.87 125.52 447.87 125.52" stroke="#D3D3D3" stroke-width="3" stroke-miterlimit="10"/>
<path d="M138.63 211.83C138.63 211.83 175.09 235.43 203.26 251.09C231.43 266.75 256.48 311.35 256.48 324.65C256.48 337.95 280 406 318.3 419.35C356.6 432.7 387.17 470.22 377 493.7C377 493.7 345.43 548.48 347.26 555.52C348.26 559.31 403.95 648.87 442.91 679.28" stroke="#D3D3D3" stroke-width="3" stroke-miterlimit="10"/>
<path d="M0 400L4.48 431.61C4.48 431.61 46.74 453.7 55.09 462.74C63.44 471.78 120.3 568.83 124.48 570.91C128.66 572.99 151.61 582.91 158.39 592.83C165.17 602.75 229.87 640.3 236.13 646C242.39 651.7 262.74 716.44 269.52 720.61C276.3 724.78 278.91 728.44 273.7 735.74C268.49 743.04 260.65 786.35 242.39 794.74L234 800" stroke="#D3D3D3" stroke-width="3" stroke-miterlimit="10"/>
<path d="M509.52 589.17C509.52 589.17 629.52 592.3 635.78 570.39C642.04 548.48 639.43 529.17 650.39 525C661.35 520.83 782.39 488.48 806.39 477.52C806.39 477.52 828.83 476.52 840.83 457.7C852.83 438.88 966 413.87 996.3 417C1026.6 420.13 1030.48 430.3 1030.48 430.3" stroke="#D3D3D3" stroke-width="3" stroke-miterlimit="10"/>
<path d="M38.9097 800C38.9097 797.35 40.9097 782.48 65.5197 774.65C90.1297 766.82 72.9597 756.65 47.1297 762.52C21.2997 768.39 19.3497 739.83 41.6497 737.87C41.6497 737.87 64.3497 750 61.2197 721.87C61.2197 721.87 63.5697 689 87.4297 686.65C111.29 684.3 132.83 687.65 134.78 679.32C136.73 670.99 142.61 667.87 119.52 661.21C96.4297 654.55 112.52 627.56 122.26 618.56C132 609.56 136.74 599.13 161.78 600.04C186.82 600.95 188.39 600.48 197.78 589.37C207.17 578.26 214.61 557.91 224.78 561.82C234.95 565.73 212.26 607.61 220.87 609.95C229.48 612.29 229.87 598.61 242.78 597.43C255.69 596.25 253.78 604.08 265.09 596.65C276.4 589.22 293.26 582.17 294.83 559.08C296.4 535.99 304.22 525.43 309.3 525.82C314.38 526.21 310.22 546.17 321.7 546.56C333.18 546.95 330.04 542.26 337.09 543.43C341.323 544.138 345.451 545.371 349.38 547.1C349.38 547.1 384.45 553.54 376.22 531.69C367.99 509.84 363.71 502.23 371.73 503.07C379.75 503.91 395.39 510.95 398.91 510.17C402.43 509.39 413 459.17 430.22 462.78C447.44 466.39 447.04 500.39 452.13 507.78C457.22 515.17 460.69 533.22 442.91 549.26C425.13 565.3 448.61 573.52 462.3 575.09C475.99 576.66 493.45 582.38 501.75 575.21C510.05 568.04 492.83 568.04 485.39 545.74C477.95 523.44 485.39 485.48 498.7 480C512.01 474.52 511.61 477.26 511.61 477.26C511.61 477.26 508.36 442.04 519.96 439.26C531.56 436.48 545.65 451.79 545.65 451.79C545.65 451.79 546.04 435.74 572.26 436.53C598.48 437.32 606.7 442.39 603.96 447.87C601.22 453.35 564 471 564.83 479.22C565.66 487.44 575.78 490.17 573.43 500.35C571.08 510.53 553.48 553.57 562.48 556.7C571.48 559.83 574.61 533.61 585.96 532.83C597.31 532.05 609.14 536 610.61 559.43C612.08 582.86 621.61 613.43 580.09 597C580.09 597 562.48 593.09 569.09 611.09C575.7 629.09 585.92 635.74 556.18 638.48C526.44 641.22 493.18 656.09 477.92 685.43C462.66 714.77 456 760.57 460.74 761.35C465.48 762.13 490.61 703.43 509.52 705.35C528.43 707.27 537.04 741.35 547.22 742.53C557.4 743.71 563.22 743.31 567.57 725.31C571.92 707.31 590.65 678.74 625.48 689.31C660.31 699.88 667.35 707.31 668.48 731.57C669.61 755.83 695.48 744.09 706.83 765.22C718.18 786.35 719 789.74 720.57 800" stroke="#E4E2E1" stroke-miterlimit="10"/>
<path d="M483.43 800C483.43 800 488.52 787.17 488.13 780.91C487.74 774.65 495.56 749.61 513.95 754.7C532.34 759.79 534.3 772.7 533.13 777.01C531.96 781.32 533.91 782.87 527.65 789.52C521.39 796.17 520 800 520 800" stroke="#E4E2E1" stroke-miterlimit="10"/>
<path d="M112.48 800C112.48 800 127.35 773.48 145.74 774.26C164.13 775.04 170.74 792.65 180.57 766.43C190.4 740.21 202.09 750 212.65 757.83C212.65 757.83 220.48 762.13 229.09 758.61C229.09 758.61 245.91 762.13 249.04 760.61C252.17 759.09 256.04 754.34 227.91 746.91C199.78 739.48 231.43 714 244 708.52C256.57 703.04 266.69 687.78 246.74 687.39C246.74 687.39 229.13 700.7 216.61 695.61C216.61 695.61 206.82 694.83 211.52 684.61C211.52 684.61 216.61 680.13 193.52 679.24C193.52 679.24 173.17 677.96 175.91 669.74C178.65 661.52 197.82 647.83 212.69 651.74C227.56 655.65 253 666.22 263.95 666.22C274.9 666.22 279.61 665.83 284.69 643.53C289.77 621.23 295.69 598.26 308.95 599.96C322.21 601.66 305.82 631.79 308.95 644.7C312.08 657.61 317.56 670.53 330.47 649.79C343.38 629.05 347.3 625.53 353.95 627.09C360.6 628.65 361.39 634.09 367.26 644.7C373.13 655.31 366.08 656.83 381.34 660.7C396.6 664.57 435.34 680.89 439.26 692.7C443.18 704.51 445.13 721.7 423.61 738.17C402.09 754.64 390.3 772.13 386.78 800" stroke="#E4E2E1" stroke-miterlimit="10"/>
<path d="M215 800C215 800 216.17 784 239.65 783.65C263.13 783.3 289.35 789.52 297.57 764.48C305.79 739.44 273.7 755.87 272.52 728.09C272.52 728.09 265.52 716.35 281.91 717.09C298.3 717.83 292.91 724.92 313.22 720.22C333.53 715.52 339.09 721.45 342.17 744.09C342.17 744.09 338.9 753.16 358.73 756.65C378.56 760.14 383.26 766.39 382.48 773.44C381.7 780.49 376.22 792.22 365.65 792.61C355.08 793 352.74 786 345.3 788C345.3 788 346.85 793.93 334.35 791.91C321.85 789.89 317.91 790.56 317.91 800.04" stroke="#E4E2E1" stroke-miterlimit="10"/>
<path d="M798.57 799.43C798.57 799.43 821.52 775.43 781.87 741C742.22 706.57 748 683.09 706.22 669.52C664.44 655.95 654.57 639.26 668.65 624.65C682.73 610.04 708.3 611.65 720.57 586.04C732.84 560.43 730.74 557.87 720.57 541.7C710.4 525.53 738 525.52 750 530.22C762 534.92 798 529.7 814.7 508.3C831.4 486.9 912.26 412.19 936.26 409.64C960.26 407.09 990.53 408.64 991.05 405.52C991.57 402.4 944.05 383.09 924.26 372.65C904.47 362.21 910.7 345.52 924.79 351.26C938.88 357 959.74 370.57 965.48 362.26C970.94 354.32 974.75 350.16 958.95 337.2C957.337 335.863 955.982 334.243 954.95 332.42C950.21 324.18 933.51 299.76 900.84 296.52C856.98 292.16 855.44 291.3 837.18 277.74C818.92 264.18 801.18 279.82 787.62 291.3C787.62 291.3 737.53 279.3 714.05 294.43C692.21 308.51 687.05 335.68 690.67 358.3C690.72 358.624 690.667 358.954 690.52 359.246C690.372 359.539 690.137 359.777 689.848 359.929C689.558 360.081 689.228 360.139 688.904 360.094C688.58 360.05 688.278 359.905 688.04 359.68C682.41 354.34 671.62 345.68 667.1 352.87C660.84 362.78 655.1 390.46 662.65 400.62C670.2 410.78 672.83 431 648.3 400C623.77 369 654.04 345.52 644.65 340.3C635.26 335.08 575.26 354.91 544 346C512.74 337.09 490.26 333.48 478.78 337.13C467.3 340.78 466.26 321.48 476.69 319.39C487.12 317.3 562.26 318.39 564.34 287.57C566.42 256.75 556.52 255.74 575.34 248.96C594.16 242.18 605.6 247.39 604.56 179.57C604.56 179.57 605.08 155.57 563.34 191.05C563.34 191.05 537.45 229.99 533.6 203.05C533.08 199.39 557.6 189.48 546.12 181.13C537 174.5 522.12 181.06 516.39 184.04C514.914 184.797 513.379 185.432 511.8 185.94C504.45 188.31 481.51 199.14 481.95 241.66C482.47 292.26 456.38 273.74 455.6 273.48C454.82 273.22 395.78 254 379.87 254.74C363.96 255.48 353.26 259.17 339.96 271.17C326.66 283.17 308.11 293.87 290.77 300.39C273.43 306.91 245.52 299.61 234.04 310.57C222.56 321.53 222.04 330.65 226.22 340.3C230.4 349.95 272.63 374 290.77 380C308.91 386 330.3 397.47 326.65 404.78C323 412.09 276.04 400.61 265.65 397.47C255.26 394.33 247.35 392.22 246 406C244.65 419.78 256.18 443.31 256.7 447.22C257.22 451.13 259.83 465.74 243.92 449.31C228.01 432.88 230.09 420.09 201.39 424.79C172.69 429.49 115.27 463.24 83.2 506.23C51.13 549.22 44.61 592.53 44.87 602.7C45.13 612.87 29.22 593.05 19.05 594.09C8.88 595.13 8.09 615.78 0 615.78" stroke="#E4E2E1" stroke-miterlimit="10"/>
<path d="M714 100.83C714 100.83 652 106 633.7 132.13C615.4 158.26 628.48 193.13 638.91 196.3C649.34 199.47 674.91 207.78 694.74 221.87C714.57 235.96 716.65 244.87 741.74 248.48C766.83 252.09 799.65 248.48 785.04 210.39C770.43 172.3 735.43 165.52 724 164C712.57 162.48 717.21 149.91 718.26 147.82C719.31 145.73 764.13 106.57 714 100.83Z" stroke="#E4E2E1" stroke-miterlimit="10"/>
<path d="M677 145.32C672.307 145.411 667.816 147.246 664.403 150.469C660.99 153.691 658.9 158.07 658.54 162.75C658.33 165.4 658.73 167.75 660.28 169.17C665.5 173.87 678.02 191.61 684.81 197.35C691.6 203.09 697.02 212.48 706.56 212.48C716.1 212.48 720.28 198.91 693.68 180.65C689.112 172.31 686.547 163.022 686.19 153.52C686.06 147.09 681.83 145.28 677 145.32Z" stroke="#E4E2E1" stroke-miterlimit="10"/>
<path d="M509.52 589.17C487.09 564.65 494.39 470.22 494.39 470.22C509 436.83 499.61 422.74 499.61 422.74L475.09 425.35C450.57 427.96 430.74 397.7 430.74 397.7C430.74 397.7 432.83 377.87 433.35 361.7C433.87 345.53 422.91 331.43 419.78 312.13C416.65 292.83 435.43 276.65 435.43 276.65L460 280.3C514.26 269.35 519.47 215.09 520 201C520.53 186.91 492.87 160.3 489.21 153.52C485.55 146.74 447.87 125.52 447.87 125.52" stroke="#FB76FF" stroke-width="3" stroke-miterlimit="10"/>
<path d="M509.52 589.17C509.52 589.17 629.52 592.3 635.78 570.39C642.04 548.48 639.43 529.17 650.39 525C661.35 520.83 782.39 488.48 806.39 477.52C806.39 477.52 828.83 476.52 840.83 457.7C852.83 438.88 966 413.87 996.3 417C1026.6 420.13 1030.48 430.3 1030.48 430.3L1034.13 430.75C1072.24 434.99 1072.06 422.28 1071.38 418.95C1071.26 418.327 1071.19 417.695 1071.19 417.06C1071.19 390.91 1044.96 381.78 1044.96 381.78C1044.96 381.78 1026.96 376.3 1027.74 349.3C1028.52 322.3 1021.48 320.74 1014.43 307.83C1007.38 294.92 994.48 288.26 963.57 275.74C932.66 263.22 924.83 236.22 902.52 232.3C901.71 232.16 900.9 232 900.1 231.83C879.1 227.21 863.97 211.83 858.7 207.26C853.22 202.57 847.7 180.65 840.3 174C834.88 169.15 828.84 150.16 825.96 140.22C825.404 138.317 824.456 136.552 823.176 135.038C821.897 133.524 820.314 132.295 818.53 131.43C791.32 118.09 785.13 104.1 785.13 100.43C785.13 45.6499 768.3 30.4299 752.26 22.9599C736.22 15.4899 717.43 21.3899 706.09 22.9599C694.75 24.5299 633.7 49.1699 610.61 57.7799C587.52 66.3899 578.52 85.1699 578.52 85.1699C572.819 97.8541 563.331 108.463 551.36 115.54C550.777 115.87 550.172 116.161 549.55 116.41C516.73 129.33 447.83 125.48 447.83 125.48" stroke="#FB76FF" stroke-width="3" stroke-miterlimit="10"/>
</g>
<defs>
<clipPath id="clip0_815_26532">
<rect width="1080" height="800" fill="white"/>
</clipPath>
</defs>
</svg>
