<svg width="1286" height="1052" viewBox="0 0 1286 1052" fill="none" xmlns="http://www.w3.org/2000/svg">
<g clip-path="url(#clip0_804_26453)">
<path d="M0.702148 461.102C4.69113 446.406 25.4577 376.051 61.7157 360.408C102.201 342.925 159.559 277.079 196.365 254.456C233.17 231.833 253.211 220.501 290.957 212.272C328.704 204.043 415.675 162.07 420.95 161.347C427.511 160.453 533.249 164.949 533.249 164.949C533.249 164.949 615.291 170.01 654.371 153.026C655.112 152.698 655.832 152.316 656.526 151.882C670.781 142.579 682.078 128.634 688.867 111.96C688.867 111.96 699.584 87.2725 727.078 75.9543C754.572 64.6361 827.255 32.2326 840.77 30.2345C854.285 28.2364 876.647 20.4543 895.746 30.2345C914.846 40.0147 934.886 60.0615 934.886 132.072C934.886 136.896 942.257 155.287 974.657 172.823C976.781 173.96 978.665 175.575 980.189 177.566C981.713 179.556 982.842 181.876 983.504 184.378C986.933 197.444 994.125 222.407 1000.58 228.783C1009.44 237.525 1015.96 266.34 1022.49 272.505C1028.76 278.46 1046.73 298.796 1071.79 304.803C1072.74 305.027 1073.7 305.237 1074.67 305.421C1101.23 310.574 1110.54 346.067 1147.36 362.525C1184.18 378.983 1199.54 387.724 1207.92 404.708C1216.31 421.692 1224.7 423.73 1223.77 459.222C1222.84 494.715 1244.32 501.866 1244.32 501.866C1244.32 501.866 1275.58 513.868 1275.56 548.243C1275.56 549.078 1275.64 549.909 1275.78 550.728C1276.59 555.105 1276.81 571.76 1231.43 566.239C1228.46 565.863 1225.46 566.353 1222.72 567.659C1206.82 575.336 1150.37 605.373 1106.4 664.409C1061.95 724.103 1047.78 749.211 1044.68 755.113C1044.08 756.251 1043.59 757.459 1043.22 758.715C1042.03 762.764 1039.9 772.531 1040.24 789.436C1040.71 812.585 1017.4 875.341 1023.47 919.575C1029.53 963.81 1075.96 1040.34 1078.24 1051.66" stroke="url(#paint0_linear_804_26453)" stroke-width="3" stroke-miterlimit="10"/>
<path d="M16.9561 1051.63C12.4601 1051.63 8.14903 1049.66 4.96982 1046.15C1.79061 1042.64 0.00315404 1037.88 0 1032.92" stroke="url(#paint1_linear_804_26453)" stroke-width="3" stroke-miterlimit="10"/>
<path d="M387.408 1051.63C387.408 1051.63 377.62 1032.21 387.408 1026.54C397.196 1020.87 518.485 918.524 522.843 910.978C527.201 903.433 527.808 887.658 527.808 887.658C537.132 837.587 606.706 774.489 606.706 774.489C579.998 742.257 588.691 618.124 588.691 618.124C606.087 574.232 594.906 555.71 594.906 555.71L565.709 559.141C536.512 562.572 512.9 522.794 512.9 522.794C512.9 522.794 515.389 496.726 516.008 475.47C516.627 454.214 503.576 435.679 499.849 410.308C496.122 384.938 518.485 363.668 518.485 363.668L547.741 368.466C612.351 354.072 618.554 282.745 619.185 264.223C619.817 245.701 586.881 210.721 582.523 201.809C578.164 192.896 533.297 165.001 533.297 165.001" stroke="url(#paint2_linear_804_26453)" stroke-width="3" stroke-miterlimit="10"/>
<path d="M165.072 278.46C165.072 278.46 208.487 309.483 242.03 330.069C275.573 350.654 305.401 409.283 305.401 426.766C305.401 444.25 333.407 533.705 379.013 551.254C424.618 568.803 461.019 618.125 448.909 648.99C448.909 648.99 411.317 721.001 413.497 730.255C414.687 735.237 481 852.968 527.391 892.943" stroke="url(#paint3_linear_804_26453)" stroke-width="3" stroke-miterlimit="10"/>
<path d="M0 525.817L5.33452 567.37C5.33452 567.37 55.6552 596.408 65.5979 608.292C75.5406 620.175 143.246 747.752 148.223 750.486C153.201 753.22 180.528 766.26 188.601 779.301C196.675 792.341 273.716 841.702 281.17 849.195C288.624 856.688 312.855 941.791 320.928 947.273C329.002 952.755 332.11 957.566 325.906 967.162C319.702 976.758 310.367 1033.69 288.624 1044.72L278.633 1051.63" stroke="url(#paint4_linear_804_26453)" stroke-width="3" stroke-miterlimit="10"/>
<path d="M606.706 774.489C606.706 774.489 749.595 778.604 757.049 749.802C764.503 721.001 761.395 695.617 774.446 690.135C787.496 684.653 931.624 642.128 960.201 627.721C960.201 627.721 986.922 626.406 1001.21 601.666C1015.5 576.927 1150.26 544.05 1186.33 548.164C1222.41 552.279 1227.03 565.648 1227.03 565.648" stroke="url(#paint5_linear_804_26453)" stroke-width="3" stroke-miterlimit="10"/>
<path d="M46.3314 1051.63C46.3314 1048.15 48.7129 1028.6 78.017 1018.31C107.321 1008.02 86.8762 994.649 56.1193 1002.37C25.3625 1010.08 23.0406 972.539 49.5941 969.962C49.5941 969.962 76.6239 985.907 72.8969 948.929C72.8969 948.929 75.6951 905.72 104.106 902.631C132.517 899.542 158.166 903.946 160.488 892.996C162.81 882.045 169.811 877.944 142.317 869.189C114.823 860.434 133.982 824.955 145.58 813.124C157.177 801.293 162.822 787.582 192.638 788.779C222.454 789.975 224.323 789.357 235.504 774.752C246.685 760.148 255.545 733.397 267.654 738.537C279.764 743.677 252.746 798.73 262.999 801.806C273.251 804.882 273.715 786.899 289.088 785.348C304.46 783.796 302.186 794.089 315.653 784.322C329.12 774.555 349.196 765.288 351.066 734.935C352.935 704.582 362.247 690.701 368.296 691.213C374.345 691.726 369.391 717.964 383.061 718.477C396.731 718.99 392.992 712.824 401.387 714.362C406.427 715.293 411.343 716.913 416.021 719.187C416.021 719.187 457.78 727.652 447.98 698.93C438.18 670.207 433.084 660.203 442.634 661.307C452.184 662.412 470.807 671.666 474.998 670.641C479.19 669.615 491.776 603.599 512.28 608.344C532.785 613.09 532.308 657.784 538.369 667.499C544.43 677.213 548.562 700.941 527.391 722.026C506.219 743.111 534.178 753.917 550.479 755.981C566.78 758.045 587.571 765.564 597.454 756.139C607.337 746.713 586.832 746.713 577.973 717.399C569.114 688.085 577.973 638.185 593.822 630.981C609.671 623.777 609.195 627.379 609.195 627.379C609.195 627.379 605.325 581.081 619.137 577.426C632.95 573.772 649.727 593.898 649.727 593.898C649.727 593.898 650.192 572.799 681.413 573.838C712.634 574.876 722.422 581.541 719.159 588.745C715.897 595.948 671.577 619.15 672.566 629.956C673.554 640.761 685.604 644.35 682.806 657.732C680.008 671.114 659.051 727.692 669.768 731.806C680.484 735.921 684.211 701.454 697.726 700.428C711.241 699.403 725.327 704.595 727.078 735.395C728.828 766.195 740.176 806.38 690.737 784.782C690.737 784.782 669.768 779.643 677.638 803.304C685.509 826.966 697.678 835.708 662.266 839.31C626.853 842.911 587.249 862.459 569.079 901.027C550.908 939.596 542.977 999.802 548.622 1000.83C554.266 1001.85 584.189 924.689 606.706 927.213C629.223 929.737 639.475 974.537 651.597 976.088C663.719 977.639 670.649 977.113 675.828 953.451C681.008 929.79 703.311 892.233 744.784 906.128C786.258 920.023 794.64 929.79 795.986 961.68C797.332 993.571 828.136 978.138 841.651 1005.91C855.166 1033.69 856.142 1038.15 858.012 1051.63" stroke="#D3964C" stroke-width="2" stroke-miterlimit="10"/>
<path d="M575.64 1051.63C575.64 1051.63 581.701 1034.77 581.236 1026.54C580.772 1018.31 590.083 985.395 611.981 992.086C633.879 998.777 636.213 1015.75 634.819 1021.41C633.426 1027.08 635.748 1029.12 628.294 1037.86C620.84 1046.6 619.185 1051.63 619.185 1051.63" stroke="#D3964C" stroke-width="2" stroke-miterlimit="10"/>
<path d="M133.935 1051.63C133.935 1051.63 151.641 1016.77 173.539 1017.8C195.436 1018.82 203.307 1041.97 215.012 1007.51C226.717 973.038 240.637 985.907 253.211 996.2C253.211 996.2 262.535 1001.85 272.787 997.226C272.787 997.226 292.815 1001.85 296.542 999.855C300.269 997.857 304.877 991.612 271.382 981.845C237.886 972.078 275.573 938.584 290.541 931.38C305.508 924.176 317.559 904.116 293.803 903.604C293.803 903.604 272.834 921.1 257.926 914.409C257.926 914.409 246.269 913.384 251.866 899.949C251.866 899.949 257.926 894.06 230.432 892.89C230.432 892.89 206.201 891.208 209.463 880.402C212.726 869.597 235.552 851.6 253.259 856.74C270.965 861.88 301.257 875.775 314.296 875.775C327.335 875.775 332.943 875.262 338.992 845.948C345.041 816.634 352.09 786.439 367.879 788.673C383.669 790.908 364.152 830.515 367.879 847.486C371.606 864.457 378.132 881.441 393.504 854.177C408.877 826.913 413.544 822.286 421.463 824.337C429.381 826.388 430.322 833.539 437.311 847.486C444.301 861.433 435.906 863.431 454.077 868.519C472.248 873.606 518.377 895.059 523.045 910.584C527.713 926.109 530.034 948.706 504.41 970.356C478.785 992.007 464.746 1015 460.555 1051.63" stroke="#D3964C" stroke-width="2" stroke-miterlimit="10"/>
<path d="M256.009 1051.63C256.009 1051.63 257.402 1030.6 285.361 1030.14C313.319 1029.68 344.54 1037.86 354.328 1004.94C364.116 972.026 325.905 993.624 324.5 957.106C324.5 957.106 316.165 941.673 335.681 942.646C355.198 943.618 348.779 952.938 372.963 946.76C397.147 940.582 403.768 948.377 407.435 978.138C407.435 978.138 403.542 990.061 427.154 994.649C450.766 999.237 456.363 1007.45 455.434 1016.72C454.505 1025.99 447.98 1041.41 435.394 1041.92C422.808 1042.43 420.021 1033.23 411.162 1035.86C411.162 1035.86 413.008 1043.66 398.124 1041C383.239 1038.34 378.548 1039.23 378.548 1051.69" stroke="#D3964C" stroke-width="2" stroke-miterlimit="10"/>
<path d="M950.89 1050.89C950.89 1050.89 978.217 1019.34 931.004 974.077C883.792 928.817 890.674 897.951 840.925 880.113C791.176 862.275 779.423 840.335 796.189 821.129C812.954 801.924 843.402 804.04 858.012 770.375C872.622 736.709 870.122 733.344 858.012 712.088C845.902 690.832 878.767 690.819 893.056 696.997C907.344 703.175 950.211 696.313 970.096 668.182C989.982 640.051 1086.27 541.842 1114.84 538.489C1143.42 535.137 1179.46 537.175 1180.08 533.074C1180.7 528.972 1124.12 503.588 1100.55 489.865C1076.99 476.141 1084.41 454.201 1101.19 461.746C1117.96 469.292 1142.8 487.13 1149.64 476.206C1156.14 465.769 1160.67 460.3 1141.86 443.264C1139.94 441.507 1138.33 439.377 1137.1 436.98C1131.45 426.149 1111.57 394.047 1072.67 389.788C1020.44 384.057 1018.61 382.926 996.864 365.101C975.121 347.276 953.998 367.835 937.851 382.926C937.851 382.926 878.207 367.152 850.248 387.041C824.243 405.55 818.098 441.266 822.409 471.001C822.468 471.426 822.406 471.861 822.23 472.245C822.055 472.629 821.775 472.942 821.43 473.142C821.085 473.342 820.692 473.418 820.306 473.359C819.92 473.301 819.56 473.11 819.277 472.815C812.573 465.795 799.725 454.411 794.343 463.863C786.889 476.89 780.054 513.277 789.044 526.632C798.034 539.988 801.166 566.568 771.957 525.817C742.748 485.066 778.792 454.201 767.611 447.339C756.43 440.477 684.985 466.545 647.763 454.832C610.54 443.119 583.773 438.374 570.103 443.172C556.433 447.97 555.195 422.599 567.614 419.852C580.034 417.105 669.506 418.537 671.983 378.023C674.459 337.509 662.671 336.181 685.081 327.269C707.491 318.356 721.113 325.205 719.874 236.053C719.874 236.053 720.493 204.503 670.792 251.143C670.792 251.143 639.964 302.332 635.379 266.918C634.76 262.107 663.957 249.08 650.287 238.103C639.428 229.388 621.71 238.011 614.887 241.929C613.129 242.923 611.301 243.759 609.421 244.426C600.669 247.542 573.354 261.778 573.877 317.673C574.497 384.188 543.43 359.843 542.501 359.501C541.573 359.16 471.271 333.894 452.327 334.867C433.382 335.84 420.641 340.69 404.804 356.465C388.967 372.239 366.879 386.305 346.232 394.876C325.584 403.446 292.351 393.85 278.681 408.258C265.011 422.665 264.392 434.654 269.369 447.339C274.347 460.024 324.632 491.639 346.232 499.526C367.832 507.414 393.302 522.491 388.955 532.101C384.609 541.71 328.692 526.619 316.32 522.491C303.948 518.364 294.53 515.59 292.922 533.705C291.315 551.819 305.044 582.75 305.663 587.89C306.282 593.03 309.39 612.235 290.445 590.637C271.501 569.039 273.978 552.226 239.803 558.405C205.629 564.583 137.257 608.949 99.0696 665.461C60.8826 721.973 53.1189 778.906 53.4285 792.275C53.7381 805.644 34.7934 779.59 22.6836 780.957C10.5738 782.324 9.63309 809.469 0 809.469" stroke="#D3964C" stroke-width="2" stroke-miterlimit="10"/>
<path d="M850.189 132.545C850.189 132.545 776.363 139.342 754.572 173.691C732.782 208.04 748.356 253.878 760.776 258.045C773.195 262.212 803.643 273.136 827.255 291.658C850.867 310.18 853.344 321.892 883.22 326.638C913.095 331.383 952.176 326.638 934.779 276.567C917.382 226.496 875.706 217.583 862.096 215.585C848.486 213.587 854.011 197.063 855.261 194.316C856.511 191.568 909.88 140.091 850.189 132.545Z" stroke="#D3964C" stroke-width="2" stroke-miterlimit="10"/>
<path d="M806.132 191.029C800.543 191.149 795.196 193.562 791.132 197.798C787.068 202.034 784.579 207.79 784.15 213.942C783.9 217.425 784.377 220.515 786.222 222.381C792.438 228.56 807.346 251.88 815.431 259.425C823.516 266.971 829.97 279.314 841.33 279.314C852.69 279.314 857.667 261.476 825.993 237.472C820.553 226.51 817.5 214.3 817.074 201.809C816.92 193.356 811.883 190.977 806.132 191.029Z" stroke="#D3964C" stroke-width="2" stroke-miterlimit="10"/>
<path d="M606.706 774.489C579.997 742.257 588.69 618.124 588.69 618.124C606.087 574.232 594.906 555.71 594.906 555.71L565.709 559.141C536.512 562.572 512.899 522.794 512.899 522.794C512.899 522.794 515.388 496.726 516.007 475.47C516.626 454.214 503.576 435.679 499.849 410.308C496.122 384.938 518.484 363.668 518.484 363.668L547.74 368.466C612.35 354.072 618.554 282.745 619.185 264.223C619.816 245.701 586.88 210.721 582.522 201.809C578.164 192.896 533.297 165.001 533.297 165.001" stroke="#FFF9B5" stroke-width="5" stroke-miterlimit="10"/>
<path d="M606.706 774.489C606.706 774.489 749.595 778.604 757.049 749.802C764.503 721.001 761.395 695.617 774.445 690.135C787.496 684.654 931.623 642.128 960.201 627.721C960.201 627.721 986.921 626.406 1001.21 601.666C1015.5 576.927 1150.26 544.05 1186.33 548.164C1222.41 552.279 1227.03 565.648 1227.03 565.648L1231.38 566.239C1276.76 571.813 1276.55 555.105 1275.74 550.728C1275.59 549.91 1275.51 549.078 1275.51 548.243C1275.51 513.868 1244.28 501.866 1244.28 501.866C1244.28 501.866 1222.84 494.663 1223.77 459.17C1224.7 423.677 1216.32 421.627 1207.92 404.656C1199.53 387.685 1184.17 378.93 1147.36 362.472C1110.56 346.014 1101.23 310.521 1074.67 305.368C1073.7 305.184 1072.74 304.974 1071.79 304.751C1046.78 298.677 1028.76 278.46 1022.49 272.452C1015.96 266.287 1009.39 237.472 1000.58 228.73C994.125 222.355 986.933 197.392 983.504 184.325C982.842 181.824 981.713 179.503 980.189 177.513C978.665 175.523 976.781 173.907 974.657 172.77C942.257 155.234 934.886 136.844 934.886 132.02C934.886 60.0089 914.846 40.0015 895.746 30.1819C876.647 20.3623 854.273 28.1181 840.77 30.1819C827.267 32.2457 754.572 64.6361 727.078 75.9543C699.584 87.2725 688.867 111.96 688.867 111.96C682.078 128.634 670.781 142.579 656.526 151.882C655.832 152.316 655.112 152.698 654.371 153.026C615.291 170.01 533.249 164.949 533.249 164.949" stroke="#FFF9B5" stroke-width="5" stroke-miterlimit="10"/>
<path d="M913.466 191.076C913.466 191.076 901.098 190.698 894.999 199.638C888.899 208.578 877.399 200.114 869.075 211.278C860.751 222.442 833.191 206.647 823.636 220.483C815.06 232.92 806.204 233.816 792.34 218.049C791.705 217.323 790.932 216.729 790.067 216.302C789.203 215.875 788.262 215.622 787.299 215.558C786.336 215.495 785.371 215.621 784.457 215.931C783.543 216.241 782.699 216.727 781.974 217.363C776.993 221.742 769.481 227.24 763.129 227.282C752.595 227.282 687.444 255.85 684.785 263.516C683.526 267.084 680.588 268.119 677.79 268.203C675.903 268.294 674.125 269.118 672.837 270.501C671.549 271.883 670.851 273.714 670.893 275.604C670.893 279.031 671.397 282.599 672.908 284.361C676.35 288.362 677.189 298.043 698.775 298.575C720.362 299.107 730.491 306.172 728.042 315.965C726.371 322.028 724.224 327.95 721.621 333.676C720.973 335.133 720.821 336.761 721.187 338.313C721.554 339.864 722.419 341.253 723.65 342.266C730.225 347.694 743.627 355.696 756.764 345.232C775.175 330.57 775.776 334.236 775.776 334.236C775.776 334.236 774.111 328.472 777.763 324.876C781.414 321.281 786.605 314.356 792.298 316.944C797.992 319.532 801.937 301.121 803.336 298.925C804.735 296.728 826.056 294.322 831.079 296.617C836.101 298.911 841.277 296.407 848.65 286.432C854.862 278.038 867.704 273.505 874.573 273.393C875.668 273.372 876.743 273.111 877.725 272.627C878.707 272.143 879.57 271.45 880.253 270.595L885.248 264.342C885.898 263.54 886.367 262.608 886.626 261.608C886.884 260.609 886.925 259.566 886.745 258.55C886.143 255.15 885.779 250.044 888.857 249.316C893.544 248.225 897.923 251.023 906.037 238.544C909.702 232.948 913.032 229.954 915.928 228.485C916.932 227.978 917.805 227.244 918.479 226.343C919.152 225.441 919.608 224.396 919.81 223.288C920.012 222.181 919.954 221.042 919.643 219.961C919.331 218.88 918.773 217.885 918.012 217.056L917.844 216.874C916.953 215.969 916.308 214.851 915.972 213.627C915.637 212.402 915.621 211.111 915.928 209.879C917.663 202.912 920.167 189.887 913.466 191.076Z" fill="white" stroke="black" stroke-linejoin="round"/>
<path d="M663.073 284.375C663.778 283.945 664.563 283.662 665.381 283.541C666.198 283.42 667.031 283.465 667.831 283.672C668.631 283.88 669.381 284.246 670.037 284.749C670.693 285.252 671.241 285.881 671.648 286.6C673.249 289.756 675.621 292.455 678.545 294.448C685.605 299.018 693.933 301.227 702.328 300.758C713.311 300.296 722.068 303.682 724.279 312.481C726.489 321.281 716.878 335.788 716.794 337.775C716.71 339.762 720.893 348.743 735.233 351.429C749.573 354.115 755.7 352.59 761.66 344.882C767.62 337.174 775.048 337.229 776.293 337.607C777.539 337.985 776.699 332.725 778.784 329.031C780.868 325.338 784.38 318.623 791.598 319.112C797.95 319.518 802.315 311.768 804.455 303.43C804.736 302.317 805.322 301.306 806.148 300.51C806.974 299.713 808.006 299.164 809.128 298.925C813.814 297.89 821.565 296.505 825.734 297.526C831.945 298.925 837.597 302.534 843.361 295.665C849.125 288.796 857.351 279.031 872.391 275.66C872.849 275.553 873.319 275.506 873.79 275.52C875.762 275.52 881.596 275.1 884.114 269.574C887.164 262.887 888.507 265.713 888.689 259.529C888.871 253.346 888.899 251.541 895.782 250.632C902.665 249.722 908.96 239.44 908.988 238.041C909.016 236.642 912.024 228.709 925.231 229.479C938.437 230.248 940.913 233.186 940.62 235.508C940.494 236.712 939.962 239.705 939.5 242.154C939.303 243.281 938.796 244.332 938.035 245.187C937.273 246.042 936.289 246.668 935.191 246.994C933.429 247.498 931.61 248.393 931.428 249.904C931.036 252.968 925.832 250.771 926.28 258.074C926.728 265.377 929.539 268.259 925.217 269.728C920.894 271.197 910.037 271.127 908.96 277.478C907.883 283.83 916.781 289.132 918.865 289.873C920.95 290.615 920.138 295.469 923.3 296.141C926.462 296.812 927.623 295.078 927.035 297.232C926.448 299.387 925.636 309.305 925.357 309.823C925.077 310.341 920.152 311.908 918.991 314.02C918.194 315.419 919.313 318.861 920.516 321.015C921.334 322.354 921.619 323.952 921.313 325.492C920.488 328.821 919.621 334.655 921.845 339.832C923.867 344.328 926.229 348.663 928.91 352.8C929.51 353.777 929.828 354.9 929.828 356.046C929.828 357.192 929.51 358.315 928.91 359.292C927.777 361.194 926.728 363.643 927.231 365.629C927.451 366.609 927.432 367.627 927.177 368.598C926.922 369.569 926.437 370.465 925.765 371.211C925.092 371.956 924.25 372.529 923.31 372.882C922.37 373.235 921.359 373.358 920.362 373.24H920.096C917.886 372.96 916.039 372.26 914.696 374.037C910.919 379.059 902.623 389.496 895.11 385.929C892.142 384.489 889.097 383.214 885.989 382.109C884.917 381.74 883.764 381.675 882.657 381.922C881.551 382.169 880.534 382.718 879.721 383.508C877.639 385.72 874.902 387.205 871.913 387.747C868.925 388.288 865.841 387.857 863.115 386.516C851.154 381.27 850.734 376.415 838.465 387.817C838.465 387.817 833.526 393.623 825.51 387.971C824.699 387.398 818.641 383.858 814.416 388.685C810.191 393.511 798.705 390.321 792.9 386.656C787.094 382.991 780.127 379.661 775.902 380.934C773.02 381.816 759.953 388.629 751.895 392.896C750.518 393.642 748.908 393.832 747.395 393.426C745.883 393.02 744.584 392.049 743.767 390.713C742.137 388.108 739.671 386.135 736.772 385.117C727.832 381.662 727.636 385.201 720.907 381.326L717.102 379.129C716.225 378.632 715.485 377.926 714.946 377.075C714.407 376.223 714.085 375.252 714.01 374.247C713.241 364.062 709.058 332.179 686.59 317.741C686.015 317.371 685.381 317.101 684.715 316.944C680.728 315.993 665.129 311.544 659.393 298.757C659.393 298.757 655.196 290.559 658.26 287.733C659.762 286.474 661.372 285.35 663.073 284.375Z" fill="white" stroke="black" stroke-linejoin="round"/>
<path d="M714.571 380.416C714.417 378.766 724.154 386.432 730.519 385.775C735.332 385.285 738.437 390.545 739.669 393.147C739.854 393.545 739.918 393.988 739.85 394.422C739.783 394.855 739.588 395.259 739.291 395.582C735.975 399.177 725.091 411.796 721.65 426.094C717.564 443.035 711.143 440.713 711.143 440.713C711.143 440.713 688.843 432.515 689.822 431.606C692.285 429.283 715.662 392.56 714.571 380.416Z" fill="white" stroke="black" stroke-linejoin="round"/>
<path d="M745.249 395.442C744.697 395.173 744.072 395.093 743.471 395.215C742.869 395.336 742.324 395.652 741.919 396.113C738.436 400.003 731.399 408.201 728.965 413.769C725.663 421.295 723.746 431.956 720.123 436.418C718.724 438.125 717.234 439.755 715.66 441.301C715.476 441.477 715.34 441.697 715.266 441.941C715.191 442.185 715.181 442.444 715.236 442.693C715.291 442.942 715.409 443.172 715.579 443.362C715.749 443.552 715.964 443.695 716.206 443.777C721.638 445.767 726.479 449.097 730.28 453.458C736.183 460.257 746.788 464.762 750.705 466.273C750.897 466.345 751.101 466.378 751.306 466.369C751.51 466.36 751.711 466.31 751.895 466.221C752.08 466.132 752.244 466.006 752.379 465.852C752.513 465.697 752.615 465.517 752.678 465.322C754.077 460.929 758.511 448.254 764.331 446.463C767.758 445.42 771.262 444.649 774.81 444.155C775.136 444.109 775.448 443.993 775.724 443.814C776 443.636 776.235 443.399 776.41 443.121C776.586 442.843 776.699 442.529 776.742 442.203C776.784 441.877 776.755 441.545 776.656 441.231C775.257 437.034 771.956 428.64 765.143 423.114C765.143 423.114 760.946 419.966 763.282 417.14C765.618 414.314 778.825 425.31 783.26 424.765C787.694 424.219 790.52 420.666 794.55 421.561C798.579 422.457 802.524 426.542 804.664 429.535C806.805 432.529 808.414 433.131 809.337 432.879C810.26 432.627 818.011 432.781 819.312 431.088C820.613 429.396 814.933 428.29 814.653 425.059C814.443 422.652 813.492 416.329 813.016 413.251C812.94 412.747 812.728 412.274 812.402 411.882C812.077 411.49 811.651 411.194 811.17 411.027C809.771 410.467 807.756 409.474 807.952 408.117C808.106 407.054 808.386 405.696 808.623 404.605C808.732 404.089 808.693 403.552 808.51 403.057C808.327 402.562 808.007 402.128 807.588 401.807C806.443 401.026 805.536 399.944 804.965 398.68C804.395 397.416 804.185 396.02 804.357 394.644C804.453 394.034 804.319 393.409 803.98 392.892C803.641 392.375 803.122 392.002 802.524 391.846C800.757 391.474 798.939 391.412 797.152 391.665C795.47 391.884 793.766 391.462 792.382 390.482C790.997 389.502 790.033 388.036 789.681 386.376C789.681 386.376 778.083 380.179 773.019 384.25C773.019 384.25 751.195 398.24 745.249 395.442Z" fill="white" stroke="black" stroke-linejoin="round"/>
<path d="M683.106 432.739C677.202 434.977 662.974 439.328 649.628 435.537C649.628 435.537 638.87 435.537 641.877 448.981C644.885 462.426 634.966 473.604 635.596 478.738C635.596 478.738 633.078 489.175 638.394 492.154C643.71 495.134 664.975 485.915 667.773 485.048C670.571 484.18 677.3 484.264 679.65 485.607C682.001 486.95 682.253 481.662 675.803 476.304C669.354 470.946 674.18 459.124 677.776 458.117C680.392 457.347 688.73 447.009 693.053 441.455C693.396 441.016 693.644 440.51 693.78 439.97C693.917 439.43 693.939 438.868 693.845 438.318C693.752 437.769 693.545 437.246 693.237 436.781C692.93 436.317 692.529 435.922 692.059 435.621L688.66 433.411C687.853 432.869 686.929 432.526 685.963 432.409C684.998 432.292 684.019 432.405 683.106 432.739Z" fill="white" stroke="black" stroke-linejoin="round"/>
<path d="M701.364 438.909C700.467 438.532 699.463 438.498 698.542 438.813C697.622 439.127 696.849 439.769 696.37 440.615C693.572 445.498 687.976 454.605 683.303 456.256C676.896 458.495 672.657 468.385 676.308 471.645C679.33 474.359 683.779 478.85 683.597 483.439C683.568 484.206 683.756 484.967 684.139 485.632C684.523 486.298 685.086 486.842 685.765 487.202C687.923 488.408 689.587 490.334 690.466 492.644C692.872 498.604 695.166 520.694 704.344 522.163L707.296 522.639C707.958 522.747 708.637 522.685 709.268 522.46C709.9 522.234 710.464 521.851 710.907 521.348C711.351 520.844 711.659 520.237 711.803 519.581C711.947 518.926 711.922 518.245 711.731 517.602L701.798 484.334C701.798 484.334 700.245 474.737 708.387 472.247C716.529 469.756 723.93 477.171 733.261 462.02L733.387 461.74C733.752 460.944 733.843 460.05 733.646 459.197C733.448 458.344 732.973 457.58 732.296 457.026C722.863 449.599 712.455 443.503 701.364 438.909Z" fill="white" stroke="black" stroke-linejoin="round"/>
<path d="M716.276 527.633C716.276 527.633 704.804 488.377 704.888 485.775C704.888 483.928 702.608 475.632 710.079 474.387C719.074 472.904 725.915 475.142 729.385 471.057C731.57 468.31 733.447 465.331 734.981 462.174C735.148 461.859 735.43 461.619 735.768 461.505C736.106 461.39 736.475 461.409 736.799 461.558L772.782 478.962C773.101 479.122 773.347 479.398 773.469 479.733C773.591 480.069 773.581 480.439 773.439 480.766L763.324 502.969C762.737 504.273 761.713 505.332 760.428 505.962L756.231 507.949C754.779 508.635 753.6 509.792 752.887 511.232C752.173 512.671 751.967 514.31 752.3 515.881L758.931 546.869C758.974 547.169 758.918 547.474 758.772 547.739C758.626 548.005 758.398 548.215 758.122 548.34C757.846 548.464 757.537 548.496 757.242 548.43C756.946 548.364 756.68 548.204 756.483 547.974C755.188 545.769 754.244 543.376 753.685 540.881C750.412 529.158 743.053 538.195 743.053 538.195C743.053 538.195 740.94 540.462 737.821 536.083C735.288 532.515 730.14 534.292 728.293 535.09C728.075 535.193 727.836 535.247 727.594 535.247C727.352 535.247 727.113 535.193 726.894 535.09C724.418 533.732 716.71 529.521 716.276 527.633Z" fill="white" stroke="black" stroke-linejoin="round"/>
<path d="M819.564 433.019C819.938 432.927 820.33 432.944 820.695 433.068C821.059 433.192 821.381 433.417 821.621 433.718C822.814 435.178 823.502 436.985 823.583 438.869C823.664 440.753 823.132 442.612 822.068 444.169C817.983 450.898 814.262 450.408 812.961 453.052C811.66 455.697 808.176 476.64 811.128 478.808C814.08 480.976 820.292 481.76 818.809 485.034C817.326 488.307 814.108 485.817 807.91 482.991C801.713 480.165 786.296 474.387 778.532 477.143C778.088 477.322 777.607 477.385 777.133 477.325C774.558 476.975 765.633 475.227 755.924 467.28C755.546 466.979 755.268 466.571 755.128 466.108C754.988 465.646 754.993 465.152 755.14 464.692C756.371 460.859 759.715 451.038 762.219 449.653C765.325 447.932 778.909 445.638 779.357 444.421C779.805 443.204 773.355 425.212 767.06 422.149C767.06 422.149 764.57 421.211 765.129 419.952C765.689 418.693 769.088 419.952 771.229 421.211C774.256 423.102 777.473 424.673 780.826 425.898C782.788 426.306 784.812 426.316 786.778 425.927C788.744 425.537 790.611 424.757 792.27 423.632C795.641 421.113 801.643 427.898 803.364 432.319C805.084 436.74 811.562 434.74 814.22 434.236C816.011 433.9 818.235 433.355 819.564 433.019Z" fill="white" stroke="black" stroke-linejoin="round"/>
<path d="M777.707 479.382C777.368 479.467 777.054 479.631 776.789 479.859C776.525 480.087 776.317 480.374 776.182 480.697C774.391 485.075 766.991 502.913 764.836 505.487C762.402 508.411 755.855 507.949 754.19 512.482C752.693 516.497 760.178 542.63 761.856 548.366C761.964 548.753 762.159 549.111 762.426 549.411C762.692 549.712 763.024 549.948 763.395 550.101C764.941 550.769 766.656 550.942 768.304 550.596C769.953 550.25 771.453 549.403 772.601 548.17C777.679 543.204 784.198 547.988 786.213 548.17C788.227 548.352 797.545 546.156 800.749 543.777C803.952 541.399 802.553 536.712 809.352 534.446C813.549 533.047 817.746 532.012 820.376 531.424C820.715 531.347 821.034 531.203 821.316 531.001C821.598 530.799 821.836 530.542 822.018 530.246C822.199 529.95 822.319 529.621 822.371 529.278C822.423 528.935 822.406 528.585 822.321 528.248C820.362 520.68 814.962 498.87 815.718 491.119C815.749 490.794 815.707 490.466 815.595 490.159C815.484 489.851 815.306 489.573 815.074 489.342C813.675 487.943 809.856 485.285 799.419 481.704C787.584 477.591 780.337 478.654 777.707 479.382Z" fill="white" stroke="black" stroke-linejoin="round"/>
<path d="M888.688 490.014C888.373 489.858 888.026 489.778 887.674 489.778C887.322 489.778 886.975 489.858 886.66 490.014C883.358 491.693 871.159 496.561 853.377 488.363C853.377 488.363 852.58 488.027 851.825 487.65C851.659 487.561 851.517 487.434 851.411 487.279C851.305 487.124 851.237 486.946 851.214 486.76C851.191 486.573 851.212 486.384 851.277 486.208C851.342 486.032 851.448 485.874 851.587 485.747C853.503 484.012 857.029 480.333 854.021 478.962C850.048 477.143 850.188 480.948 844.62 482.963C839.052 484.977 831.511 488.209 823.173 484.11C823.173 484.11 820.025 482.165 818.626 489.874C817.227 497.582 825.551 524.849 825.16 527.871C824.768 530.893 824.838 531.466 823.201 532.837C821.564 534.208 815.339 535.02 811.645 536.461C807.952 537.902 808.707 537.146 806.357 540.518C804.007 543.889 802.16 547.135 799.362 547.149C796.564 547.163 789.499 549.527 789.499 549.527C789.499 549.527 786.869 551.066 788.758 554.242C790.646 557.418 804.385 558.341 809.575 559.586C815.547 561.308 821.356 563.55 826.936 566.287C829.958 567.868 830.364 560.985 835.121 561.419C839.877 561.852 846.62 562.118 855.182 569.967C863.744 577.815 870.151 580.123 872.572 579.76C874.992 579.396 879.077 581.005 881.567 575.982C884.057 570.96 886.324 570.666 888.814 572.513C891.304 574.359 890.339 576.948 894.27 578.738C898.201 580.529 902.972 578.263 906.329 583.523C909.687 588.783 909.127 591.077 910.233 591.161C911.338 591.245 914.709 586.237 922.74 591.007C930.77 595.778 933.204 599.318 936.967 599.709C940.731 600.101 951.167 595.162 942.885 588.056C941.205 587.078 939.325 586.494 937.386 586.349C935.447 586.203 933.501 586.5 931.693 587.216C925.524 589.664 914.514 578.584 911.8 574.317C909.085 570.05 906.078 561.601 900.608 558.173C895.137 554.745 882.686 544.043 881.106 534.39C879.525 524.737 878.629 522.946 880.672 519.127C882.714 515.308 889.527 513.251 891.192 512.706C892.857 512.16 891.556 506.802 893.99 508.607C896.424 510.411 897.656 514.328 898.803 512.02C899.95 509.712 899.46 495.344 888.688 490.014Z" fill="white" stroke="black" stroke-linejoin="round"/>
<path d="M707.267 524.275C706.549 524.41 705.882 524.744 705.343 525.239C704.804 525.733 704.414 526.369 704.218 527.073C703.392 529.871 700.524 538.265 694.76 542.714C687.765 548.016 678.644 553.822 681.022 555.711C683.401 557.599 697.558 548.716 699.489 550.381C701.42 552.045 695.67 560.244 697.852 562.846C700.035 565.448 710.639 567.602 709.814 570.596C708.988 573.59 703.938 577.885 708.541 579.312C713.143 580.739 715.634 575.269 719.285 575.856C722.936 576.444 724.881 581.354 722.349 585.076C719.817 588.797 715.354 592.295 717.9 603.123C720.446 613.951 717.55 617.784 718.431 620.876C719.313 623.968 737.094 634.642 739.682 633.467C742.27 632.292 740.48 628.165 745.782 630.669C751.084 633.173 762.22 648.129 765.634 648.618C769.047 649.108 767.69 644.421 770.572 646.953C773.454 649.486 770.334 653.948 774.279 656.858C774.279 656.858 790.983 668.12 806.33 661.363C810.418 661.149 814.496 661.922 818.222 663.616C818.831 663.985 819.558 664.108 820.255 663.96C820.951 663.811 821.565 663.403 821.971 662.818C822.909 661.419 822.769 658.775 817.606 654.424C808.093 646.31 793.46 637.902 794.187 632.166C794.915 626.43 800.986 616.931 803.532 615.798C806.079 614.665 808.079 611.139 804.931 605.655C801.784 600.171 811.129 596.478 812.346 595.009C813.563 593.54 817.341 587.314 811.703 583.131C807.394 579.941 813.395 572.037 817.131 567.966C817.404 567.668 817.602 567.31 817.711 566.92C817.82 566.531 817.835 566.121 817.756 565.725C817.677 565.329 817.506 564.956 817.256 564.638C817.007 564.32 816.686 564.066 816.319 563.895C812.514 562.132 806.107 559.698 801.14 560.467C793.586 561.671 784.912 557.04 785.401 553.892C785.891 550.744 784.002 547.023 778.071 548.674C772.139 550.325 765.801 555.207 759.982 552.004C754.162 548.8 751.588 542.378 751.588 540.895C751.588 539.413 747.391 535.453 744.187 539.678C740.983 543.903 737.598 538.769 736.562 537.79C735.674 536.788 734.455 536.138 733.128 535.959C731.8 535.779 730.453 536.081 729.33 536.81C726 539.077 713.647 531.019 713.535 527.997C713.353 525.772 710.065 523.786 707.267 524.275Z" fill="white" stroke="black" stroke-linejoin="round"/>
<path d="M894.06 386.614C894.335 386.725 894.585 386.891 894.794 387.102C895.003 387.313 895.166 387.565 895.274 387.841C895.381 388.118 895.431 388.414 895.419 388.711C895.408 389.007 895.336 389.298 895.207 389.566C894.046 392.098 893.053 396.561 897.851 399.863C904.986 404.829 918.193 417.112 921.242 422.848C924.292 428.584 931.399 445.582 929.762 457.166C928.125 468.749 916.22 472.009 910.176 477.129C904.133 482.25 902.999 488.209 896.564 488.811C893.662 489.232 890.701 488.83 888.016 487.65C887.798 487.546 887.559 487.493 887.317 487.493C887.075 487.493 886.836 487.546 886.617 487.65C884.365 488.657 877.804 491.329 872.865 490.56C866.835 489.622 856.511 485.425 855.755 485.09C855 484.754 860.89 478.934 853.503 476.276C852.385 475.849 851.15 475.845 850.029 476.265C848.908 476.685 847.98 477.5 847.417 478.556C844.843 482.431 835.904 485.845 825.677 483.005L815.17 479.228C813.939 478.668 812.191 476.724 812.275 475.381C812.624 469.785 814.667 455.081 815.073 454.242C815.478 453.402 832.098 445.302 825.411 436.055C824.544 434.852 818.738 426.751 817.773 425.101C816.975 423.702 815.716 415.168 815.282 412.132C815.239 411.825 815.117 411.536 814.928 411.29C814.739 411.045 814.49 410.853 814.205 410.733C812.806 410.117 810.134 408.634 810.792 406.06C810.792 406.06 813.002 402.521 809.868 400.087C806.735 397.652 805.014 394.491 808.357 393.637C811.701 392.784 815.128 391.665 816.583 390C818.038 388.335 819.172 387.202 823.746 389.608C828.321 392.014 832.602 393.665 835.428 392.126C838.759 390.086 841.914 387.77 844.857 385.201C846.211 384.182 847.842 383.596 849.535 383.521C851.228 383.446 852.904 383.886 854.342 384.781C858.539 387.062 857.91 390.951 863.128 390.797C868.346 390.643 874.054 390.322 877.118 387.747C880.182 385.173 883.358 382.697 887.023 383.97C889.135 384.628 892.045 385.789 894.06 386.614Z" fill="white" stroke="black" stroke-linejoin="round"/>
</g>
<defs>
<linearGradient id="paint0_linear_804_26453" x1="638.337" y1="25.4087" x2="638.337" y2="1051.66" gradientUnits="userSpaceOnUse">
<stop stop-color="#785731"/>
<stop offset="1" stop-color="#DEA15A"/>
</linearGradient>
<linearGradient id="paint1_linear_804_26453" x1="8.47807" y1="1032.92" x2="8.47807" y2="1051.63" gradientUnits="userSpaceOnUse">
<stop stop-color="#785731"/>
<stop offset="1" stop-color="#DEA15A"/>
</linearGradient>
<linearGradient id="paint2_linear_804_26453" x1="501.126" y1="165.001" x2="501.126" y2="1051.63" gradientUnits="userSpaceOnUse">
<stop stop-color="#785731"/>
<stop offset="1" stop-color="#DEA15A"/>
</linearGradient>
<linearGradient id="paint3_linear_804_26453" x1="346.232" y1="278.46" x2="346.232" y2="892.943" gradientUnits="userSpaceOnUse">
<stop stop-color="#785731"/>
<stop offset="1" stop-color="#DEA15A"/>
</linearGradient>
<linearGradient id="paint4_linear_804_26453" x1="164.594" y1="525.817" x2="164.594" y2="1051.63" gradientUnits="userSpaceOnUse">
<stop stop-color="#785731"/>
<stop offset="1" stop-color="#DEA15A"/>
</linearGradient>
<linearGradient id="paint5_linear_804_26453" x1="916.87" y1="547.813" x2="916.87" y2="774.692" gradientUnits="userSpaceOnUse">
<stop stop-color="#785731"/>
<stop offset="1" stop-color="#DEA15A"/>
</linearGradient>
<clipPath id="clip0_804_26453">
<rect width="1286" height="1051.63" fill="white"/>
</clipPath>
</defs>
</svg>
