<svg width="1286" height="1052" viewBox="0 0 1286 1052" fill="none" xmlns="http://www.w3.org/2000/svg">
<g clip-path="url(#clip0_804_26453)">
<path d="M0.702148 461.102C4.69113 446.406 25.4577 376.051 61.7157 360.408C102.201 342.925 159.559 277.079 196.365 254.456C233.17 231.833 253.211 220.501 290.957 212.272C328.704 204.043 415.675 162.07 420.95 161.347C427.511 160.453 533.249 164.949 533.249 164.949C533.249 164.949 615.291 170.01 654.371 153.026C655.112 152.698 655.832 152.316 656.526 151.882C670.781 142.579 682.078 128.634 688.867 111.96C688.867 111.96 699.584 87.2725 727.078 75.9543C754.572 64.6361 827.255 32.2326 840.77 30.2345C854.285 28.2364 876.647 20.4543 895.746 30.2345C914.846 40.0147 934.886 60.0615 934.886 132.072C934.886 136.896 942.257 155.287 974.657 172.823C976.781 173.96 978.665 175.575 980.189 177.566C981.713 179.556 982.842 181.876 983.504 184.378C986.933 197.444 994.125 222.407 1000.58 228.783C1009.44 237.525 1015.96 266.34 1022.49 272.505C1028.76 278.46 1046.73 298.796 1071.79 304.803C1072.74 305.027 1073.7 305.237 1074.67 305.421C1101.23 310.574 1110.54 346.067 1147.36 362.525C1184.18 378.983 1199.54 387.724 1207.92 404.708C1216.31 421.692 1224.7 423.73 1223.77 459.222C1222.84 494.715 1244.32 501.866 1244.32 501.866C1244.32 501.866 1275.58 513.868 1275.56 548.243C1275.56 549.078 1275.64 549.909 1275.78 550.728C1276.59 555.105 1276.81 571.76 1231.43 566.239C1228.46 565.863 1225.46 566.353 1222.72 567.659C1206.82 575.336 1150.37 605.373 1106.4 664.409C1061.95 724.103 1047.78 749.211 1044.68 755.113C1044.08 756.251 1043.59 757.459 1043.22 758.715C1042.03 762.764 1039.9 772.531 1040.24 789.436C1040.71 812.585 1017.4 875.341 1023.47 919.575C1029.53 963.81 1075.96 1040.34 1078.24 1051.66" stroke="url(#paint0_linear_804_26453)" stroke-width="3" stroke-miterlimit="10"/>
<path d="M16.9561 1051.63C12.4601 1051.63 8.14903 1049.66 4.96982 1046.15C1.79061 1042.64 0.00315404 1037.88 0 1032.92" stroke="url(#paint1_linear_804_26453)" stroke-width="3" stroke-miterlimit="10"/>
<path d="M387.408 1051.63C387.408 1051.63 377.62 1032.21 387.408 1026.54C397.196 1020.87 518.485 918.524 522.843 910.978C527.201 903.433 527.808 887.658 527.808 887.658C537.132 837.587 606.706 774.489 606.706 774.489C579.998 742.257 588.691 618.124 588.691 618.124C606.087 574.232 594.906 555.71 594.906 555.71L565.709 559.141C536.512 562.572 512.9 522.794 512.9 522.794C512.9 522.794 515.389 496.726 516.008 475.47C516.627 454.214 503.576 435.679 499.849 410.308C496.122 384.938 518.485 363.668 518.485 363.668L547.741 368.466C612.351 354.072 618.554 282.745 619.185 264.223C619.817 245.701 586.881 210.721 582.523 201.809C578.164 192.896 533.297 165.001 533.297 165.001" stroke="url(#paint2_linear_804_26453)" stroke-width="3" stroke-miterlimit="10"/>
<path d="M165.072 278.46C165.072 278.46 208.487 309.483 242.03 330.069C275.573 350.654 305.401 409.283 305.401 426.766C305.401 444.25 333.407 533.705 379.013 551.254C424.618 568.803 461.019 618.125 448.909 648.99C448.909 648.99 411.317 721.001 413.497 730.255C414.687 735.237 481 852.968 527.391 892.943" stroke="url(#paint3_linear_804_26453)" stroke-width="3" stroke-miterlimit="10"/>
<path d="M0 525.817L5.33452 567.37C5.33452 567.37 55.6552 596.408 65.5979 608.292C75.5406 620.175 143.246 747.752 148.223 750.486C153.201 753.22 180.528 766.26 188.601 779.301C196.675 792.341 273.716 841.702 281.17 849.195C288.624 856.688 312.855 941.791 320.928 947.273C329.002 952.755 332.11 957.566 325.906 967.162C319.702 976.758 310.367 1033.69 288.624 1044.72L278.633 1051.63" stroke="url(#paint4_linear_804_26453)" stroke-width="3" stroke-miterlimit="10"/>
<path d="M606.706 774.489C606.706 774.489 749.595 778.604 757.049 749.802C764.503 721.001 761.395 695.617 774.446 690.135C787.496 684.653 931.624 642.128 960.201 627.721C960.201 627.721 986.922 626.406 1001.21 601.666C1015.5 576.927 1150.26 544.05 1186.33 548.164C1222.41 552.279 1227.03 565.648 1227.03 565.648" stroke="url(#paint5_linear_804_26453)" stroke-width="3" stroke-miterlimit="10"/>
<path d="M46.3314 1051.63C46.3314 1048.15 48.7129 1028.6 78.017 1018.31C107.321 1008.02 86.8762 994.649 56.1193 1002.37C25.3625 1010.08 23.0406 972.539 49.5941 969.962C49.5941 969.962 76.6239 985.907 72.8969 948.929C72.8969 948.929 75.6951 905.72 104.106 902.631C132.517 899.542 158.166 903.946 160.488 892.996C162.81 882.045 169.811 877.944 142.317 869.189C114.823 860.434 133.982 824.955 145.58 813.124C157.177 801.293 162.822 787.582 192.638 788.779C222.454 789.975 224.323 789.357 235.504 774.752C246.685 760.148 255.545 733.397 267.654 738.537C279.764 743.677 252.746 798.73 262.999 801.806C273.251 804.882 273.715 786.899 289.088 785.348C304.46 783.796 302.186 794.089 315.653 784.322C329.12 774.555 349.196 765.288 351.066 734.935C352.935 704.582 362.247 690.701 368.296 691.213C374.345 691.726 369.391 717.964 383.061 718.477C396.731 718.99 392.992 712.824 401.387 714.362C406.427 715.293 411.343 716.913 416.021 719.187C416.021 719.187 457.78 727.652 447.98 698.93C438.18 670.207 433.084 660.203 442.634 661.307C452.184 662.412 470.807 671.666 474.998 670.641C479.19 669.615 491.776 603.599 512.28 608.344C532.785 613.09 532.308 657.784 538.369 667.499C544.43 677.213 548.562 700.941 527.391 722.026C506.219 743.111 534.178 753.917 550.479 755.981C566.78 758.045 587.571 765.564 597.454 756.139C607.337 746.713 586.832 746.713 577.973 717.399C569.114 688.085 577.973 638.185 593.822 630.981C609.671 623.777 609.195 627.379 609.195 627.379C609.195 627.379 605.325 581.081 619.137 577.426C632.95 573.772 649.727 593.898 649.727 593.898C649.727 593.898 650.192 572.799 681.413 573.838C712.634 574.876 722.422 581.541 719.159 588.745C715.897 595.948 671.577 619.15 672.566 629.956C673.554 640.761 685.604 644.35 682.806 657.732C680.008 671.114 659.051 727.692 669.768 731.806C680.484 735.921 684.211 701.454 697.726 700.428C711.241 699.403 725.327 704.595 727.078 735.395C728.828 766.195 740.176 806.38 690.737 784.782C690.737 784.782 669.768 779.643 677.638 803.304C685.509 826.966 697.678 835.708 662.266 839.31C626.853 842.911 587.249 862.459 569.079 901.027C550.908 939.596 542.977 999.802 548.622 1000.83C554.266 1001.85 584.189 924.689 606.706 927.213C629.223 929.737 639.475 974.537 651.597 976.088C663.719 977.639 670.649 977.113 675.828 953.451C681.008 929.79 703.311 892.233 744.784 906.128C786.258 920.023 794.64 929.79 795.986 961.68C797.332 993.571 828.136 978.138 841.651 1005.91C855.166 1033.69 856.142 1038.15 858.012 1051.63" stroke="#D3964C" stroke-width="2" stroke-miterlimit="10"/>
<path d="M575.64 1051.63C575.64 1051.63 581.701 1034.77 581.236 1026.54C580.772 1018.31 590.083 985.395 611.981 992.086C633.879 998.777 636.213 1015.75 634.819 1021.41C633.426 1027.08 635.748 1029.12 628.294 1037.86C620.84 1046.6 619.185 1051.63 619.185 1051.63" stroke="#D3964C" stroke-width="2" stroke-miterlimit="10"/>
<path d="M133.935 1051.63C133.935 1051.63 151.641 1016.77 173.539 1017.8C195.436 1018.82 203.307 1041.97 215.012 1007.51C226.717 973.038 240.637 985.907 253.211 996.2C253.211 996.2 262.535 1001.85 272.787 997.226C272.787 997.226 292.815 1001.85 296.542 999.855C300.269 997.857 304.877 991.612 271.382 981.845C237.886 972.078 275.573 938.584 290.541 931.38C305.508 924.176 317.559 904.116 293.803 903.604C293.803 903.604 272.834 921.1 257.926 914.409C257.926 914.409 246.269 913.384 251.866 899.949C251.866 899.949 257.926 894.06 230.432 892.89C230.432 892.89 206.201 891.208 209.463 880.402C212.726 869.597 235.552 851.6 253.259 856.74C270.965 861.88 301.257 875.775 314.296 875.775C327.335 875.775 332.943 875.262 338.992 845.948C345.041 816.634 352.09 786.439 367.879 788.673C383.669 790.908 364.152 830.515 367.879 847.486C371.606 864.457 378.132 881.441 393.504 854.177C408.877 826.913 413.544 822.286 421.463 824.337C429.381 826.388 430.322 833.539 437.311 847.486C444.301 861.433 435.906 863.431 454.077 868.519C472.248 873.606 518.377 895.059 523.045 910.584C527.713 926.109 530.034 948.706 504.41 970.356C478.785 992.007 464.746 1015 460.555 1051.63" stroke="#D3964C" stroke-width="2" stroke-miterlimit="10"/>
<path d="M256.009 1051.63C256.009 1051.63 257.402 1030.6 285.361 1030.14C313.319 1029.68 344.54 1037.86 354.328 1004.94C364.116 972.026 325.905 993.624 324.5 957.106C324.5 957.106 316.165 941.673 335.681 942.646C355.198 943.618 348.779 952.938 372.963 946.76C397.147 940.582 403.768 948.377 407.435 978.138C407.435 978.138 403.542 990.061 427.154 994.649C450.766 999.237 456.363 1007.45 455.434 1016.72C454.505 1025.99 447.98 1041.41 435.394 1041.92C422.808 1042.43 420.021 1033.23 411.162 1035.86C411.162 1035.86 413.008 1043.66 398.124 1041C383.239 1038.34 378.548 1039.23 378.548 1051.69" stroke="#D3964C" stroke-width="2" stroke-miterlimit="10"/>
<path d="M950.89 1050.89C950.89 1050.89 978.217 1019.34 931.004 974.077C883.792 928.817 890.674 897.951 840.925 880.113C791.176 862.275 779.423 840.335 796.189 821.129C812.954 801.924 843.402 804.04 858.012 770.375C872.622 736.709 870.122 733.344 858.012 712.088C845.902 690.832 878.767 690.819 893.056 696.997C907.344 703.175 950.211 696.313 970.096 668.182C989.982 640.051 1086.27 541.842 1114.84 538.489C1143.42 535.137 1179.46 537.175 1180.08 533.074C1180.7 528.972 1124.12 503.588 1100.55 489.865C1076.99 476.141 1084.41 454.201 1101.19 461.746C1117.96 469.292 1142.8 487.13 1149.64 476.206C1156.14 465.769 1160.67 460.3 1141.86 443.264C1139.94 441.507 1138.33 439.377 1137.1 436.98C1131.45 426.149 1111.57 394.047 1072.67 389.788C1020.44 384.057 1018.61 382.926 996.864 365.101C975.121 347.276 953.998 367.835 937.851 382.926C937.851 382.926 878.207 367.152 850.248 387.041C824.243 405.55 818.098 441.266 822.409 471.001C822.468 471.426 822.406 471.861 822.23 472.245C822.055 472.629 821.775 472.942 821.43 473.142C821.085 473.342 820.692 473.418 820.306 473.359C819.92 473.301 819.56 473.11 819.277 472.815C812.573 465.795 799.725 454.411 794.343 463.863C786.889 476.89 780.054 513.277 789.044 526.632C798.034 539.988 801.166 566.568 771.957 525.817C742.748 485.066 778.792 454.201 767.611 447.339C756.43 440.477 684.985 466.545 647.763 454.832C610.54 443.119 583.773 438.374 570.103 443.172C556.433 447.97 555.195 422.599 567.614 419.852C580.034 417.105 669.506 418.537 671.983 378.023C674.459 337.509 662.671 336.181 685.081 327.269C707.491 318.356 721.113 325.205 719.874 236.053C719.874 236.053 720.493 204.503 670.792 251.143C670.792 251.143 639.964 302.332 635.379 266.918C634.76 262.107 663.957 249.08 650.287 238.103C639.428 229.388 621.71 238.011 614.887 241.929C613.129 242.923 611.301 243.759 609.421 244.426C600.669 247.542 573.354 261.778 573.877 317.673C574.497 384.188 543.43 359.843 542.501 359.501C541.573 359.16 471.271 333.894 452.327 334.867C433.382 335.84 420.641 340.69 404.804 356.465C388.967 372.239 366.879 386.305 346.232 394.876C325.584 403.446 292.351 393.85 278.681 408.258C265.011 422.665 264.392 434.654 269.369 447.339C274.347 460.024 324.632 491.639 346.232 499.526C367.832 507.414 393.302 522.491 388.955 532.101C384.609 541.71 328.692 526.619 316.32 522.491C303.948 518.364 294.53 515.59 292.922 533.705C291.315 551.819 305.044 582.75 305.663 587.89C306.282 593.03 309.39 612.235 290.445 590.637C271.501 569.039 273.978 552.226 239.803 558.405C205.629 564.583 137.257 608.949 99.0696 665.461C60.8826 721.973 53.1189 778.906 53.4285 792.275C53.7381 805.644 34.7934 779.59 22.6836 780.957C10.5738 782.324 9.63309 809.469 0 809.469" stroke="#D3964C" stroke-width="2" stroke-miterlimit="10"/>
<path d="M850.189 132.545C850.189 132.545 776.363 139.342 754.572 173.691C732.782 208.04 748.356 253.878 760.776 258.045C773.195 262.212 803.643 273.136 827.255 291.658C850.867 310.18 853.344 321.892 883.22 326.638C913.095 331.383 952.176 326.638 934.779 276.567C917.382 226.496 875.706 217.583 862.096 215.585C848.486 213.587 854.011 197.063 855.261 194.316C856.511 191.568 909.88 140.091 850.189 132.545Z" stroke="#D3964C" stroke-width="2" stroke-miterlimit="10"/>
<path d="M806.132 191.029C800.543 191.149 795.196 193.562 791.132 197.798C787.068 202.034 784.579 207.79 784.15 213.942C783.9 217.425 784.377 220.515 786.222 222.381C792.438 228.56 807.346 251.88 815.431 259.425C823.516 266.971 829.97 279.314 841.33 279.314C852.69 279.314 857.667 261.476 825.993 237.472C820.553 226.51 817.5 214.3 817.074 201.809C816.92 193.356 811.883 190.977 806.132 191.029Z" stroke="#D3964C" stroke-width="2" stroke-miterlimit="10"/>
<path d="M606.706 774.489C579.997 742.257 588.69 618.124 588.69 618.124C606.087 574.232 594.906 555.71 594.906 555.71L565.709 559.141C536.512 562.572 512.899 522.794 512.899 522.794C512.899 522.794 515.388 496.726 516.007 475.47C516.626 454.214 503.576 435.679 499.849 410.308C496.122 384.938 518.484 363.668 518.484 363.668L547.74 368.466C612.35 354.072 618.554 282.745 619.185 264.223C619.816 245.701 586.88 210.721 582.522 201.809C578.164 192.896 533.297 165.001 533.297 165.001" stroke="#FFF9B5" stroke-width="5" stroke-miterlimit="10"/>
<path d="M606.706 774.489C606.706 774.489 749.595 778.604 757.049 749.802C764.503 721.001 761.395 695.617 774.445 690.135C787.496 684.654 931.623 642.128 960.201 627.721C960.201 627.721 986.921 626.406 1001.21 601.666C1015.5 576.927 1150.26 544.05 1186.33 548.164C1222.41 552.279 1227.03 565.648 1227.03 565.648L1231.38 566.239C1276.76 571.813 1276.55 555.105 1275.74 550.728C1275.59 549.91 1275.51 549.078 1275.51 548.243C1275.51 513.868 1244.28 501.866 1244.28 501.866C1244.28 501.866 1222.84 494.663 1223.77 459.17C1224.7 423.677 1216.32 421.627 1207.92 404.656C1199.53 387.685 1184.17 378.93 1147.36 362.472C1110.56 346.014 1101.23 310.521 1074.67 305.368C1073.7 305.184 1072.74 304.974 1071.79 304.751C1046.78 298.677 1028.76 278.46 1022.49 272.452C1015.96 266.287 1009.39 237.472 1000.58 228.73C994.125 222.355 986.933 197.392 983.504 184.325C982.842 181.824 981.713 179.503 980.189 177.513C978.665 175.523 976.781 173.907 974.657 172.77C942.257 155.234 934.886 136.844 934.886 132.02C934.886 60.0089 914.846 40.0015 895.746 30.1819C876.647 20.3623 854.273 28.1181 840.77 30.1819C827.267 32.2457 754.572 64.6361 727.078 75.9543C699.584 87.2725 688.867 111.96 688.867 111.96C682.078 128.634 670.781 142.579 656.526 151.882C655.832 152.316 655.112 152.698 654.371 153.026C615.291 170.01 533.249 164.949 533.249 164.949" stroke="#FFF9B5" stroke-width="5" stroke-miterlimit="10"/>
</g>
<defs>
<linearGradient id="paint0_linear_804_26453" x1="638.337" y1="25.4087" x2="638.337" y2="1051.66" gradientUnits="userSpaceOnUse">
<stop stop-color="#785731"/>
<stop offset="1" stop-color="#DEA15A"/>
</linearGradient>
<linearGradient id="paint1_linear_804_26453" x1="8.47807" y1="1032.92" x2="8.47807" y2="1051.63" gradientUnits="userSpaceOnUse">
<stop stop-color="#785731"/>
<stop offset="1" stop-color="#DEA15A"/>
</linearGradient>
<linearGradient id="paint2_linear_804_26453" x1="501.126" y1="165.001" x2="501.126" y2="1051.63" gradientUnits="userSpaceOnUse">
<stop stop-color="#785731"/>
<stop offset="1" stop-color="#DEA15A"/>
</linearGradient>
<linearGradient id="paint3_linear_804_26453" x1="346.232" y1="278.46" x2="346.232" y2="892.943" gradientUnits="userSpaceOnUse">
<stop stop-color="#785731"/>
<stop offset="1" stop-color="#DEA15A"/>
</linearGradient>
<linearGradient id="paint4_linear_804_26453" x1="164.594" y1="525.817" x2="164.594" y2="1051.63" gradientUnits="userSpaceOnUse">
<stop stop-color="#785731"/>
<stop offset="1" stop-color="#DEA15A"/>
</linearGradient>
<linearGradient id="paint5_linear_804_26453" x1="916.87" y1="547.813" x2="916.87" y2="774.692" gradientUnits="userSpaceOnUse">
<stop stop-color="#785731"/>
<stop offset="1" stop-color="#DEA15A"/>
</linearGradient>
<clipPath id="clip0_804_26453">
<rect width="1286" height="1051.63" fill="white"/>
</clipPath>
</defs>
</svg>
