<svg width="48" height="48" viewBox="0 0 48 48" fill="none" xmlns="http://www.w3.org/2000/svg">
<g clip-path="url(#clip0_2640_34092)">
<path d="M16.3823 12C13.9547 12 12 13.9547 12 16.3823V31.6178C12 34.0453 13.9547 36 16.3823 36H24.6398V26.6175H22.1588V23.2395H24.6398V20.3535C24.6398 18.0861 26.1057 16.0043 29.4825 16.0043C30.8497 16.0043 31.8608 16.1355 31.8608 16.1355L31.7813 19.29C31.7813 19.29 30.7501 19.2803 29.625 19.2803C28.4073 19.2803 28.212 19.8414 28.212 20.7728V23.2395H31.878L31.7183 26.6175H28.212V36H31.6177C34.0453 36 36 34.0454 36 31.6178V16.3823C36 13.9547 34.0453 12 31.6177 12H16.3822L16.3823 12Z" fill="white"/>
</g>
<defs>
<clipPath id="clip0_2640_34092">
<rect width="24" height="24" fill="white" transform="translate(12 12)"/>
</clipPath>
</defs>
</svg>
